<?xml version="1.0" standalone="no"?><!DOCTYPE svg PUBLIC "-//W3C//DTD SVG 1.1//EN" "http://www.w3.org/Graphics/SVG/1.1/DTD/svg11.dtd"><svg t="1542763415304" class="icon" style="" viewBox="0 0 1024 1024" version="1.1" xmlns="http://www.w3.org/2000/svg" p-id="1358" xmlns:xlink="http://www.w3.org/1999/xlink" width="200" height="200"><defs><style type="text/css"></style></defs><path d="M512 896a384 384 0 1 1 384-384 384 384 0 0 1-384 384z m0-682.666667a298.666667 298.666667 0 1 0 298.666667 298.666667 298.666667 298.666667 0 0 0-298.666667-298.666667z" fill="#FC455D" p-id="1359"></path><path d="M511.975006 681.112994m-30.169889 30.169889a42.666667 42.666667 0 1 0 60.339779-60.339779 42.666667 42.666667 0 1 0-60.339779 60.339779Z" fill="#FF9B57" p-id="1360"></path><path d="M512 608a42.666667 42.666667 0 0 1-42.666667-42.666667v-234.666666a42.666667 42.666667 0 0 1 85.333334 0v234.666666a42.666667 42.666667 0 0 1-42.666667 42.666667z" fill="#FD8F9E" p-id="1361"></path></svg>