<?xml version="1.0" standalone="no"?><!DOCTYPE svg PUBLIC "-//W3C//DTD SVG 1.1//EN" "http://www.w3.org/Graphics/SVG/1.1/DTD/svg11.dtd"><svg t="1542766340046" class="icon" style="" viewBox="0 0 1024 1024" version="1.1" xmlns="http://www.w3.org/2000/svg" p-id="1451" xmlns:xlink="http://www.w3.org/1999/xlink" width="200" height="200"><defs><style type="text/css"></style></defs><path d="M518.826667 588.8c-131.413333 0-238.933333-107.52-238.933334-238.933333s107.52-238.933333 238.933334-238.933334 238.933333 107.52 238.933333 238.933334-107.52 238.933333-238.933333 238.933333z m0-409.6c-93.866667 0-170.666667 76.8-170.666667 170.666667s76.8 170.666667 170.666667 170.666666 170.666667-76.8 170.666666-170.666666-76.8-170.666667-170.666666-170.666667z" fill="#3793DF" p-id="1452"></path><path d="M112.64 913.066667h-6.826667c-18.773333-3.413333-30.72-22.186667-25.6-40.96 10.24-42.666667 25.6-85.333333 47.786667-122.88 80.213333-138.24 225.28-221.866667 384-221.866667 160.426667 0 303.786667 83.626667 384 221.866667 18.773333 34.133333 32.426667 68.266667 44.373333 104.106666 5.12 18.773333-5.12 37.546667-22.186666 42.666667-18.773333 5.12-37.546667-5.12-42.666667-22.186667-10.24-32.426667-22.186667-61.44-37.546667-90.453333-68.266667-117.76-189.44-187.733333-325.973333-187.733333s-257.706667 69.973333-325.973333 187.733333c-18.773333 30.72-32.426667 66.56-40.96 102.4-1.706667 17.066667-17.066667 27.306667-32.426667 27.306667z" fill="#3793DF" p-id="1453"></path><path d="M911.36 537.6h-136.533333c-18.773333 0-34.133333-15.36-34.133334-34.133333s15.36-34.133333 34.133334-34.133334h136.533333c18.773333 0 34.133333 15.36 34.133333 34.133334s-15.36 34.133333-34.133333 34.133333zM911.36 435.2h-102.4c-18.773333 0-34.133333-15.36-34.133333-34.133333s15.36-34.133333 34.133333-34.133334h102.4c18.773333 0 34.133333 15.36 34.133333 34.133334s-15.36 34.133333-34.133333 34.133333zM911.36 640h-68.266667c-18.773333 0-34.133333-15.36-34.133333-34.133333s15.36-34.133333 34.133333-34.133334h68.266667c18.773333 0 34.133333 15.36 34.133333 34.133334s-15.36 34.133333-34.133333 34.133333z" fill="#EB4AF4" p-id="1454"></path></svg>