<?xml version="1.0" encoding="utf-8"?>
<!-- Svg Vector Icons : http://www.sfont.cn -->
<!DOCTYPE svg PUBLIC "-//W3C//DTD SVG 1.1//EN" "http://www.w3.org/Graphics/SVG/1.1/DTD/svg11.dtd">
<svg version="1.1" xmlns="http://www.w3.org/2000/svg" xmlns:xlink="http://www.w3.org/1999/xlink" x="0px" y="0px" viewBox="0 0 1000 1000" enable-background="new 0 0 1000 1000" xml:space="preserve">
<metadata> Svg Vector Icons : http://www.sfont.cn </metadata>
<g><g transform="translate(0.000000,511.000000) scale(0.100000,-0.100000)"><path d="M3344.9,4333.9v-676.1h-496.5c-274.5,0-492.4-8.1-488.4-18.2c4-12.1,1439-1378.4,1735.6-1652.9l52.5-48.4l902.1,853.7l900.1,855.7l-504.6,6l-506.6,4v676.1V5010H4142h-797.2V4333.9z"/><path d="M8975.5,3207.8c-72.6-26.2-472.3-169.5-888-316.9c-550.9-197.8-772.9-286.6-821.4-329c-54.5-48.4-82.7-115-201.8-470.2L6927.1,1680H4004.8c-2881.9,0-2922.3,0-3001,40.4c-199.8,100.9-429.9-8.1-458.1-218c-6-58.5,96.9-425.8,458.1-1618.6c258.3-849.6,486.4-1568.1,508.6-1600.4c86.8-121.1-34.3-115,2205.8-115c1624.6,0,2048.4-6,2048.4-24.2c0-14.1-52.5-197.8-117-409.7l-117.1-383.5L3587-2659c-1901.1-10.1-1949.5-10.1-2016.1-50.4c-107-62.6-153.4-139.3-153.4-252.3c0-105,38.3-175.6,139.3-250.3c54.5-42.4,70.6-42.4,2147.3-48.4c1386.5-4,2117.1,2,2163.5,14.1c149.3,44.4,167.5,78.7,405.7,861.7c282.5,924.3,1447,4470.2,1477.3,4500.5c14.1,12.1,365.3,143.3,781,290.6c415.7,147.3,781,284.6,809.3,304.7c165.5,117.1,147.3,381.4-34.3,486.4C9203.6,3256.2,9118.8,3258.2,8975.5,3207.8z M6697,969.6l-76.7-228l-2605.5-6.1l-2605.4-4l-62.6,205.9c-34.3,115-66.6,220-70.6,234.1c-8.1,18.2,551,24.2,2744.7,24.2h2752.8L6697,969.6z M6444.8,210.8c-8.1-20.2-42.4-127.1-78.7-236.1l-68.6-201.8H3998.7H1702.1l-64.6,201.8c-36.3,111-66.6,218-66.6,238.1c-2,32.3,127.1,34.3,2442,34.3C6356,247.1,6454.8,245.1,6444.8,210.8z M6129.9-735.7c0-10.1-36.3-127.1-82.8-264.4l-82.7-246.2l-1979.8,4l-1979.8,6.1l-76.7,252.3c-42.4,139.3-76.7,254.3-76.7,258.3c0,2,962.7,4,2139.3,4C5167.3-721.6,6129.9-727.6,6129.9-735.7z"/><path d="M1700.1-3492.5c-226-76.7-403.6-236.1-464.2-419.8c-131.2-395.6,113-787.1,540.9-867.8c302.7-54.5,639.8,121.1,766.9,401.6c64.6,141.3,60.5,361.3-10.1,512.6c-64.6,137.2-185.7,260.3-329,331C2073.4-3472.3,1827.2-3450.2,1700.1-3492.5z"/><path d="M5514.4-3492.5c-207.9-70.6-353.2-191.7-437.9-367.3c-46.4-100.9-56.5-147.3-56.5-274.5c0-131.2,10.1-171.6,62.6-276.5c254.3-508.6,1011.1-500.5,1263.4,14.1c46.4,92.8,56.5,139.2,56.5,264.4c0,262.4-137.2,476.3-379.4,593.4C5887.8-3472.3,5643.5-3450.2,5514.4-3492.5z"/></g></g>
</svg>