<?xml version="1.0" encoding="utf-8"?>
<!-- Svg Vector Icons : http://www.sfont.cn -->
<!DOCTYPE svg PUBLIC "-//W3C//DTD SVG 1.1//EN" "http://www.w3.org/Graphics/SVG/1.1/DTD/svg11.dtd">
<svg version="1.1" xmlns="http://www.w3.org/2000/svg" xmlns:xlink="http://www.w3.org/1999/xlink" x="0px" y="0px" viewBox="0 0 1000 1000" enable-background="new 0 0 1000 1000" xml:space="preserve">
<metadata> Svg Vector Icons : http://www.sfont.cn </metadata>
<g><path d="M465.3,486.2c-14.7-1.5-29.8-2.3-45.3-2.3c-102.1,0-185.2-84.4-185.2-188.1c0-103,83.1-186.8,185.2-186.8c102.1,0,185.2,82.7,185.2,184.4c0,32.9-8.8,66.2-24.8,93.8c-6.8,11.7-2.8,26.7,8.9,33.5c11.7,6.8,26.7,2.8,33.5-8.9c20.5-35.5,31.3-76.4,31.3-118.4c0-128.7-105.1-233.4-234.2-233.4c-129.2,0-234.2,105.8-234.2,235.9c0,130.8,105.1,237.2,234.9,237.2c13.2,0,26.6,0.7,39.6,2c0.8,0.1,1.7,0.1,2.5,0.1c12.4,0,23.1-9.4,24.4-22C488.6,499.6,478.8,487.6,465.3,486.2z"/><path d="M834.6,827.5c-13.4,2.2-22.5,14.7-20.3,28.1c3.2,19.7,4.8,39.8,4.8,60c0,13.5,11,24.5,24.5,24.5c13.5,0,24.5-11,24.5-24.5c0-22.7-1.8-45.5-5.4-67.7C860.6,834.4,848,825.3,834.6,827.5z"/><path d="M198.5,560.2C80.5,638.9,10,770.6,10,912.3c0,13.5,11,24.5,24.5,24.5s24.5-11,24.5-24.5C59,787,121.4,670.6,225.7,601c11.3-7.5,14.3-22.7,6.8-34C225,555.7,209.8,552.7,198.5,560.2z"/><path d="M965.5,569.7H855.1c-13.5,0-24.5,11-24.5,24.5c0,13.5,11,24.5,24.5,24.5h110.3c13.5,0,24.5-11,24.5-24.5C990,580.7,979,569.7,965.5,569.7z"/><path d="M757.1,361.3c-13.5,0-24.5,11-24.5,24.5v183.9H573.2c-13.5,0-24.5,11-24.5,24.5c0,13.5,11,24.5,24.5,24.5h159.4v159.4c0,13.5,11,24.5,24.5,24.5s24.5-11,24.5-24.5V385.8C781.6,372.3,770.6,361.3,757.1,361.3z"/></g>
</svg>