<?xml version="1.0" encoding="utf-8"?>
<!-- Generator: Adobe Illustrator 22.1.0, SVG Export Plug-In . SVG Version: 6.00 Build 0)  -->
<svg version="1.1" id="图层_1" xmlns="http://www.w3.org/2000/svg" xmlns:xlink="http://www.w3.org/1999/xlink" x="0px" y="0px"
	 viewBox="0 0 206 206" style="enable-background:new 0 0 206 206;" xml:space="preserve">
<style type="text/css">
	.st0{fill:#E99723;}
	.st1{fill:#FFFFFF;}
	.st2{fill:none;}
</style>
<circle class="st0" cx="102.9" cy="103.8" r="100"/>
<path class="st1" d="M79.9,80.8"/>
<g>
	<path class="st1" d="M158.8,107.6h-42.2c-0.8,0-1.4,0.6-1.4,1.4v36.9c0,0.8,0.6,1.4,1.4,1.4h42.2c0.8,0,1.4-0.6,1.4-1.4V109
		C160.3,108.3,159.6,107.6,158.8,107.6z M153.3,139.8c0,0.8-0.6,1.4-1.4,1.4h-28.5c-0.8,0-1.4-0.6-1.4-1.4v-24.7
		c0-0.8,0.6-1.4,1.4-1.4h28.5c0.8,0,1.4,0.6,1.4,1.4L153.3,139.8L153.3,139.8z"/>
	<path class="st1" d="M128.8,112v-6.5c0-4.7,4-8.5,8.8-8.5c4.9,0,8.8,3.8,8.8,8.5v6.5h6.3v-7.3c0-7.9-6.7-14.4-15-14.4
		c-8.3,0-15,6.4-15,14.4v7.3H128.8z"/>
	<ellipse class="st1" cx="137.2" cy="127.7" rx="6.3" ry="6.3"/>
</g>
<path class="st1" d="M95.9,48.1c-15.9,0-28.7,12.9-28.7,28.7c0,11,6.1,20.5,15.2,25.3h0.5c-16.5,5.2-28.8,20-30.3,37.8h-0.3v7H106
	v-7H59.5c1.9-18.5,17.5-32.8,36.5-32.8c4.2,0,8.3,0.7,12.1,2.1c0.8-2.2,1.7-4.4,2.8-6.4c-0.6-0.2-1.1-0.4-1.7-0.6h0.3
	c0.9-0.5,1.8-1,2.6-1.6c2.8-4.8,6.3-9.1,10.4-12.8c1.4-3.4,2.1-7,2.1-10.9C124.6,60.9,111.8,48.1,95.9,48.1z M95.9,98.6
	c-12,0-21.8-9.7-21.8-21.8c0-12,9.7-21.8,21.8-21.8c12,0,21.8,9.7,21.8,21.8C117.7,88.8,107.9,98.6,95.9,98.6z"/>
<rect id="_x3C_切片_x3E__9_" class="st2" width="206" height="206"/>
</svg>
