<?xml version="1.0" encoding="utf-8"?>
<!-- Generator: Adobe Illustrator 22.1.0, SVG Export Plug-In . SVG Version: 6.00 Build 0)  -->
<svg version="1.1" id="图层_1" xmlns="http://www.w3.org/2000/svg" xmlns:xlink="http://www.w3.org/1999/xlink" x="0px" y="0px"
	 viewBox="0 0 206 206" style="enable-background:new 0 0 206 206;" xml:space="preserve">
<style type="text/css">
	.st0{fill:#F36D54;}
	.st1{fill:#FFFFFF;}
</style>
<g>
	<path class="st0" d="M103,3C47.8,3,3,47.8,3,103c0,55.2,44.8,100,100,100s100-44.8,100-100C203,47.8,158.2,3,103,3L103,3z"/>
	<path class="st1" d="M102.9,47c-7.4,0-13.4,6-13.4,13.4c0,7.4,6,13.4,13.4,13.4c7.4,0,13.4-6,13.4-13.4C116.3,53,110.3,47,102.9,47
		z M102.9,68.4c-4.4,0-8-3.6-8-8c0-4.4,3.6-8,8-8c4.4,0,8,3.6,8,8C111,64.8,107.4,68.4,102.9,68.4z"/>
	<path class="st1" d="M69,89.8c-1.5,0-2.7-1.2-2.7-2.7c0-0.8,0.3-1.5,0.9-2l24.7-21.5c1.1-1,2.8-0.9,3.8,0.3c1,1.1,0.9,2.8-0.3,3.8
		l0,0L70.7,89.1C70.2,89.6,69.6,89.8,69,89.8z"/>
	<path class="st1" d="M136.9,89.8c-0.6,0-1.2-0.2-1.8-0.7l-24.7-21.5c-1.1-1-1.2-2.7-0.3-3.8c1-1.1,2.7-1.2,3.8-0.3l24.7,21.5
		c1.1,1,1.2,2.7,0.3,3.8C138.4,89.5,137.7,89.8,136.9,89.8z"/>
	<path class="st1" d="M131,114.2h-27.3c-1.9,0-3.4-1.4-3.4-3.1s1.5-3.2,3.4-3.2l0,0H131c1.9,0,3.4,1.4,3.4,3.2
		S132.9,114.2,131,114.2z"/>
	<path class="st1" d="M131,127.5h-27.3c-1.9,0-3.4-1.4-3.4-3.1c0-1.7,1.5-3.2,3.4-3.2l0,0H131c1.9,0,3.4,1.4,3.4,3.2
		C134.5,126.1,132.9,127.5,131,127.5z"/>
	<path class="st1" d="M83,113.8H71.7c-1.6,0-2.9-1.3-2.9-2.9v0c0-1.6,1.3-2.9,2.9-2.9H83c1.6,0,2.9,1.3,2.9,2.9v0
		C86,112.4,84.6,113.8,83,113.8z"/>
	<path class="st1" d="M83,127.4H71.7c-1.6,0-2.9-1.3-2.9-2.9v0c0-1.6,1.3-2.9,2.9-2.9H83c1.6,0,2.9,1.3,2.9,2.9v0
		C86,126.1,84.6,127.4,83,127.4z"/>
	<path class="st1" d="M134.4,151.2H70.2c-8.8,0-16-7.2-16-16v-34.7c0-8.8,7.1-16,15.9-16c0,0,0.1,0,0.1,0H137c0.3,0,0.5,0,0.7,0
		c8.5,0.4,15.3,7.4,15.3,16V113c0,1.5-1.2,2.7-2.7,2.7s-2.7-1.2-2.7-2.7v-12.6c0-5.7-4.5-10.5-10.2-10.7c-0.2,0-0.3,0-0.5,0H70.2
		c-0.1,0-0.3,0-0.4,0c-5.8,0.2-10.3,4.9-10.3,10.7v34.7c0,5.9,4.8,10.7,10.7,10.7h64.1c1.5,0,2.7,1.2,2.7,2.7
		S135.8,151.2,134.4,151.2L134.4,151.2z"/>
	<path class="st1" d="M72.9,151.2c-1.5,0-2.7-1.2-2.7-2.7s1.2-2.7,2.7-2.7H137c5.9,0,10.7-4.8,10.7-10.7v-34.7
		c0-5.7-4.5-10.4-10.3-10.7c-0.1,0-0.2,0-0.4,0H70.2c-0.1,0-0.3,0-0.5,0c-5.7,0.2-10.3,4.9-10.2,10.7V113c0,1.5-1.2,2.7-2.7,2.7
		c-1.5,0-2.7-1.2-2.7-2.7v-12.6c0-8.6,6.7-15.7,15.3-16c0.3,0,0.5,0,0.7,0H137c0,0,0.1,0,0.1,0c8.8,0,16,7.2,15.9,16v34.7
		c0,8.8-7.2,16-16,16H72.9L72.9,151.2z"/>
</g>
</svg>
