<?xml version="1.0" encoding="utf-8"?>
<!-- Generator: Adobe Illustrator 22.1.0, SVG Export Plug-In . SVG Version: 6.00 Build 0)  -->
<svg version="1.1" id="图层_1" xmlns="http://www.w3.org/2000/svg" xmlns:xlink="http://www.w3.org/1999/xlink" x="0px" y="0px"
	 viewBox="0 0 206 206" style="enable-background:new 0 0 206 206;" xml:space="preserve">
<style type="text/css">
	.st0{fill:#F36D54;}
	.st1{fill:#FFFFFF;}
</style>
<g>
	<path class="st0" d="M103,3C47.8,3,3,47.8,3,103c0,55.2,44.8,100,100,100s100-44.8,100-100C203,47.8,158.2,3,103,3L103,3z"/>
	<path class="st1" d="M133.7,151.2H69.5c-8.8,0-16-7.2-16-16v-34.7c0-8.8,7.1-16,15.9-16c0,0,0.1,0,0.1,0h66.8c0.3,0,0.5,0,0.7,0
		c8.5,0.4,15.3,7.4,15.3,16V113c0,1.5-1.2,2.7-2.7,2.7s-2.7-1.2-2.7-2.7v-12.6c0-5.7-4.5-10.5-10.2-10.7c-0.2,0-0.3,0-0.5,0H69.5
		c-0.1,0-0.3,0-0.4,0c-5.8,0.2-10.3,4.9-10.3,10.7v34.7c0,5.9,4.8,10.7,10.7,10.7h64.1c1.5,0,2.7,1.2,2.7,2.7
		S135.1,151.2,133.7,151.2L133.7,151.2z"/>
	<path class="st1" d="M102.9,47c-7.4,0-13.4,6-13.4,13.4c0,7.4,6,13.4,13.4,13.4c7.4,0,13.4-6,13.4-13.4C116.3,53,110.3,47,102.9,47
		z M102.9,68.4c-4.4,0-8-3.6-8-8c0-4.4,3.6-8,8-8c4.4,0,8,3.6,8,8C111,64.8,107.4,68.4,102.9,68.4z"/>
	<path class="st1" d="M69,89.8c-1.5,0-2.7-1.2-2.7-2.7c0-0.8,0.3-1.5,0.9-2l24.7-21.5c1.1-1,2.8-0.9,3.8,0.3c1,1.1,0.9,2.8-0.3,3.8
		l0,0L70.7,89.1C70.2,89.6,69.6,89.8,69,89.8z"/>
	<path class="st1" d="M136.9,89.8c-0.6,0-1.2-0.2-1.8-0.7l-24.7-21.5c-1.1-1-1.2-2.7-0.3-3.8c1-1.1,2.7-1.2,3.8-0.3l24.7,21.5
		c1.1,1,1.2,2.7,0.3,3.8C138.4,89.5,137.7,89.8,136.9,89.8z"/>
	<path class="st1" d="M96.3,113.8H74.9c-1.5,0-2.7-1.2-2.7-2.7s1.2-2.7,2.7-2.7l0,0h21.4c1.5,0,2.7,1.2,2.7,2.7
		S97.7,113.8,96.3,113.8z"/>
	<path class="st1" d="M96.3,127.2H74.9c-1.5,0-2.7-1.2-2.7-2.7c0-1.5,1.2-2.7,2.7-2.7l0,0h21.4c1.5,0,2.7,1.2,2.7,2.7
		C98.9,126,97.7,127.2,96.3,127.2z"/>
	<path class="st1" d="M133.7,103.1c-13.3,0-24,10.8-24,24s10.8,24,24,24s24-10.8,24-24S146.9,103.1,133.7,103.1z M133.7,145.9
		c-10.3,0-18.7-8.4-18.7-18.7s8.4-18.7,18.7-18.7s18.7,8.4,18.7,18.7S144,145.9,133.7,145.9z"/>
	<path class="st1" d="M157.7,153.9c-0.7,0-1.4-0.3-1.9-0.8l-8.9-8.9c-1.1-1-1.1-2.7-0.1-3.8c1-1.1,2.7-1.1,3.8-0.1c0,0,0,0,0.1,0.1
		l8.9,8.9c1,1,1,2.7,0,3.8C159.1,153.6,158.4,153.9,157.7,153.9z"/>
	<path class="st1" d="M129.7,136.6c0.9-0.9,0.9-2.2,0.1-3.2c-1.8-2.1-2.8-4.8-2.3-7.5c0.3-1.8,1.2-3.5,2.4-4.8
		c0.9-0.9,0.9-2.3,0-3.2l-0.1-0.1c-1-1-2.6-1-3.5-0.1c-2,1.9-3.5,4.4-3.9,7.3c-0.7,4.2,0.8,8.3,3.8,11.3
		C127.1,137.4,128.7,137.5,129.7,136.6L129.7,136.6z"/>
</g>
</svg>
