<?xml version="1.0" encoding="utf-8"?>
<!-- Generator: Adobe Illustrator 22.1.0, SVG Export Plug-In . SVG Version: 6.00 Build 0)  -->
<svg version="1.1" id="图层_1" xmlns="http://www.w3.org/2000/svg" xmlns:xlink="http://www.w3.org/1999/xlink" x="0px" y="0px"
	 viewBox="0 0 74 74" style="enable-background:new 0 0 74 74;" xml:space="preserve">
<style type="text/css">
	.st0{fill:#EA661C;}
	.st1{fill:#FFFFFF;}
</style>
<path class="st0" d="M51.2,71H22.8C11.9,71,3,62.1,3,51.2V22.8C3,11.9,11.9,3,22.8,3h28.3C62.1,3,71,11.9,71,22.8v28.3
	C71,62.1,62.1,71,51.2,71z"/>
<g>
	<path class="st1" d="M28.7,49.7c0,0-0.1,0-0.1,0c0,0-0.1,0-0.1,0c-2.3,0.1-4.3,1.7-4.8,3.9c0.9,0.3,1.9,0.4,3,0.4h7
		C33.2,51.6,31.2,49.7,28.7,49.7z"/>
	<path class="st1" d="M28.6,46.4C28.6,46.4,28.6,46.4,28.6,46.4c1.5,0,2.6-1.2,2.6-2.6c0-1.5-1.2-2.7-2.6-2.7
		c-1.5,0-2.7,1.2-2.7,2.7C25.9,45.2,27.1,46.3,28.6,46.4C28.5,46.4,28.5,46.4,28.6,46.4z"/>
	<path class="st1" d="M44.4,49.7c0,0-0.1,0-0.1,0c0,0-0.1,0-0.1,0c-2.5,0.1-4.5,1.9-4.9,4.3h6.9c1.1,0,2.1-0.2,3-0.4
		C48.7,51.4,46.8,49.7,44.4,49.7z"/>
	<path class="st1" d="M46.2,32.1h-2c-0.3-2.8-2.1-5.1-4.5-6.2c1.2-0.9,1.9-2.4,1.9-4c0-2.8-2.3-5.1-5.1-5.1c-2.8,0-5.1,2.3-5.1,5.1
		c0,1.6,0.8,3.1,1.9,4c-2.4,1.1-4.2,3.4-4.5,6.2h-2.3c-6,0-11,4.9-11,11c0,4.1,2.2,7.6,5.6,9.5c0.8-2.1,2.4-3.8,4.5-4.7
		c-1.3-0.9-2.2-2.4-2.2-4.1c0-2.8,2.3-5.1,5.1-5.1c2.8,0,5.1,2.3,5.1,5.1c0,1.7-0.9,3.2-2.2,4.1c2.5,1,4.4,3.3,4.9,6.1h0.2
		c0.4-2.8,2.3-5.1,4.9-6.1c-1.3-0.9-2.2-2.4-2.2-4.1c0-2.8,2.3-5.1,5.1-5.1c2.8,0,5.1,2.3,5.1,5.1c0,1.7-0.9,3.2-2.2,4.1
		c2.1,0.8,3.7,2.5,4.5,4.6c3.3-1.9,5.5-5.4,5.5-9.5C57.2,37,52.2,32.1,46.2,32.1z M33.2,21.9c0-1.8,1.5-3.3,3.3-3.3
		c1.8,0,3.3,1.5,3.3,3.3c0,1.8-1.4,3.3-3.2,3.3c0,0-0.1,0-0.1,0c0,0-0.1,0-0.1,0C34.7,25.2,33.2,23.7,33.2,21.9z M30.7,32.1
		c0.4-2.8,2.8-5,5.7-5.1c0.1,0,0.1,0,0.2,0c0.1,0,0.1,0,0.2,0c2.9,0.1,5.3,2.3,5.7,5.1H30.7z"/>
	<path class="st1" d="M44.3,46.4C44.3,46.4,44.4,46.4,44.3,46.4c1.5,0,2.6-1.2,2.6-2.6c0-1.5-1.2-2.7-2.6-2.7
		c-1.5,0-2.7,1.2-2.7,2.7C41.7,45.2,42.8,46.3,44.3,46.4C44.3,46.4,44.3,46.4,44.3,46.4z"/>
</g>
<path class="st1" d="M46.2,53.3"/>
</svg>
