<?xml version="1.0" encoding="utf-8"?>
<!-- Generator: Adobe Illustrator 22.1.0, SVG Export Plug-In . SVG Version: 6.00 Build 0)  -->
<svg version="1.1" id="图层_1" xmlns="http://www.w3.org/2000/svg" xmlns:xlink="http://www.w3.org/1999/xlink" x="0px" y="0px"
	 viewBox="0 0 74 74" style="enable-background:new 0 0 74 74;" xml:space="preserve">
<style type="text/css">
	.st0{fill:#EDA320;}
	.st1{fill:#FFFFFF;}
	.st2{fill:none;}
</style>
<g>
	<path class="st0" d="M51.2,71H22.8C11.9,71,3,62.1,3,51.2V22.8C3,11.9,11.9,3,22.8,3h28.3C62.1,3,71,11.9,71,22.8v28.3
		C71,62.1,62.1,71,51.2,71z"/>
	<path d="M50.9,59.5"/>
	<path class="st1" d="M56.1,30.5c-0.8,0-1.5,0.3-2.1,0.8c-1.2,0.8-2.7,1-4,0.5V21.7c0-0.3-0.3-0.6-0.6-0.6H39.3
		c-0.5,1.4-0.3,3,0.6,4.2l0,0c0,0.1,0.1,0.1,0.1,0.2c1,1.3,0.8,3.2-0.5,4.2c-1.2,1.1-3.1,1-4.3-0.2c-1.2-1.2-1.2-3-0.1-4.3
		c0.8-1.2,1-2.8,0.5-4.1H25.6c-0.3,0-0.6,0.3-0.6,0.6v10.1c-1.4,0.5-2.9,0.3-4.1-0.5c-1.3-1.1-3.2-1.1-4.4,0.1
		c-1.2,1.2-1.2,3.2,0,4.4c1.2,1.2,3.1,1.2,4.4,0c1.2-0.8,2.7-0.9,4-0.4v10.1c0,0.3,0.3,0.6,0.6,0.6h8.8v6.2h-3.1l6.3,6.2l6.3-6.2
		h-3.1v-6.2h8.8c0.3,0,0.6-0.3,0.6-0.6V35.4c1.3-0.5,2.8-0.3,4,0.5c1,1,2.6,1.1,3.8,0.4c1.2-0.7,1.8-2.2,1.4-3.5
		C58.7,31.4,57.5,30.5,56.1,30.5L56.1,30.5z M56.1,30.5"/>
	<rect x="15.7" y="21.1" class="st2" width="43.6" height="37.5"/>
</g>
</svg>
