<?xml version="1.0" encoding="utf-8"?>
<!-- Generator: Adobe Illustrator 22.1.0, SVG Export Plug-In . SVG Version: 6.00 Build 0)  -->
<svg version="1.1" id="图层_1" xmlns="http://www.w3.org/2000/svg" xmlns:xlink="http://www.w3.org/1999/xlink" x="0px" y="0px"
	 viewBox="0 0 74 74" style="enable-background:new 0 0 74 74;" xml:space="preserve">
<style type="text/css">
	.st0{fill:#3DA8F5;}
	.st1{fill:#FFFFFF;}
	.st2{fill:#E57130;}
	.st3{fill:#D16630;}
	.st4{fill:none;}
</style>
<path class="st0" d="M45.3,19.8"/>
<path class="st1" d="M52.9,26.5c-0.1,0-11.1-5-15.2-7.7c-0.4-0.3-1-0.3-1.4,0c-4.1,2.6-15.1,7.6-15.2,7.7c-0.5,0.2-0.8,0.7-0.8,1.2
	v6.5c0,13.4,6,19.4,16.1,23.8c0.3,0.1,0.7,0.1,1,0c10.1-4.4,16.1-10.3,16.1-23.8v-6.5C53.6,27.2,53.3,26.7,52.9,26.5z M44.3,38.6
	c-0.3,0.3-0.6,0.4-1,0.4h-5v4.3c0,1.9-1.5,3.4-3.4,3.4s-3.4-1.5-3.4-3.4c0-0.5,0.2-1,0.7-1.2c0.4-0.3,1-0.3,1.4,0s0.7,0.7,0.7,1.2
	c0,0.3,0.3,0.6,0.6,0.6s0.6-0.3,0.6-0.6V39h-5l0,0c-0.4,0-0.7-0.1-1-0.4c-0.3-0.3-0.4-0.6-0.4-1c0-4.3,3.5-7.8,7.8-7.8
	s7.8,3.5,7.8,7.8C44.7,38,44.6,38.4,44.3,38.6z"/>
<g>
	<path class="st2" d="M51.2,71H22.8C11.9,71,3,62.1,3,51.2V22.8C3,11.9,11.9,3,22.8,3h28.3C62.1,3,71,11.9,71,22.8v28.3
		C71,62.1,62.1,71,51.2,71z"/>
	<path class="st3" d="M54.5,56.2c-2-1.2-16.1-4.5-20.2-4.5c-4.1,0-14.2,3.5-16.1,4.5c-0.9-2.4-6.3-21.7-8.1-23.9
		c2.5-1.7,9.7-5.6,12.5-8.4c2.8-2.8,6-8,13.5-8c7.6,0,8.6,3,13.2,6.6c4.6,3.6,10.8,8.1,13.2,9.9C61.4,34.6,55,55.1,54.5,56.2
		L54.5,56.2z"/>
	<path d="M40.7,30.6"/>
	<rect x="12.3" y="16.7" class="st4" width="50.2" height="38.7"/>
	<path class="st1" d="M23.5,34.4c-1.1-1.1-2.5-1.7-4.3-1.7c-1,0-1.9,0.2-2.6,0.5c-0.6,0.3-1.1,0.6-1.6,1.1c-0.5,0.5-0.9,1.1-1.1,1.7
		c-0.4,0.8-0.6,1.9-0.6,3.1c0,2,0.5,3.5,1.6,4.6c1.1,1.1,2.5,1.7,4.4,1.7c1.8,0,3.2-0.6,4.3-1.7c1.1-1.1,1.6-2.7,1.6-4.7
		C25.1,37,24.6,35.5,23.5,34.4z M21.6,42.2c-0.6,0.7-1.4,1.1-2.4,1.1c-1,0-1.8-0.4-2.4-1.1c-0.6-0.7-1-1.8-1-3.2
		c0-1.4,0.3-2.5,0.9-3.2c0.6-0.7,1.4-1.1,2.5-1.1c1,0,1.8,0.3,2.5,1c0.6,0.7,0.9,1.7,0.9,3.1C22.5,40.4,22.2,41.5,21.6,42.2z"/>
	<polygon class="st1" points="27,45.2 27,32.9 30.7,32.9 32.9,41.3 35.2,32.9 38.9,32.9 38.9,45.2 36.6,45.2 36.6,35.5 34.1,45.2 
		31.7,45.2 29.3,35.5 29.3,45.2 27,45.2 	"/>
	<polygon class="st1" points="48.7,34.8 48.7,32.6 41.6,32.6 41.6,34.8 43.9,34.8 43.9,43.1 41.6,43.1 41.6,45.3 48.7,45.3 
		48.7,43.1 46.4,43.1 46.4,34.8 	"/>
	<path class="st1" d="M55.9,32.5c-0.9,0-1.8,0.3-2.5,0.7v-0.3H51v12.3h2.4v-4.7c0.7,0.4,1.6,0.7,2.5,0.7c2.6,0,4.8-1.9,4.8-4.4
		S58.5,32.5,55.9,32.5z M55.8,38.9c-1,0-1.9-0.4-2.4-0.9v-2.3c0.5-0.6,1.4-0.9,2.4-0.9c1.6,0,2.9,0.9,2.9,2.1S57.3,38.9,55.8,38.9z"
		/>
</g>
</svg>
