<?xml version="1.0" encoding="utf-8"?>
<!-- Generator: Adobe Illustrator 22.1.0, SVG Export Plug-In . SVG Version: 6.00 Build 0)  -->
<svg version="1.1" id="图层_1" xmlns="http://www.w3.org/2000/svg" xmlns:xlink="http://www.w3.org/1999/xlink" x="0px" y="0px"
	 viewBox="0 0 74 74" style="enable-background:new 0 0 74 74;" xml:space="preserve">
<style type="text/css">
	.st0{fill:#25C1B2;}
	.st1{fill:#FFFFFF;}
</style>
<g>
	<path class="st0" d="M51.2,71H22.8C11.9,71,3,62.1,3,51.2V22.8C3,11.9,11.9,3,22.8,3h28.3C62.1,3,71,11.9,71,22.8v28.3
		C71,62.1,62.1,71,51.2,71z"/>
	<path class="st1" d="M37.2,19.2c-10.1,0-18.3,8.2-18.3,18.3S27,55.8,37.2,55.8s18.3-8.2,18.3-18.3S47.3,19.2,37.2,19.2z M42,42.5
		c-0.3,0.3-0.7,0.5-1.2,0.5c-0.5,0-0.9-0.2-1.2-0.5l-6.8-7.7l-7,7.8c-0.3,0.3-0.8,0.6-1.2,0.5c-0.5,0-0.9-0.2-1.2-0.5
		c-0.6-0.7-0.6-1.7,0-2.4l8.3-9.1c0.3-0.3,0.7-0.5,1.2-0.5s0.9,0.2,1.2,0.5l6.8,7.7l7.3-8.4c0.3-0.3,0.7-0.5,1.2-0.5
		c0.5,0,0.9,0.2,1.2,0.5c0.6,0.7,0.6,1.7,0,2.4L42,42.5z"/>
</g>
</svg>
