<?xml version="1.0" encoding="utf-8"?>
<!-- Generator: Adobe Illustrator 22.1.0, SVG Export Plug-In . SVG Version: 6.00 Build 0)  -->
<svg version="1.1" id="图层_1" xmlns="http://www.w3.org/2000/svg" xmlns:xlink="http://www.w3.org/1999/xlink" x="0px" y="0px"
	 viewBox="0 0 74 74" style="enable-background:new 0 0 74 74;" xml:space="preserve">
<style type="text/css">
	.st0{fill:#FFC200;}
	.st1{fill:#FFFFFF;}
	.st2{fill:none;}
	.st3{fill:#5CA8FF;}
</style>
<path class="st0" d="M51.2,71H22.8C11.9,71,3,62.1,3,51.2V22.8C3,11.9,11.9,3,22.8,3h28.3C62.1,3,71,11.9,71,22.8v28.3
	C71,62.1,62.1,71,51.2,71z"/>
<path d="M37,37"/>
<path class="st1" d="M37,37"/>
<rect x="18.8" y="18.2" class="st2" width="36.4" height="37.6"/>
<path class="st1" d="M37.1,17.7c-10.7-0.1-19.4,8.6-19.4,19.2c-0.1,10.7,8.5,19.4,19.2,19.4c10.7,0.1,19.4-8.6,19.4-19.2
	C56.4,26.5,47.8,17.7,37.1,17.7z M31,23.7c0-0.6,0.5-1,1-1l10.1,0.1c0.3,0,0.5,0.1,0.7,0.3c0.2,0.2,0.3,0.4,0.3,0.7L43.1,37l-1,0
	l-0.8,0L41,36.5L39.5,32c-0.4-1-1.3-1.8-2.5-1.8c-1.1,0-2.1,0.7-2.5,1.7l-1.8,4.9L32,37l-1,0L31,23.7z M46.8,40.2l-5.4,4l1.9,6.4
	c0.1,0.2,0,0.5-0.2,0.7c-0.1,0.1-0.2,0.1-0.4,0.1c-0.1,0-0.2,0-0.3-0.1l-5.5-3.8l-5.5,3.8c-0.1,0-0.1,0.1-0.2,0.1c0,0,0,0-0.1,0
	c0,0-0.1,0-0.1,0c0,0-0.1,0-0.1,0c0,0,0,0-0.1,0c-0.1,0-0.1,0-0.2-0.1c-0.2-0.2-0.3-0.4-0.2-0.7l2-6.3l-5.3-4
	C27,40,26.9,39.7,27,39.5c0.1-0.3,0.3-0.4,0.6-0.4l3.4,0l1,0l1,0l0.9,0h0.4l0.2-0.6l2-5.6c0.1-0.2,0.3-0.4,0.6-0.4
	c0.3,0,0.5,0.2,0.6,0.4l2,5.7l0.2,0.6l0.4,0l0.9,0l1,0l1,0l3.4,0.1c0.3,0,0.5,0.2,0.6,0.4C47.1,39.8,47,40.1,46.8,40.2z"/>
<path class="st1" d="M37,37"/>
<path class="st3" d="M37,37"/>
</svg>
