<?xml version="1.0" encoding="utf-8"?>
<!-- Generator: Adobe Illustrator 22.1.0, SVG Export Plug-In . SVG Version: 6.00 Build 0)  -->
<svg version="1.1" id="图层_1" xmlns="http://www.w3.org/2000/svg" xmlns:xlink="http://www.w3.org/1999/xlink" x="0px" y="0px"
	 viewBox="0 0 74 74" style="enable-background:new 0 0 74 74;" xml:space="preserve">
<style type="text/css">
	.st0{fill:#07BCE5;}
	.st1{fill:#FFFFFF;}
	.st2{fill:none;}
</style>
<g>
	<path class="st0" d="M51.2,71H22.8C11.9,71,3,62.1,3,51.2V22.8C3,11.9,11.9,3,22.8,3h28.3C62.1,3,71,11.9,71,22.8v28.3
		C71,62.1,62.1,71,51.2,71z"/>
	<path d="M50.9,59.5"/>
	<path class="st1" d="M36,29.6"/>
	<path class="st1" d="M37.4,18c-8,0-14.4,6.4-14.4,14.4c0,8,6.4,14.4,14.4,14.4c8,0,14.4-6.4,14.4-14.4C51.8,24.5,45.4,18,37.4,18
		L37.4,18z M37.4,39.2c-3.8,0-6.8-3.1-6.8-6.8c0-3.8,3.1-6.8,6.8-6.8c3.8,0,6.8,3.1,6.8,6.8C44.2,36.2,41.2,39.2,37.4,39.2
		L37.4,39.2z M24.3,41.6l-4.9,4.9c-0.4,0.4-0.5,1-0.4,1.5c0.1,0.5,0.6,0.9,1.1,1.1l4.2,1.1l1.1,4.2c0.2,0.7,0.8,1.2,1.5,1.1
		c0.4,0,0.8-0.2,1.1-0.5l6.9-6.9C30.5,47.5,26.8,45.1,24.3,41.6L24.3,41.6z M54.9,46.5l-4.6-4.6c-2.5,3.4-6.4,5.8-10.8,6.3l6.8,6.8
		c0.3,0.3,0.7,0.5,1.1,0.5c0.1,0,0.3,0,0.4-0.1c0.5-0.1,0.9-0.6,1.1-1.1l1.1-4.2l4.2-1.1c0.5-0.1,1-0.6,1.1-1.1
		C55.4,47.5,55.3,46.9,54.9,46.5L54.9,46.5z M54.9,46.5"/>
	<rect x="19.6" y="18.6" class="st2" width="36.4" height="37.6"/>
</g>
</svg>
