<?xml version="1.0" encoding="utf-8"?>
<!-- Generator: Adobe Illustrator 22.1.0, SVG Export Plug-In . SVG Version: 6.00 Build 0)  -->
<svg version="1.1" id="图层_1" xmlns="http://www.w3.org/2000/svg" xmlns:xlink="http://www.w3.org/1999/xlink" x="0px" y="0px"
	 viewBox="0 0 74 74" style="enable-background:new 0 0 74 74;" xml:space="preserve">
<style type="text/css">
	.st0{fill:#07BCE5;}
	.st1{fill:#3DA8F5;}
	.st2{fill:none;}
	.st3{fill:#F9F9F9;}
	.st4{fill:#FFFFFF;}
</style>
<g>
	<path class="st0" d="M51.2,71H22.8C11.9,71,3,62.1,3,51.2V22.8C3,11.9,11.9,3,22.8,3h28.3C62.1,3,71,11.9,71,22.8v28.3
		C71,62.1,62.1,71,51.2,71z"/>
	<path class="st1" d="M45.3,19.8"/>
	<rect x="12.4" y="12.3" class="st2" width="47.5" height="42.3"/>
	<path class="st2" d="M53.2,29.8L53.2,29.8c-0.2-0.5-0.5-0.9-0.8-1.4C52.7,28.9,53,29.4,53.2,29.8z"/>
	<path class="st2" d="M57.1,34.6c0,0,0.1-0.1,0.1-0.1c0.1-0.2,0.2-0.3,0.3-0.5c0.1-0.1,0.1-0.2,0.2-0.3c0.1-0.1,0.1-0.3,0.2-0.4
		c0.1-0.1,0.1-0.2,0.1-0.3c0-0.1,0.1-0.2,0.1-0.3c0-0.1,0-0.3,0.1-0.4c0-0.1,0-0.2,0-0.2c0-0.2,0-0.4-0.1-0.6
		c-0.1-0.1-0.1-0.3-0.2-0.4c0-0.1-0.1-0.1-0.1-0.1c-0.1-0.1-0.1-0.1-0.2-0.2c-0.1-0.1-0.2-0.1-0.2-0.2c-0.1,0-0.1-0.1-0.2-0.1
		c-0.1-0.1-0.2-0.1-0.4-0.2c-0.1,0-0.1,0-0.2-0.1c-0.1-0.1-0.3-0.1-0.5-0.1c0,0-0.1,0-0.1,0c-0.2,0-0.4-0.1-0.6-0.1c0,0-0.1,0-0.1,0
		c-0.2,0-0.5-0.1-0.7-0.1c0,0,0,0,0,0c-0.3,0-0.5,0-0.8,0c0,0,0,0,0,0c-0.2,0-0.4,0-0.6,0c1.1,2.1,1.7,4.4,1.9,6.9c0,0,0,0,0,0
		C55.9,36,56.6,35.3,57.1,34.6z"/>
	<path class="st2" d="M19.9,42.9c-0.6,0.5-1,0.9-1.5,1.4c-0.1,0.1-0.2,0.2-0.3,0.3c-0.1,0.1-0.2,0.2-0.3,0.3
		c-0.1,0.1-0.2,0.2-0.2,0.3c-0.1,0.1-0.2,0.2-0.2,0.3c-0.1,0.1-0.1,0.2-0.2,0.3C17.1,46,17,46.2,17,46.4c0,0.1,0,0.1-0.1,0.2
		c0,0.1-0.1,0.2-0.1,0.4c0,0.1,0,0.1,0,0.2c0,0.1,0,0.2,0,0.3c0,0.1,0,0.1,0,0.2c0,0.2,0,0.3,0.1,0.5c0.1,0.2,0.2,0.4,0.3,0.5
		c0.1,0.1,0.1,0.1,0.2,0.2c0.1,0.1,0.2,0.2,0.3,0.2c0.1,0.1,0.2,0.1,0.4,0.2c0.1,0,0.2,0.1,0.3,0.1c0.2,0.1,0.3,0.1,0.5,0.2
		c0.1,0,0.2,0.1,0.3,0.1c0.2,0,0.5,0.1,0.7,0.1c0.1,0,0.2,0,0.2,0c0.3,0,0.6,0.1,0.9,0.1c0.1,0,0.1,0,0.2,0c0.3,0,0.7,0,1.1,0
		c0,0,0.1,0,0.1,0c0.4,0,0.8,0,1.2-0.1c0,0,0,0,0,0C21.8,47.7,20.6,45.4,19.9,42.9C19.9,42.9,19.9,42.9,19.9,42.9z"/>
	<path class="st3" d="M26.3,52.3c3,2.3,6.8,3.6,10.8,3.6c9.1,0,16.5-6.7,17.8-15.4c-3.6,2.8-8.4,5.6-14,7.8
		C35.7,50.5,30.7,51.8,26.3,52.3z"/>
	<circle class="st4" cx="53.3" cy="16.5" r="2.8"/>
	<path class="st3" d="M61.4,31.3c0-0.1,0-0.2-0.1-0.4c0-0.1,0-0.1,0-0.2c0-0.2-0.1-0.3-0.2-0.5c-0.1-0.2-0.2-0.4-0.3-0.6
		c0,0-0.1-0.1-0.1-0.1c-0.1-0.2-0.3-0.4-0.4-0.5c0,0,0,0-0.1-0.1c-0.2-0.1-0.3-0.3-0.5-0.4c0,0-0.1-0.1-0.1-0.1
		c-0.2-0.1-0.4-0.3-0.7-0.4c0,0-0.1,0-0.1-0.1c-0.2-0.1-0.5-0.2-0.7-0.3c0,0-0.1,0-0.1-0.1c-0.3-0.1-0.6-0.2-0.9-0.3
		c-0.1,0-0.1,0-0.2,0c-0.3-0.1-0.6-0.1-0.9-0.2c0,0-0.1,0-0.1,0c-0.3-0.1-0.7-0.1-1.1-0.1c0,0-0.1,0-0.1,0c0,0,0,0,0,0
		c-1-0.1-2-0.1-3.2,0c0,0,0,0,0,0c-3.3-4.3-8.4-7-14.2-7c-9.9,0-18,8.1-18,18c0,0.5,0,1.1,0.1,1.6c-0.9,0.8-1.8,1.6-2.5,2.3
		c0,0,0,0,0,0c0,0-0.1,0.1-0.1,0.1c-0.6,0.6-1.1,1.2-1.5,1.9c0,0.1-0.1,0.1-0.1,0.2c-0.2,0.3-0.4,0.6-0.6,0.9c0,0,0,0.1,0,0.1
		c-0.1,0.3-0.3,0.5-0.4,0.8c0,0,0,0.1-0.1,0.1c-0.1,0.3-0.2,0.6-0.3,0.8c0,0,0,0.1,0,0.1c-0.1,0.2-0.1,0.5-0.1,0.7c0,0,0,0.1,0,0.1
		c0,0.3,0,0.5,0,0.7c0,0.1,0,0.1,0,0.2c0,0.2,0.1,0.5,0.2,0.7c0.1,0.2,0.1,0.3,0.2,0.5c0,0,0.1,0.1,0.1,0.1c0.1,0.1,0.1,0.2,0.2,0.3
		c0,0.1,0.1,0.1,0.1,0.1c0.1,0.1,0.2,0.2,0.3,0.3c0,0,0.1,0.1,0.1,0.1c0.1,0.1,0.2,0.2,0.3,0.3c0,0,0.1,0.1,0.1,0.1
		c0.3,0.2,0.7,0.4,1.2,0.6c0,0,0.1,0,0.1,0.1c0.2,0.1,0.3,0.1,0.5,0.2c0.1,0,0.1,0,0.2,0.1c0.2,0.1,0.4,0.1,0.6,0.2
		c0.1,0,0.1,0,0.2,0c0.2,0.1,0.5,0.1,0.8,0.1c0,0,0,0,0,0c0.6,0.1,1.2,0.2,1.9,0.2c0,0,0,0,0.1,0c0.3,0,0.6,0,0.9,0c0,0,0.1,0,0.1,0
		c0.3,0,0.6,0,1,0c0,0,0,0,0.1,0c1.1,0,2.3-0.1,3.5-0.3c-1-0.8-2-1.7-2.8-2.7c0.3,0,0.6-0.1,0.8-0.1c0.2,0,0.4,0,0.6-0.1
		c-0.2,0-0.4,0-0.6,0.1c1.9-0.2,4-0.6,6.3-1.2c0,0,0,0,0,0c0,0,0,0,0,0c2.8-0.7,5.9-1.7,9-3c5.9-2.4,11-5.2,14.3-7.8
		c0.3-0.2,0.6-0.5,0.8-0.7c-0.3,0.2-0.5,0.4-0.8,0.7c0.4-0.3,0.7-0.6,1.1-0.9c0,0,0,0,0,0c-0.2-2.5-0.8-4.8-1.9-6.9h0
		c-0.2-0.5-0.5-0.9-0.8-1.4c0.3,0.4,0.5,0.9,0.8,1.4c0.2,0,0.4,0,0.6,0c0,0,0,0,0,0c0.3,0,0.6,0,0.8,0c0,0,0,0,0,0
		c0.2,0,0.5,0.1,0.7,0.1c0,0,0.1,0,0.1,0c0.2,0,0.4,0.1,0.6,0.1c0,0,0.1,0,0.1,0c0.2,0,0.3,0.1,0.5,0.1c0.1,0,0.1,0,0.2,0.1
		c0.1,0.1,0.2,0.1,0.4,0.2c0.1,0,0.1,0.1,0.2,0.1c0.1,0.1,0.2,0.1,0.2,0.2c0.1,0.1,0.1,0.1,0.2,0.2c0,0,0.1,0.1,0.1,0.1
		c0.1,0.1,0.2,0.3,0.2,0.4c0.1,0.2,0.1,0.4,0.1,0.6c0,0.1,0,0.1,0,0.2c0,0.1,0,0.3-0.1,0.4c0,0.1-0.1,0.2-0.1,0.3
		c0,0.1-0.1,0.2-0.1,0.3c-0.1,0.1-0.1,0.2-0.2,0.4c-0.1,0.1-0.1,0.2-0.2,0.3c-0.1,0.2-0.2,0.3-0.3,0.5c0,0-0.1,0.1-0.1,0.1
		c-0.5,0.7-1.2,1.4-2,2.1c0,0,0,0,0,0c0,0.4,0.1,0.9,0.1,1.3c0,0.9-0.1,1.8-0.2,2.6c1.2-0.9,2.3-1.9,3.2-2.8c0,0,0,0,0,0
		c0.2-0.2,0.4-0.4,0.6-0.7c0,0,0-0.1,0.1-0.1c0.2-0.2,0.3-0.4,0.5-0.6c0,0,0.1-0.1,0.1-0.1c0.1-0.2,0.3-0.4,0.4-0.6
		c0,0,0.1-0.1,0.1-0.1c0.1-0.2,0.3-0.4,0.4-0.6c0,0,0,0,0-0.1c0.3-0.4,0.5-0.9,0.7-1.3c0,0,0-0.1,0-0.1c0.1-0.2,0.1-0.3,0.2-0.5
		c0-0.1,0-0.1,0.1-0.2c0-0.1,0.1-0.3,0.1-0.4c0-0.1,0-0.1,0-0.2c0-0.1,0-0.2,0-0.4c0-0.1,0-0.1,0-0.2c0-0.1,0-0.2,0-0.3
		C61.4,31.4,61.4,31.4,61.4,31.3z M23.5,49.7c-0.4,0-0.8,0.1-1.2,0.1c0,0-0.1,0-0.1,0c-0.4,0-0.7,0-1.1,0c-0.1,0-0.1,0-0.2,0
		c-0.3,0-0.6,0-0.9-0.1c-0.1,0-0.2,0-0.2,0c-0.2,0-0.5-0.1-0.7-0.1c-0.1,0-0.2,0-0.3-0.1c-0.2,0-0.4-0.1-0.5-0.2
		c-0.1,0-0.2-0.1-0.3-0.1c-0.1-0.1-0.3-0.1-0.4-0.2c-0.1-0.1-0.2-0.2-0.3-0.2c-0.1-0.1-0.1-0.1-0.2-0.2c-0.1-0.2-0.2-0.3-0.3-0.5
		c-0.1-0.1-0.1-0.3-0.1-0.5c0-0.1,0-0.1,0-0.2c0-0.1,0-0.2,0-0.3c0-0.1,0-0.1,0-0.2c0-0.1,0.1-0.2,0.1-0.4c0-0.1,0-0.1,0.1-0.2
		c0.1-0.2,0.2-0.4,0.3-0.5c0.1-0.1,0.1-0.2,0.2-0.3c0.1-0.1,0.1-0.2,0.2-0.3c0.1-0.1,0.2-0.2,0.2-0.3c0.1-0.1,0.2-0.2,0.3-0.3
		c0.1-0.1,0.2-0.2,0.3-0.3c0.4-0.5,0.9-0.9,1.5-1.4c0,0,0,0,0,0C20.6,45.4,21.8,47.7,23.5,49.7C23.5,49.7,23.5,49.7,23.5,49.7z
		 M36.4,26.9c-4.8,0.6-8.6,4.3-9.7,8.9c-0.2,0.8-1.2,1.2-2,0.9c-0.9-0.3-1.2-1.3-1-2.3c1.4-5.4,5.9-9.6,11.7-10.7
		c0.9-0.2,1.8,0.1,2.1,1l0,0C37.7,25.6,37.3,26.8,36.4,26.9z"/>
</g>
</svg>
