<?xml version="1.0" encoding="utf-8"?>
<!-- Generator: Adobe Illustrator 22.1.0, SVG Export Plug-In . SVG Version: 6.00 Build 0)  -->
<svg version="1.1" id="图层_1" xmlns="http://www.w3.org/2000/svg" xmlns:xlink="http://www.w3.org/1999/xlink" x="0px" y="0px"
	 viewBox="0 0 74 74" style="enable-background:new 0 0 74 74;" xml:space="preserve">
<style type="text/css">
	.st0{fill:#58DBC8;}
	.st1{fill:#FFFFFF;}
	.st2{fill:#0BAA8F;}
	.st3{fill:none;}
</style>
<g>
	<path class="st0" d="M51.2,71H22.8C11.9,71,3,62.1,3,51.2V22.8C3,11.9,11.9,3,22.8,3h28.3C62.1,3,71,11.9,71,22.8v28.3
		C71,62.1,62.1,71,51.2,71z"/>
	<path class="st1" d="M20.8,17.2v7.9c0,0,4.3,1.4,9.7,2.2c0.8-2.8,3.3-4.8,6.4-4.8c3.1,0,5.6,2.1,6.4,4.9c5.4-0.8,9.6-2.3,9.6-2.3
		v-7.9H20.8z M20.8,17.2"/>
	<path class="st2" d="M40.6,29.4c0-2.1-1.7-3.8-3.8-3.8c-2.1,0-3.8,1.7-3.8,3.8c0,2.1,1.7,3.8,3.8,3.8
		C38.9,33.2,40.6,31.5,40.6,29.4L40.6,29.4z M40.6,29.4"/>
	<path class="st1" d="M43.4,30c-0.4,3.3-3.2,5.9-6.6,5.9c-3.4,0-6.2-2.6-6.6-5.9c-5.3-0.8-9.4-2.3-9.4-2.3v29.6h32.1V27.7
		C52.9,27.7,48.7,29.2,43.4,30z M36.8,52.6H26.1v-2.8h10.7V52.6z M36.8,47.3H26.1v-2.8h10.7V47.3z M26.1,41.9v-2.7h21.4v2.7H26.1z"
		/>
	<path class="st1" d="M47.5,43.9"/>
	<rect x="20.8" y="17.1" class="st3" width="32.1" height="40.2"/>
</g>
</svg>
