<?xml version="1.0" encoding="utf-8"?>
<!-- Generator: Adobe Illustrator 22.1.0, SVG Export Plug-In . SVG Version: 6.00 Build 0)  -->
<svg version="1.1" id="图层_1" xmlns="http://www.w3.org/2000/svg" xmlns:xlink="http://www.w3.org/1999/xlink" x="0px" y="0px"
	 viewBox="0 0 74 74" style="enable-background:new 0 0 74 74;" xml:space="preserve">
<style type="text/css">
	.st0{fill:#F68632;}
	.st1{fill:none;}
	.st2{fill:#FFFFFF;}
</style>
<g>
	<path class="st0" d="M51.1,71H22.8C11.9,71,3,62.1,3,51.2V22.8C3,11.9,11.9,3,22.8,3h28.3C62,3,71,11.9,71,22.8v28.3
		C71,62.1,62,71,51.1,71z"/>
	<path d="M29.5,33.8"/>
	<rect x="11.8" y="13.9" class="st1" width="50.2" height="46"/>
	<g>
		<path class="st2" d="M56.7,51.4c0,1.5-1.2,2.6-2.7,2.7H19.9c-1.5,0-2.6-1.2-2.7-2.7v-8.8c0,0.9,0.4,2,2.5,2.6l1.4,0.4
			c4.5,1.3,11.3,3.3,15.2,3.3h0.1c4.1,0,11.4-2,16.2-3.3l1.5-0.4c1.6-0.4,2.5-1.4,2.5-2.6V51.4z"/>
		<path class="st2" d="M54.1,28.7h-7.3v-3.5c0-5.4-4.4-9.7-9.7-9.7c-5.4,0-9.7,4.4-9.7,9.7v3.5h-7.3c-1.5,0-2.7,1.2-2.7,2.7v8
			c0,0.9,0.4,2,2.5,2.6l1.4,0.4c4.5,1.3,11.3,3.3,15.2,3.3h0.1c4.1,0,11.4-2,16.2-3.3l1.5-0.4c1.6-0.4,2.5-1.4,2.5-2.6v0h0v-8
			C56.7,29.9,55.5,28.7,54.1,28.7z M37,42.6c-1.8-0.1-3.2-1.5-3.2-3.3c0-1.8,1.4-3.2,3.2-3.3c1.8,0,3.3,1.5,3.3,3.3
			C40.3,41.1,38.8,42.6,37,42.6z M42.3,28.7H31.7v-3.5c0-2.9,2.4-5.3,5.3-5.3c2.9,0,5.3,2.4,5.3,5.3V28.7z"/>
	</g>
	<path d="M58.1,40.7"/>
	<rect x="0" y="0" class="st1" width="73.9" height="74"/>
</g>
</svg>
