<?xml version="1.0" encoding="utf-8"?>
<!-- Generator: Adobe Illustrator 22.1.0, SVG Export Plug-In . SVG Version: 6.00 Build 0)  -->
<svg version="1.1" id="图层_1" xmlns="http://www.w3.org/2000/svg" xmlns:xlink="http://www.w3.org/1999/xlink" x="0px" y="0px"
	 viewBox="0 0 74 74" style="enable-background:new 0 0 74 74;" xml:space="preserve">
<style type="text/css">
	.st0{fill:#C4670A;}
	.st1{fill:none;}
	.st2{fill:#FFFFFF;}
</style>
<g>
	<path class="st0" d="M51.1,71H22.8C11.9,71,3,62.1,3,51.2V22.8C3,11.9,11.9,3,22.8,3h28.3C62,3,71,11.9,71,22.8v28.3
		C71,62.1,62,71,51.1,71z"/>
	<path d="M29.5,33.8"/>
	<rect x="11.8" y="13.9" class="st1" width="50.2" height="46"/>
	<path d="M58.1,40.7"/>
	<rect x="0" y="0" class="st1" width="73.9" height="74"/>
	<g>
		<g>
			<path class="st2" d="M34.4,57c-11,0-20-9-20-20c0-11,9-20,20-20c5,0,9.8,1.9,13.5,5.2c0.5,0.4,0.5,1.1,0.1,1.6
				c-0.4,0.5-1.1,0.5-1.6,0.1c-3.3-3-7.5-4.7-12-4.7c-9.8,0-17.7,8-17.7,17.7c0,9.8,8,17.7,17.7,17.7c5.4,0,10.5-2.4,13.9-6.7
				c0.2-0.2,0.4-0.4,0.7-0.4c0.3,0,0.6,0.1,0.8,0.2c0.2,0.2,0.4,0.5,0.4,0.7c0,0.3-0.1,0.6-0.2,0.8C46.3,54.3,40.6,57,34.4,57
				L34.4,57z M34.4,57"/>
			<path class="st2" d="M32.9,39.3l-5.8,2.7l-2.3-1.2c-1.5-0.8-3.4-0.7-4.8,0.3l4.4,4.9l0.2-0.2c0.9,0.5,2,0.6,3,0.3l29.3-9.6
				c0.8-0.3,1.5-1,1.6-1.8c0.2-0.9-0.1-1.8-0.8-2.3c-2-1.7-4.8-2.1-7.2-1l-8.9,4.1l-7.2-4.5c-2.7-1.7-6.2-1.7-8.9,0.1L32.9,39.3z
				 M32.9,39.3"/>
		</g>
	</g>
</g>
</svg>
