<?xml version="1.0" encoding="utf-8"?>
<!-- Generator: Adobe Illustrator 22.1.0, SVG Export Plug-In . SVG Version: 6.00 Build 0)  -->
<svg version="1.1" id="图层_1" xmlns="http://www.w3.org/2000/svg" xmlns:xlink="http://www.w3.org/1999/xlink" x="0px" y="0px"
	 viewBox="0 0 74 74" style="enable-background:new 0 0 74 74;" xml:space="preserve">
<style type="text/css">
	.st0{fill:#25C1B2;}
	.st1{fill:#FFFFFF;}
	.st2{opacity:0.2;}
	.st3{fill:#2BBFB8;}
</style>
<g>
	<path class="st0" d="M51.2,71H22.8C11.9,71,3,62.1,3,51.2V22.8C3,11.9,11.9,3,22.8,3h28.3C62.1,3,71,11.9,71,22.8v28.3
		C71,62.1,62.1,71,51.2,71z"/>
	<path d="M50.9,59.5"/>
	<g>
		<g>
			<path class="st1" d="M50.9,43.7c-4.5,0-8.1,3.6-8.1,8.1s3.6,8.1,8.1,8.1s8-3.6,8.1-8.1C59.1,47.2,55.5,43.7,50.9,43.7z
				 M50.9,58.3c-3.6,0-6.5-2.9-6.5-6.5c0-3.6,2.9-6.5,6.5-6.5c3.5,0,6.5,3,6.5,6.5C57.4,55.6,54.5,58.3,50.9,58.3z"/>
			<path class="st1" d="M55.8,51.8l-1.7,1.7l0.2,2.3c0,0.3,0,0.5-0.3,0.8c-0.2,0-0.2,0.2-0.5,0.2c0,0-0.2,0-0.3-0.2l-2.1-1.1
				l-2.1,1.1c-0.3,0.2-0.8,0-1-0.2c-0.2-0.2-0.3-0.5-0.3-0.8l0.5-2.4l-1.7-1.7c-0.3-0.2-0.5-0.5-0.3-0.8c0.2-0.3,0.5-0.6,0.8-0.6
				l2.3-0.3l1.1-2.1c0.3-0.6,1.3-0.6,1.7,0l1.1,2.1l2.3,0.3c0.3,0.2,0.5,0.3,0.8,0.6C56,51,56,51.5,55.8,51.8L55.8,51.8z"/>
		</g>
		<g>
			<path class="st1" d="M35.6,35.3h-0.5c0.2,1,0.5,1.8,0.9,2.5c0.4,0.7,0.9,1.4,1.4,1.9c1.1-1.5,1.8-2.9,2.1-4.4H35.6z"/>
			<rect x="26.4" y="32.2" class="st1" width="3.3" height="3.6"/>
			<rect x="26.4" y="27.1" class="st1" width="3.3" height="3.6"/>
			<path class="st1" d="M55.6,24.6l-7.2-7.2c-0.7-0.6-1.8-1.1-2.8-1.1H21.5c-1.7,0-3.2,1.5-3.2,3.2v35.3c0,1.7,1.5,3.1,3.2,3.1h22
				C42,56.3,41,54.1,41,51.6c0-5.2,4.4-9.5,9.7-9.5c2.3,0,4.4,0.8,6,2.1V27.3C56.8,26.6,56.2,25.3,55.6,24.6z M33.9,29.1
				c0.1-1.2,0.1-2.3,0.1-3.3h6.5c-0.1,0.5-0.1,1.1-0.1,1.9v2.2c-0.1,0.8,0.3,1.1,1,1.1l1.9-0.1c-0.2,0.5-0.4,1.1-0.4,1.6h-2.2
				c-1.4,0-2-0.5-2-1.6v-3.7h-2.9c0,1.4-0.2,2.6-0.5,3.5c-0.3,0.9-1,1.8-2.1,2.7c-0.3-0.5-0.7-0.9-1.3-1.3
				C33.1,31.2,33.8,30.3,33.9,29.1z M30.5,44.2c-0.5,0.2-1.4,0.5-2.7,0.7c-0.1-0.8-0.3-1.5-0.6-2.1c0.8,0.1,1.4,0.1,1.9,0
				c0.4-0.1,0.6-0.5,0.6-1.4v-4.1h-3.3c-0.2,1.7-0.4,3.1-0.7,4.2c-0.3,1.1-0.7,2.2-1.3,3.4c-0.5-0.5-1.1-0.8-1.9-1
				c0.8-0.9,1.3-2.1,1.6-3.6c0.3-1.4,0.5-3.1,0.5-4.9c0-1.8,0-3.7,0-5.6c0-1.9,0-3.3-0.1-4.1h6.8c-0.1,1.2-0.1,2.3-0.1,3.5v13
				C31.3,43.3,31,44,30.5,44.2z M42.3,45.1L40.1,44c-0.6-0.3-1.6-0.9-2.7-1.9c-0.6,0.6-1.3,1.2-2,1.7c-0.8,0.6-1.7,1.1-2.7,1.7
				c-0.4-0.8-0.9-1.3-1.3-1.7c1.2-0.4,2.2-0.8,2.9-1.3c0.7-0.4,1.4-1,1.9-1.6c-0.6-0.8-1.2-1.7-1.7-2.7c-0.5-0.9-0.8-1.8-1.1-2.7
				c-0.2,0-0.5,0-0.7,0v-1.6c1,0.1,2,0.1,2.9,0.1h6.3c-0.2,0.9-0.6,2-1.2,3.4c-0.6,1.4-1.4,2.6-2.1,3.5c0.6,0.4,1.3,0.8,2.2,1.3
				c0.9,0.4,1.8,0.8,2.9,1C42.9,43.6,42.5,44.3,42.3,45.1z"/>
		</g>
		<g class="st2">
			<path class="st3" d="M24.6,25.1h14.1c0.7,0,1.3,0.6,1.3,1.3s-0.6,1.3-1.3,1.3H24.6c-0.7,0-1.3-0.6-1.3-1.3S23.9,25.1,24.6,25.1z"
				/>
			<path class="st3" d="M43.3,40.9H24.5c-0.7,0-1.3-0.6-1.3-1.3s0.6-1.3,1.3-1.3h18.8c0.7,0,1.3,0.6,1.3,1.3S44,40.9,43.3,40.9z"/>
			<path class="st3" d="M51.7,33c0,0.7-0.5,1.2-1.2,1.2H24.4c-0.7,0-1.2-0.5-1.2-1.2V33c0-0.7,0.5-1.2,1.2-1.2h26.1
				C51.1,31.7,51.7,32.3,51.7,33L51.7,33z"/>
			<path class="st3" d="M52.7,29.2H48c-1.7,0-3.2-1.5-3.2-3.1v-4.7c0-1,0.5-1.1,1.1-0.5l7.3,7.2C53.8,28.6,53.6,29.2,52.7,29.2z"/>
		</g>
	</g>
</g>
</svg>
