<?xml version="1.0" encoding="utf-8"?>
<!-- Generator: Adobe Illustrator 22.1.0, SVG Export Plug-In . SVG Version: 6.00 Build 0)  -->
<svg version="1.1" id="图层_1" xmlns="http://www.w3.org/2000/svg" xmlns:xlink="http://www.w3.org/1999/xlink" x="0px" y="0px"
	 viewBox="0 0 74 74" style="enable-background:new 0 0 74 74;" xml:space="preserve">
<style type="text/css">
	.st0{fill:#07BCE5;}
	.st1{fill:#FFFFFF;}
	.st2{opacity:0.32;}
	.st3{fill:#577DDD;}
</style>
<g>
	<path class="st0" d="M51.2,71H22.8C11.9,71,3,62.1,3,51.2V22.8C3,11.9,11.9,3,22.8,3h28.3C62.1,3,71,11.9,71,22.8v28.3
		C71,62.1,62.1,71,51.2,71z"/>
	<path d="M50.9,59.5"/>
	<path class="st1" d="M51.4,43.7c-4.5,0-8.1,3.6-8.1,8.1s3.6,8.1,8.1,8.1s8-3.6,8.1-8.1C59.6,47.2,56,43.7,51.4,43.7z M51.4,58.3
		c-3.6,0-6.5-2.9-6.5-6.5c0-3.6,2.9-6.5,6.5-6.5c3.5,0,6.5,3,6.5,6.5C57.9,55.6,55,58.3,51.4,58.3z"/>
	<path class="st1" d="M56.3,51.8l-1.7,1.7l0.2,2.3c0,0.3,0,0.5-0.3,0.8c-0.2,0-0.2,0.2-0.5,0.2c0,0-0.2,0-0.3-0.2l-2.1-1.1l-2.1,1.1
		c-0.3,0.2-0.8,0-1-0.2c-0.2-0.2-0.3-0.5-0.3-0.8l0.5-2.4l-1.7-1.7c-0.3-0.2-0.5-0.5-0.3-0.8c0.2-0.3,0.5-0.6,0.8-0.6l2.3-0.3
		l1.1-2.1c0.3-0.6,1.3-0.6,1.7,0l1.1,2.1l2.3,0.3c0.3,0.2,0.5,0.3,0.8,0.6C56.5,51,56.5,51.5,56.3,51.8L56.3,51.8z"/>
	<rect x="28.3" y="28.5" class="st1" width="5.4" height="1.4"/>
	<rect x="28.3" y="34.1" class="st1" width="5.4" height="1.3"/>
	<rect x="28.3" y="31.3" class="st1" width="5.4" height="1.4"/>
	<path class="st1" d="M56.1,24.6L49,17.4c-0.7-0.6-1.8-1.1-2.8-1.1H22c-1.7,0-3.2,1.5-3.2,3.2v35.3c0,1.7,1.5,3.1,3.2,3.1h22
		c-1.5-1.6-2.4-3.8-2.4-6.3c0-5.2,4.4-9.5,9.7-9.5c2.3,0,4.4,0.8,6,2.1V27.3C57.3,26.6,56.7,25.3,56.1,24.6z M34.8,23.9
		c0.3,0.2,0.6,0.5,0.9,0.9c0.3,0.4,0.7,0.8,1,1.3c-0.4,0.3-0.9,0.6-1.5,1c-0.4-0.5-0.7-0.9-0.9-1.2c-0.2-0.3-0.5-0.6-0.9-0.9
		C33.9,24.7,34.4,24.3,34.8,23.9z M25.5,29.1c1-1.2,1.7-2.2,2.1-3c0.4-0.8,0.8-1.5,0.9-2.1c0.5,0.3,1.2,0.7,2,1.1
		c-0.4,0.3-0.7,0.6-0.9,0.9c-0.2,0.3-0.4,0.7-0.6,1.1h11.1c0.9,0,1.9,0,3-0.1v1.4h-7.5V30H39c0.7,0,1.6,0,2.5-0.1v1.5
		c-1-0.1-1.8-0.1-2.5-0.1h-3.5v1.4h3.7c0.8,0,1.7,0,2.7-0.1v1.5c-1-0.1-1.9-0.1-2.7-0.1h-3.7v1.3h4.4c1,0,1.9,0,2.9-0.1v1.5
		c-0.9-0.1-1.8-0.1-2.8-0.1H28.3v0.7h-1.8c0.1-1.1,0.2-2.1,0.2-3v-4.1c-0.4,0.5-0.7,1-0.9,1.3c-0.3,0.3-0.6,0.7-0.9,1.1
		c-0.4-0.4-0.9-0.8-1.3-1.1C23.9,31.1,24.6,30.3,25.5,29.1z M43.2,44.5c-1.2-0.4-2.2-0.8-2.9-1.1c-0.7-0.3-1.4-0.7-2.1-1.1
		c-0.6-0.4-1.2-0.8-1.6-1.2c-0.4-0.4-0.9-0.8-1.3-1.3h-0.4v2.1c0,1.3,0.1,2.3,0.2,3.2h-2c0.1-0.8,0.1-1.9,0.1-3.2v-2.1h-0.4
		c-0.4,0.6-0.9,1.1-1.4,1.6c-0.5,0.5-1.1,0.9-1.8,1.3c-0.6,0.4-1.3,0.8-2,1.1c-0.7,0.4-1.6,0.7-2.6,1c-0.2-0.6-0.6-1.2-1.1-1.8
		c1.3-0.3,2.5-0.7,3.9-1.2c1.3-0.5,2.3-1.2,3-2h-6.5v-1.4c0.7,0.1,1.8,0.1,3.2,0.1h5.7c0-0.2,0-0.7-0.1-1.5h1.9
		c-0.1,0.8-0.1,1.3-0.1,1.5h5.8c1.1,0,2.1,0,3.1-0.1v1.4h-6.4c0.8,0.7,1.8,1.3,2.8,1.7c1,0.4,2.4,0.8,4.2,1.2
		C43.8,43.3,43.4,43.9,43.2,44.5z"/>
	<g class="st2">
		<path class="st3" d="M25.1,25.1h14.1c0.7,0,1.3,0.6,1.3,1.3s-0.6,1.3-1.3,1.3H25.1c-0.7,0-1.3-0.6-1.3-1.3S24.4,25.1,25.1,25.1z"
			/>
		<path class="st3" d="M43.8,40.9H25c-0.7,0-1.3-0.6-1.3-1.3s0.6-1.3,1.3-1.3h18.8c0.7,0,1.3,0.6,1.3,1.3S44.5,40.9,43.8,40.9z"/>
		<path class="st3" d="M52.2,33c0,0.7-0.5,1.2-1.2,1.2H24.9c-0.7,0-1.2-0.5-1.2-1.2V33c0-0.7,0.5-1.2,1.2-1.2H51
			C51.6,31.7,52.2,32.3,52.2,33L52.2,33z"/>
		<path class="st3" d="M53.2,29.2h-4.7c-1.7,0-3.2-1.5-3.2-3.1v-4.7c0-1,0.5-1.1,1.1-0.5l7.3,7.2C54.3,28.6,54.1,29.2,53.2,29.2z"/>
	</g>
</g>
</svg>
