<?xml version="1.0" encoding="utf-8"?>
<!-- Generator: Adobe Illustrator 22.1.0, SVG Export Plug-In . SVG Version: 6.00 Build 0)  -->
<svg version="1.1" id="图层_1" xmlns="http://www.w3.org/2000/svg" xmlns:xlink="http://www.w3.org/1999/xlink" x="0px" y="0px"
	 viewBox="0 0 74 74" style="enable-background:new 0 0 74 74;" xml:space="preserve">
<style type="text/css">
	.st0{fill:#58DBC8;}
	.st1{fill:none;}
	.st2{opacity:0.3;fill:#C6F7ED;}
	.st3{fill:#FFFFFF;}
	.st4{opacity:0.3;fill:#58DBC8;}
</style>
<g>
	<path class="st0" d="M51.2,71H22.8C11.9,71,3,62.1,3,51.2V22.8C3,11.9,11.9,3,22.8,3h28.3C62.1,3,71,11.9,71,22.8v28.3
		C71,62.1,62.1,71,51.2,71z"/>
	<rect x="16.6" y="16.7" class="st1" width="41.2" height="41.3"/>
	<path class="st2" d="M38.8,58.6c-0.9,0.6-2.5,0.6-3.4,0L18.2,48.3c-0.9-0.6-0.9-1.5,0-2.1L35.3,36c0.9-0.6,2.5-0.6,3.4,0l17.1,10.3
		c0.9,0.6,0.9,1.5,0,2.1L38.8,58.6z M38.8,58.6"/>
	<path class="st3" d="M38.8,56.6c-0.9,0.6-2.5,0.6-3.4,0L18.2,46.4c-0.9-0.6-0.9-1.5,0-2.1l17.1-10.3c0.9-0.6,2.5-0.6,3.4,0
		l17.1,10.3c0.9,0.6,0.9,1.5,0,2.1L38.8,56.6z M38.8,56.6"/>
	<path class="st4" d="M38.8,50.8c-0.9,0.6-2.5,0.6-3.4,0L18.2,40.5c-0.9-0.6-0.9-1.5,0-2.1l17.1-10.3c0.9-0.6,2.5-0.6,3.4,0
		l17.1,10.3c0.9,0.6,0.9,1.5,0,2.1L38.8,50.8z M38.8,50.8"/>
	<path class="st3" d="M38.8,48.8c-0.9,0.6-2.5,0.6-3.4,0L18.2,38.6c-0.9-0.6-0.9-1.5,0-2.1l17.1-10.3c0.9-0.6,2.5-0.6,3.4,0
		l17.1,10.3c0.9,0.6,0.9,1.5,0,2.1L38.8,48.8z M38.8,48.8"/>
	<path class="st4" d="M38.8,43c-0.9,0.6-2.5,0.6-3.4,0L18.2,32.7c-0.9-0.6-0.9-1.5,0-2.1l17.1-10.3c0.9-0.6,2.5-0.6,3.4,0l17.1,10.3
		c0.9,0.6,0.9,1.5,0,2.1L38.8,43z M38.8,43"/>
	<path class="st3" d="M38.8,41c-0.9,0.6-2.5,0.6-3.4,0L18.2,30.8c-0.9-0.6-0.9-1.5,0-2.1l17.1-10.3c0.9-0.6,2.5-0.6,3.4,0l17.1,10.3
		c0.9,0.6,0.9,1.5,0,2.1L38.8,41z M38.8,41"/>
</g>
</svg>
