<?xml version="1.0" encoding="utf-8"?>
<!-- Generator: Adobe Illustrator 22.1.0, SVG Export Plug-In . SVG Version: 6.00 Build 0)  -->
<svg version="1.1" id="图层_1" xmlns="http://www.w3.org/2000/svg" xmlns:xlink="http://www.w3.org/1999/xlink" x="0px" y="0px"
	 viewBox="0 0 74 74" style="enable-background:new 0 0 74 74;" xml:space="preserve">
<style type="text/css">
	.st0{fill:#FFC200;}
	.st1{fill:#FFFFFF;}
</style>
<g>
	<path class="st0" d="M51.2,71H22.8C11.9,71,3,62.1,3,51.2V22.8C3,11.9,11.9,3,22.8,3h28.3C62.1,3,71,11.9,71,22.8v28.3
		C71,62.1,62.1,71,51.2,71z"/>
	<path d="M50.9,59.5"/>
	<path class="st1" d="M54.5,21.6c0,0-14.8-2.9-17.2-2.9s-17.1,2.9-17.1,2.9c-0.5,0.1-0.8,0.5-0.8,1V38c0,5.6,3.8,12.7,8.5,15.9
		c0,0,7.2,5.2,9.6,5.2c2.4,0,9.4-5.1,9.4-5.1c4.7-3.1,8.5-10.3,8.5-15.9V22.7C55.3,22.2,55,21.8,54.5,21.6z M44.5,36.7l-7.9,11
		c-1,1.3-1.5,1.1-1.1-0.5l1.3-6.2c0.1-0.4-0.2-0.7-0.6-0.7h-4c-0.4,0-0.6-0.3-0.5-0.7l4.1-10.6v0c0.2-0.4,0.6-0.7,1-0.7h4.3
		c0.4,0,0.6,0.3,0.5,0.7l-2.8,6.3c-0.2,0.4,0,0.7,0.5,0.7l4.9,0.1C44.6,36.1,44.8,36.3,44.5,36.7z"/>
	<path class="st1" d="M36,29.6"/>
</g>
</svg>
