<?xml version="1.0" encoding="utf-8"?>
<!-- Generator: Adobe Illustrator 22.1.0, SVG Export Plug-In . SVG Version: 6.00 Build 0)  -->
<svg version="1.1" id="图层_1" xmlns="http://www.w3.org/2000/svg" xmlns:xlink="http://www.w3.org/1999/xlink" x="0px" y="0px"
	 viewBox="0 0 74 74" style="enable-background:new 0 0 74 74;" xml:space="preserve">
<style type="text/css">
	.st0{fill:#EDA320;}
	.st1{fill:#FFFFFF;}
</style>
<g>
	<path class="st0" d="M51.2,71H22.8C11.9,71,3,62.1,3,51.2V22.8C3,11.9,11.9,3,22.8,3h28.3C62.1,3,71,11.9,71,22.8v28.3
		C71,62.1,62.1,71,51.2,71z"/>
	<path class="st1" d="M37.8,39.2L55,23.1c0.5-0.4,0.2-1.2-0.5-1.2H20.2c-0.6,0-0.9,0.8-0.5,1.2l17.2,16.1
		C37.1,39.4,37.5,39.4,37.8,39.2z M56.3,24.3l-11.7,11c-0.3,0.3-0.3,0.7,0,1l11.7,13.2c0.4,0.5,1.2,0.2,1.2-0.5c0-5.1,0-19.4,0-24.2
		C57.5,24.2,56.8,23.9,56.3,24.3z M17.2,24.8c0,4.8,0,19.1,0,24.2c0,0.6,0.8,0.9,1.2,0.5l11.7-13.2c0.3-0.3,0.2-0.7,0-1l-11.7-11
		C17.9,23.9,17.2,24.2,17.2,24.8z M43.3,37.5c-0.3-0.3-0.7-0.3-1,0l-4.4,4.1c-0.3,0.3-0.8,0.3-1.1,0l-4.4-4.1c-0.3-0.3-0.7-0.2-1,0
		L19.4,51c-0.4,0.5-0.1,1.2,0.5,1.2c6.1,0,28.8,0,34.9,0c0.6,0,0.9-0.7,0.5-1.2L43.3,37.5z M42.8,37"/>
</g>
</svg>
