<?xml version="1.0" encoding="utf-8"?>
<!-- Generator: Adobe Illustrator 22.1.0, SVG Export Plug-In . SVG Version: 6.00 Build 0)  -->
<svg version="1.1" id="图层_1" xmlns="http://www.w3.org/2000/svg" xmlns:xlink="http://www.w3.org/1999/xlink" x="0px" y="0px"
	 viewBox="0 0 74 74" style="enable-background:new 0 0 74 74;" xml:space="preserve">
<style type="text/css">
	.st0{fill:#FFC200;}
	.st1{fill:none;}
	.st2{fill:#FFFFFF;}
</style>
<g>
	<path class="st0" d="M51.3,71H22.9C12,71,3.1,62.1,3.1,51.2V22.8C3.1,11.9,12,3,22.9,3h28.3c10.9,0,19.8,8.9,19.8,19.8v28.3
		C71.1,62.1,62.2,71,51.3,71z"/>
	<path d="M29.5,33.8"/>
	<rect x="11.8" y="13.9" class="st1" width="50.2" height="46"/>
	<path d="M58.1,40.7"/>
	<rect x="0" y="0" class="st1" width="73.9" height="74"/>
	<g>
		<path class="st2" d="M37.6,38.2c4.6,1.8,5.9,3.8,10.9,1.3l-4.9-8.7H31.3l-4.8,8.4C26.7,39.2,33.1,36.4,37.6,38.2z"/>
		<path class="st2" d="M55.4,51.7l-5.9-10.4c0,0-5,3.4-10.5-0.1c-5.4-3.5-13.8,0.4-14,0.5l-5.7,10c-0.9,1.6,0.2,3.6,2.1,3.6h31.9
			C55.2,55.4,56.3,53.4,55.4,51.7z M27.9,53c-1.9,0-3.4-1.5-3.4-3.4s1.5-3.4,3.4-3.4s3.4,1.5,3.4,3.4S29.8,53,27.9,53z M36.6,47.1
			c-0.9,0-1.6-0.7-1.6-1.6s0.7-1.6,1.6-1.6c0.9,0,1.6,0.7,1.6,1.6S37.5,47.1,36.6,47.1z M46.7,52.4c-1.1,0-2.1-0.9-2.1-2.1
			s0.9-2.1,2.1-2.1s2.1,0.9,2.1,2.1S47.8,52.4,46.7,52.4z"/>
	</g>
	<path class="st2" d="M31.3,14.7V31h12.4V14.7H31.3z M40.7,29.5c0,0.5-0.5,0.9-1.1,0.9c-0.6,0-1.1-0.4-1.1-0.9v-0.9
		c0-0.5,0.5-0.9,1.1-0.9c0.6,0,1.1,0.4,1.1,0.9V29.5z M40.7,25.5c0,0.4-0.5,0.8-1.1,0.8c-0.6,0-1.1-0.4-1.1-0.8v-8.9
		c0-0.4,0.5-0.8,1.1-0.8c0.6,0,1.1,0.4,1.1,0.8V25.5z"/>
</g>
</svg>
