<?xml version="1.0" encoding="utf-8"?>
<!-- Generator: Adobe Illustrator 22.1.0, SVG Export Plug-In . SVG Version: 6.00 Build 0)  -->
<svg version="1.1" id="图层_1" xmlns="http://www.w3.org/2000/svg" xmlns:xlink="http://www.w3.org/1999/xlink" x="0px" y="0px"
	 viewBox="0 0 74 74" style="enable-background:new 0 0 74 74;" xml:space="preserve">
<style type="text/css">
	.st0{fill:#E57130;}
	.st1{fill:#FFFFFF;}
	.st2{fill:#3DA8F5;}
</style>
<g>
	<path class="st0" d="M51.2,71H22.8C11.9,71,3,62.1,3,51.2V22.8C3,11.9,11.9,3,22.8,3h28.3C62.1,3,71,11.9,71,22.8v28.3
		C71,62.1,62.1,71,51.2,71z"/>
	<path class="st1" d="M41.2,24.9h-8.3c-6.5,2.5-11.9,10.5-11.9,18.2c0,9.3,4.7,13.8,16.1,13.8c11.3,0,16.1-4.5,16.1-13.8
		C53.1,35.4,47.7,27.4,41.2,24.9z M42.4,46.7h-3.4v1.7h0c0,0.1,0,0.3,0,0.4c0,1.2-0.9,2.1-2.1,2.1c-1.2,0-2.1-0.9-2.1-2.1
		c0-0.1,0-0.3,0-0.4h0v-1.7h-3.4c-0.9,0-1.7-0.7-1.7-1.7c0-0.9,0.7-1.7,1.7-1.7h0v0h3.3v-1.7h-3.3v0h0c-0.9,0-1.7-0.7-1.7-1.7
		c0-0.9,0.7-1.7,1.7-1.7h0v0h3c0-0.1,0.1-0.2,0.1-0.3L31,34.3c-0.5-0.5-0.3-1.4,0.3-2c0.6-0.6,1.6-0.8,2-0.3l3.7,3.7l3.4-3.6
		c0.5-0.6,1.6-0.4,2.3,0.2c0.7,0.7,1,1.3,0.3,2l-3.9,4c0,0,0,0.1,0,0.1h3.4v0c0.9,0,1.7,0.7,1.7,1.7s-0.7,1.7-1.7,1.7l-3.4,0v1.7
		h3.4v0c0.9,0,1.7,0.7,1.7,1.7C44.1,45.9,43.4,46.7,42.4,46.7z"/>
	<path class="st1" d="M44.6,18.8l-0.3,0.4c0,0,0,0,0,0l-2.7,3.4h-9.1l-2.7-3.4c0,0,0,0-0.1-0.1l-0.3-0.4l0.1-0.1
		c0-0.1-0.1-0.2-0.1-0.3c0-0.5,0.3-0.9,0.7-1.1l0-0.1c0,0,3.7-0.8,6.9-0.8c3.3,0,6.9,0.8,6.9,0.8l0,0.1c0.4,0.2,0.7,0.6,0.7,1.1
		c0,0.1,0,0.2-0.1,0.3L44.6,18.8z"/>
	<path class="st2" d="M37,19.8"/>
</g>
</svg>
