<?xml version="1.0" encoding="utf-8"?>
<!-- Generator: Adobe Illustrator 22.1.0, SVG Export Plug-In . SVG Version: 6.00 Build 0)  -->
<svg version="1.1" id="图层_1" xmlns="http://www.w3.org/2000/svg" xmlns:xlink="http://www.w3.org/1999/xlink" x="0px" y="0px"
	 viewBox="0 0 74 74" style="enable-background:new 0 0 74 74;" xml:space="preserve">
<style type="text/css">
	.st0{fill:#EDA320;}
	.st1{fill:#3DA8F5;}
	.st2{fill:#FFFFFF;}
</style>
<path class="st0" d="M51.2,71H22.8C11.9,71,3,62.1,3,51.2V22.8C3,11.9,11.9,3,22.8,3h28.3C62.1,3,71,11.9,71,22.8v28.3
	C71,62.1,62.1,71,51.2,71z"/>
<path class="st1" d="M45.3,19.8"/>
<path class="st2" d="M52.9,26.5c-0.1,0-11.1-5-15.2-7.7c-0.4-0.3-1-0.3-1.4,0c-4.1,2.6-15.1,7.6-15.2,7.7c-0.5,0.2-0.8,0.7-0.8,1.2
	v6.5c0,13.4,6,19.4,16.1,23.8c0.3,0.1,0.7,0.1,1,0c10.1-4.4,16.1-10.3,16.1-23.8v-6.5C53.6,27.2,53.3,26.7,52.9,26.5z M44.3,38.6
	c-0.3,0.3-0.6,0.4-1,0.4h-5v4.3c0,1.9-1.5,3.4-3.4,3.4c-1.9,0-3.4-1.5-3.4-3.4c0-0.5,0.2-1,0.7-1.2c0.4-0.3,1-0.3,1.4,0
	c0.4,0.3,0.7,0.7,0.7,1.2c0,0.3,0.3,0.6,0.6,0.6c0.3,0,0.6-0.3,0.6-0.6V39h-5v0c-0.4,0-0.7-0.1-1-0.4c-0.3-0.3-0.4-0.6-0.4-1
	c0-4.3,3.5-7.8,7.8-7.8c4.3,0,7.8,3.5,7.8,7.8C44.7,38,44.6,38.4,44.3,38.6z"/>
</svg>
