<?xml version="1.0" encoding="utf-8"?>
<!-- Generator: Adobe Illustrator 22.1.0, SVG Export Plug-In . SVG Version: 6.00 Build 0)  -->
<svg version="1.1" id="图层_1" xmlns="http://www.w3.org/2000/svg" xmlns:xlink="http://www.w3.org/1999/xlink" x="0px" y="0px"
	 viewBox="0 0 206 206" style="enable-background:new 0 0 206 206;" xml:space="preserve">
<style type="text/css">
	.st0{fill:#FE970E;}
	.st1{fill:#FFFFFF;}
</style>
<g>
	<circle class="st0" cx="103" cy="103" r="100"/>
	<path class="st1" d="M52.2,84.4"/>
	<g>
		<path class="st1" d="M82.9,77c2.2,0,4-1.8,4-4.1V62.2c0-2.3-1.8-4.1-4-4.1s-4,1.8-4,4.1v10.8C78.9,75.3,80.7,77,82.9,77L82.9,77z"
			/>
		<path class="st1" d="M123.1,77c2.2,0,4-1.8,4-4.1V62.2c0-2.3-1.8-4.1-4-4.1s-4,1.8-4,4.1v10.8C119.1,75.3,120.9,77,123.1,77
			L123.1,77z"/>
		<path class="st1" d="M120.3,95c-1.2-0.6-2.6-0.3-3.3,0.8l-16.1,25.9l-9.5-11.1c-0.8-1-2.3-1.1-3.4-0.4c-1.1,0.8-1.3,2.2-0.6,3.2
			l11.8,17.3c0.5,0.7,1.2,1.1,2.1,1.1h0.1c0.9,0,1.6-0.5,2.1-1.3l17.8-32.4C121.9,97,121.4,95.6,120.3,95L120.3,95z"/>
		<rect x="53.6" y="83.6" class="st1" width="98.9" height="6.9"/>
		<path class="st1" d="M142,147.9H64c-6.3,0-11.4-5.1-11.4-11.4V77.9c0-6.3,5.1-11.4,11.4-11.4h78c6.3,0,11.4,5.1,11.4,11.4v58.5
			C153.4,142.8,148.3,147.9,142,147.9L142,147.9z M64,71.9c-4.4,0-6.1,1.6-6.1,6.1v58.5c0,4.4,1.6,6.1,6.1,6.1h78
			c4.4,0,6.1-1.6,6.1-6.1V77.9c0-4.4-1.6-6.1-6.1-6.1L64,71.9L64,71.9z"/>
	</g>
</g>
</svg>
