<?xml version="1.0" encoding="utf-8"?>
<!-- Generator: Adobe Illustrator 22.1.0, SVG Export Plug-In . SVG Version: 6.00 Build 0)  -->
<svg version="1.1" id="图层_1" xmlns="http://www.w3.org/2000/svg" xmlns:xlink="http://www.w3.org/1999/xlink" x="0px" y="0px"
	 viewBox="0 0 206 206" style="enable-background:new 0 0 206 206;" xml:space="preserve">
<style type="text/css">
	.st0{fill:#FE970E;}
	.st1{fill:#FFFFFF;}
</style>
<g>
	<circle class="st0" cx="103" cy="103" r="100"/>
	<path class="st1" d="M49.4,83.4"/>
	<g>
		<rect x="53.1" y="80.2" class="st1" width="98.9" height="6.9"/>
		<path class="st1" d="M82.4,74.6c2.2,0,4-1.8,4-4.1V59.7c0-2.3-1.8-4.1-4-4.1s-4,1.8-4,4.1v10.8C78.4,72.8,80.2,74.6,82.4,74.6
			L82.4,74.6z"/>
		<path class="st1" d="M112.8,93.6c-1.2-0.6-2.6-0.3-3.3,0.8l-16.1,25.9l-9.5-11.1c-0.8-1-2.3-1.1-3.4-0.4c-1.1,0.8-1.3,2.2-0.6,3.2
			l11.8,17.3c0.5,0.7,1.2,1.1,2.1,1.1h0.1c0.9,0,1.6-0.5,2.1-1.3l17.8-32.4C114.4,95.6,113.9,94.2,112.8,93.6L112.8,93.6z"/>
		<g>
			<path class="st1" d="M122.6,74.6c2.2,0,4-1.8,4-4.1V59.7c0-2.3-1.8-4.1-4-4.1s-4,1.8-4,4.1v10.8
				C118.6,72.8,120.4,74.6,122.6,74.6L122.6,74.6z"/>
			<path class="st1" d="M111.2,140.1H63.5c-4.4,0-6.1-1.6-6.1-6.1V75.5c0-4.4,1.6-6.1,6.1-6.1h78c4.4,0,6.1,1.6,6.1,6.1v28
				c2,1.2,3.8,2.7,5.4,4.4V75.5c0-6.3-5.1-11.4-11.4-11.4h-78c-6.4,0-11.5,5.1-11.5,11.4V134c0,6.3,5.1,11.4,11.4,11.4h52.1
				C113.9,143.9,112.4,142.1,111.2,140.1z"/>
		</g>
		<path class="st1" d="M131.6,146.9c-8.8-1.3-15.7-8.2-17-17h-3.7c-1,0-1.8-0.8-1.8-1.8v-2c0-1,0.8-1.8,1.8-1.8h3.7
			c1.3-8.8,8.2-15.7,17-17V104c0-1.3,1-2.3,2.3-2.3h1.1c1.3,0,2.3,1,2.3,2.3v3.2c8.8,1.3,15.7,8.2,17,17h3.5c1.1,0,2,0.9,2,2v1.7
			c0,1.1-0.9,2-2,2h-3.5c-1.3,8.8-8.2,15.7-17,17v3.8c0,1-0.8,1.7-1.7,1.7h-2.2c-1,0-1.7-0.8-1.7-1.7L131.6,146.9L131.6,146.9z
			 M134.4,141.3c8.5,0,15.2-7.3,14.2-16c-0.7-6.6-6.1-11.9-12.6-12.6c-8.6-0.9-16,5.8-16,14.2C120.1,134.9,126.5,141.3,134.4,141.3
			L134.4,141.3z M134.4,132.7c-3.2,0-5.8-2.6-5.7-5.8c0-3,2.6-5.6,5.7-5.7c3.2,0,5.8,2.6,5.8,5.7
			C140.1,130.2,137.5,132.7,134.4,132.7L134.4,132.7z"/>
	</g>
</g>
</svg>
