<?xml version="1.0" standalone="no"?><!DOCTYPE svg PUBLIC "-//W3C//DTD SVG 1.1//EN" "http://www.w3.org/Graphics/SVG/1.1/DTD/svg11.dtd"><svg t="1542763583632" class="icon" style="" viewBox="0 0 1024 1024" version="1.1" xmlns="http://www.w3.org/2000/svg" p-id="2518" xmlns:xlink="http://www.w3.org/1999/xlink" width="200" height="200"><defs><style type="text/css"></style></defs><path d="M481.706667 851.626667a64 64 0 0 1-34.773334-10.453334c-96.64-64-405.333333-287.573333-308.053333-505.386666a215.68 215.68 0 0 1 342.826667-73.386667 214.613333 214.613333 0 0 1 170.666666-54.613333 216.96 216.96 0 0 1 170.666667 128 232.32 232.32 0 0 1-6.4 194.56l-57.173333-26.026667a168.96 168.96 0 0 0 6.4-141.653333 151.68 151.68 0 0 0-248.96-44.373334 50.56 50.56 0 0 1-70.613334 0A151.68 151.68 0 0 0 197.333333 362.666667C119.466667 537.813333 420.693333 746.666667 481.92 787.626667c20.266667-13.866667 53.12-36.48 90.24-66.346667l40.106667 49.92c-39.04 31.36-73.6 55.466667-95.786667 69.973333a64 64 0 0 1-34.773333 10.453334z" fill="#A2A2A2" p-id="2519"></path><path d="M710.826667 868.053333a87.253333 87.253333 0 0 1-50.986667-16.426666c-142.933333-102.826667-197.12-211.413333-149.333333-298.666667A135.04 135.04 0 0 1 710.826667 512a135.04 135.04 0 0 1 199.466666 42.666667c48.64 85.333333-5.333333 194.773333-149.333333 298.666666a87.466667 87.466667 0 0 1-50.133333 14.72z m-81.92-318.72a74.88 74.88 0 0 0-14.293334 1.493334 71.04 71.04 0 0 0-47.36 34.773333c-45.013333 79.573333 88.106667 184.106667 129.92 213.333333a23.466667 23.466667 0 0 0 27.306667 0c42.666667-30.08 174.933333-134.613333 129.92-213.333333a71.04 71.04 0 0 0-47.36-34.773333 71.893333 71.893333 0 0 0-66.133333 21.333333 42.666667 42.666667 0 0 1-60.16 0 71.466667 71.466667 0 0 0-51.84-22.826667z m65.706666-21.333333z m32.426667 0z" fill="#A2A2A2" p-id="2520"></path><path d="M315.093333 492.373333a32 32 0 0 1-32-32 95.573333 95.573333 0 0 1 95.573334-95.573333 32 32 0 0 1 0 64 31.573333 31.573333 0 0 0-31.573334 31.573333 32 32 0 0 1-32 32z" fill="#FC455D" p-id="2521"></path></svg>