<?xml version="1.0" encoding="utf-8"?>
<!-- Generator: Adobe Illustrator 22.1.0, SVG Export Plug-In . SVG Version: 6.00 Build 0)  -->
<svg version="1.1" id="图层_1" xmlns="http://www.w3.org/2000/svg" xmlns:xlink="http://www.w3.org/1999/xlink" x="0px" y="0px"
	 viewBox="0 0 206 206" style="enable-background:new 0 0 206 206;" xml:space="preserve">
<style type="text/css">
	.st0{fill:#06B299;}
	.st1{fill:#FFFFFF;}
</style>
<g>
	<circle class="st0" cx="103" cy="103" r="100"/>
	<rect x="52.7" y="84.3" class="st1" width="98.9" height="6.9"/>
	<g>
		<path class="st1" d="M82.1,77.7c2.2,0,4-1.8,4-4.1V62.8c0-2.3-1.8-4.1-4-4.1s-4,1.8-4,4.1v10.9C78.1,75.9,79.9,77.7,82.1,77.7
			L82.1,77.7z"/>
		<g>
			<path class="st1" d="M112.4,96.7c-1.2-0.6-2.6-0.3-3.3,0.8L93,123.4l-9.5-11.1c-0.8-1-2.3-1.1-3.4-0.4c-1.1,0.8-1.3,2.2-0.6,3.2
				l11.8,17.3c0.5,0.7,1.2,1.1,2.1,1.1h0.1c0.9,0,1.6-0.5,2.1-1.3l17.8-32.4C114,98.8,113.6,97.3,112.4,96.7L112.4,96.7z"/>
			<g>
				<g>
					<path class="st1" d="M134.1,107.4c-11.3-1.4-21.6,6.7-23,18c-1.4,11.3,6.7,21.6,18,23c11.3,1.4,21.6-6.7,23-18
						S145.4,108.8,134.1,107.4z M129.8,143.1c-8.4-1-14.3-8.6-13.3-16.9s8.6-14.3,16.9-13.3c8.4,1,14.3,8.6,13.3,16.9
						C145.8,138.1,138.2,144.1,129.8,143.1z"/>
					<g>
						
							<rect x="144.6" y="138" transform="matrix(0.6715 -0.741 0.741 0.6715 -57.4123 155.2234)" class="st1" width="3.5" height="8.8"/>
						<path class="st1" d="M155.2,143.5c-2.3-2.1-5.7-2-7.6,0.1c-1.9,2.1-1.7,5.5,0.6,7.6l5.1,4.6c2.3,2.1,5.7,2,7.6-0.1
							c1.9-2.1,1.7-5.5-0.6-7.6L155.2,143.5z M158,153.1c-0.8,0.8-2.4,0.6-3.7-0.6l-2.8-2.6c-1.3-1.2-1.7-2.8-0.9-3.6
							s2.4-0.6,3.7,0.6l2.8,2.6C158.3,150.6,158.7,152.2,158,153.1z"/>
					</g>
				</g>
				<g>
					<path class="st1" d="M122.3,77.7c2.2,0,4-1.8,4-4.1V62.8c0-2.3-1.8-4.1-4-4.1s-4,1.8-4,4.1v10.9
						C118.3,75.9,120.1,77.7,122.3,77.7L122.3,77.7z"/>
					<path class="st1" d="M110.8,143.2H63.2c-4.4,0-6.1-1.6-6.1-6.1V78.7c0-4.4,1.6-6.1,6.1-6.1h78c4.4,0,6.1,1.6,6.1,6.1v27.9
						c2,1.2,3.8,2.7,5.4,4.4V78.7c0-6.3-5.1-11.4-11.4-11.4h-78c-6.3,0-11.4,5.1-11.4,11.4v58.5c0,6.3,5.1,11.4,11.4,11.4h52.1
						C113.6,147,112.1,145.2,110.8,143.2z"/>
				</g>
			</g>
		</g>
	</g>
</g>
</svg>
