<?xml version="1.0" encoding="utf-8"?>
<!-- Generator: Adobe Illustrator 22.1.0, SVG Export Plug-In . SVG Version: 6.00 Build 0)  -->
<svg version="1.1" id="图层_1" xmlns="http://www.w3.org/2000/svg" xmlns:xlink="http://www.w3.org/1999/xlink" x="0px" y="0px"
	 viewBox="0 0 206 206" style="enable-background:new 0 0 206 206;" xml:space="preserve">
<style type="text/css">
	.st0{fill:#FE970E;}
	.st1{fill:#FFFFFF;}
	.st2{fill:#F2F2F2;}
</style>
<g>
	<circle class="st0" cx="103" cy="103" r="100"/>
	<rect x="52.7" y="84.3" class="st1" width="98.9" height="6.9"/>
	<path class="st1" d="M82.1,77.7c2.2,0,4-1.8,4-4.1V62.8c0-2.3-1.8-4.1-4-4.1s-4,1.8-4,4.1v10.9C78.1,75.9,79.9,77.7,82.1,77.7
		L82.1,77.7z"/>
	<path class="st1" d="M112.4,96.7c-1.2-0.6-2.6-0.3-3.3,0.8L93,123.4l-9.5-11.1c-0.8-1-2.3-1.1-3.4-0.4c-1.1,0.8-1.3,2.2-0.6,3.2
		l11.8,17.3c0.5,0.7,1.2,1.1,2.1,1.1h0.1c0.9,0,1.6-0.5,2.1-1.3l17.8-32.4C114,98.8,113.6,97.3,112.4,96.7L112.4,96.7z"/>
	<path class="st1" d="M122.3,77.7c2.2,0,4-1.8,4-4.1V62.8c0-2.3-1.8-4.1-4-4.1s-4,1.8-4,4.1v10.9C118.3,75.9,120.1,77.7,122.3,77.7
		L122.3,77.7z"/>
	<path class="st1" d="M110.8,143.2H63.2c-4.4,0-6.1-1.6-6.1-6.1V78.7c0-4.4,1.6-6.1,6.1-6.1h78c4.4,0,6.1,1.6,6.1,6.1v27.9
		c2,1.2,3.8,2.7,5.4,4.4V78.7c0-6.3-5.1-11.4-11.4-11.4h-78c-6.3,0-11.4,5.1-11.4,11.4v58.5c0,6.3,5.1,11.4,11.4,11.4h52.1
		C113.6,147,112.1,145.2,110.8,143.2z"/>
	<path class="st1" d="M131.6,147.4"/>
	<g>
		<path class="st1" d="M115.7,141c-0.5,0-0.9-0.2-1.2-0.5c-0.5-0.6-0.7-2.1-0.1-2.7l12-10c0.5-0.5,1.3-0.5,1.9-0.1l5.9,4.2
			l10.4-10.1c0.6-0.6,1.8,0.1,2.4,0.7c0.6,0.6,1.4,2,0.8,2.6L135.6,137c-0.5,0.5-1.4,0.6-2,0.1l-6-4.3l-10.7,9
			C116.7,142,116.1,141,115.7,141L115.7,141z M115.7,141"/>
		<path class="st1" d="M149,120.1l-10.7,1.2l10.3,9.7L149,120.1z M149,120.1"/>
	</g>
	<path class="st2" d="M134.2,107c-12.7,0-23,10.3-23,23s10.3,23,23,23c12.7,0,23-10.3,23-23C157.2,117.3,146.9,107,134.2,107z
		 M134.2,149.3c-10.6,0-19.3-8.6-19.3-19.3c0-10.6,8.6-19.3,19.3-19.3c10.6,0,19.3,8.6,19.3,19.3
		C153.5,140.6,144.8,149.3,134.2,149.3z"/>
	<path class="st1" d="M134.2,110"/>
</g>
</svg>
