<?xml version="1.0" encoding="utf-8"?>
<!-- Generator: Adobe Illustrator 22.1.0, SVG Export Plug-In . SVG Version: 6.00 Build 0)  -->
<svg version="1.1" id="图层_1" xmlns="http://www.w3.org/2000/svg" xmlns:xlink="http://www.w3.org/1999/xlink" x="0px" y="0px"
	 viewBox="0 0 206 206" style="enable-background:new 0 0 206 206;" xml:space="preserve">
<style type="text/css">
	.st0{fill:#DD5A59;}
	.st1{fill:#FFFFFF;}
	.st2{fill:none;}
	.st3{fill:#5FB430;}
</style>
<circle class="st0" cx="-235.7" cy="115.3" r="100"/>
<path class="st1" d="M41,84.7"/>
<path class="st1" d="M-188.1,83.1"/>
<path class="st1" d="M-240.6,92.2"/>
<path class="st2" d="M-215.2,79.7c-0.7,0-1.4,0.1-2.1,0.2c-4,0.7-8.3,3.1-12.3,7.2c-0.3,0.3-0.7,0.5-1.1,0.5c-0.4,0-0.8-0.2-1.1-0.5
	c-4-4.2-8.2-6.6-12.3-7.2c-0.7-0.1-1.4-0.2-2.1-0.2c-3.4,0-7.1,1.7-8.7,3.6c-3.3,3.7-5.2,8-4.7,12.9c0.5,5.1,3.5,10,8,14.7
	c1.4,1.5,9.8,10.7,12.5,13.8c3.5,3.6,6.8,6.9,8.4,8.6c1.6-1.7,4.9-5,8.4-8.6c2.8-3,11.1-12.3,12.5-13.8c4.5-4.7,7.5-9.5,8-14.7
	c0.5-5-1.4-9.2-4.7-12.9C-208.1,81.5-211.8,79.7-215.2,79.7z"/>
<rect id="_x3C_切片_x3E__14_" x="-339" y="12" class="st2" width="206" height="206"/>
<g>
	<g>
		<path d="M-144.9,19.7c-1.7,0-3.6-0.5-5.4-1.4l-25.5-12.7l-25.6,12.7c-1.6,0.9-3.5,1.3-5.4,1.3c-2.5,0-4.9-0.8-6.8-2.2
			c-3.6-2.7-5.4-7.4-4.6-11.6l5.2-27.2L-233-40.2c-3.1-3.1-4.3-7.7-3.1-12l0-0.1c1.5-4.4,5.1-7.4,9.5-8l27.9-5.1l12.5-25.4
			c2-4,6.1-6.6,10.4-6.6c4.5,0,8.7,2.7,10.5,6.7l12.5,25.4l27.9,4.9c4.4,0.6,8.1,3.8,9.3,8.1c1.4,4.2,0.3,8.9-2.9,12l-0.1,0.1
			l-20,18.9l5.1,27.2c0.8,4.4-0.9,8.8-4.5,11.5C-140,18.8-142.4,19.7-144.9,19.7L-144.9,19.7z M-175.7-3.6l27.1,13.5
			c0.8,0.4,1.7,0.7,2.3,0.7c1,0,1.9-0.3,2.5-0.8l0.1-0.1c1.5-1.2,2.3-3,2-4.8l-5.4-29.3l21.5-20.3c1.3-1.3,1.8-3.3,1.2-5l-0.1-0.2
			c-0.5-1.7-1.9-3-3.7-3.2l-0.1,0l-29.8-5.2l-13.4-27.2c-0.7-1.5-2.4-2.6-4.2-2.6c-1.8,0-3.4,1.1-4.3,2.8l-13.3,27.1l-30,5.4
			c-1.8,0.2-3.2,1.4-3.9,3.3c-0.5,1.7,0.1,3.8,1.4,5.1l21.6,20.1l-5.7,29.3c-0.3,1.7,0.5,3.6,1.9,4.8c0.7,0.6,1.7,0.9,2.7,0.9
			c0.8,0,1.5-0.2,2.2-0.5l0.1-0.1L-175.7-3.6z M-175.7-3.6"/>
	</g>
</g>
<g>
	<path class="st1" d="M-253.7,114.1h27.2c9-4.9,15.2-14.4,15.2-25.3c0-15.9-12.9-28.7-28.7-28.7s-28.7,12.9-28.7,28.7
		C-268.9,99.8-262.7,109.3-253.7,114.1z M-240.1,67c12,0,21.8,9.7,21.8,21.8c0,12-9.7,21.8-21.8,21.8c-12,0-21.8-9.7-21.8-21.8
		C-261.9,76.8-252.1,67-240.1,67z"/>
	<path class="st1" d="M-227,151.9h-49.5c1.9-18.5,17.5-32.8,36.5-32.8c6.1,0,11.8,1.5,16.8,4.1c1.3-2,2.7-3.9,4.4-5.6
		c-6.3-3.5-13.5-5.5-21.2-5.5c-22.8,0-41.6,17.5-43.5,39.8h-0.3v7h59.8C-225.3,156.7-226.3,154.4-227,151.9z"/>
</g>
<rect x="-251.2" y="81.6" class="st2" width="88.2" height="151.4"/>
<g>
	<path class="st1" d="M-34.8,124.9c0,1.7,2.1,3.1,4.7,3.1c2.6,0,4.7-1.4,4.7-3.1c0-1.7-2.1-3.1-4.7-3.1
		C-32.7,121.8-34.8,123.2-34.8,124.9L-34.8,124.9z M-34.8,124.9"/>
	<path class="st1" d="M-33.7,88.9c-3.4,1.1-6,3.8-7,7.1c-2.1,7,1.7,13.5,8.1,14.4v14.4h5c0,0,0,0,0,0v-14.4c5.4-0.8,8.6-5.4,8.6-11
		C-18.9,92.1-26,86.4-33.7,88.9z M-31.7,102.8c-0.6-0.3-1.1-0.7-1.5-1.2c-1.3-2-0.6-4.4,1.2-5.4c1.2-0.7,2.6-0.7,3.8,0
		c1.2,0.7,1.9,1.9,1.9,3.3C-26.3,102-29,104-31.7,102.8z"/>
</g>
<path class="st1" d="M-254,67c-14.4,0-26,11.6-26,26c0,14.4,11.6,26,26,26s26-11.6,26-26C-228,78.6-239.6,67-254,67z M-254,114
	c-11.6,0-21-9.4-21-21c0-11.6,9.4-21,21-21s21,9.4,21,21C-233,104.6-242.4,114-254,114z"/>
<circle class="st3" cx="102.6" cy="103.3" r="100"/>
<g>
	<path class="st1" d="M55.3,123.6l23.6-20.8c0,0,2.8-2.3,5.6,0.8c2.8,3.1,9.9,11.5,9.9,11.5s1.2,2.4,4.2-0.3
		c2.9-2.7,23.9-22.3,23.9-22.3s2.6-2.5,6.5,1.4c3.9,3.9,20.2,22.3,20.2,22.3l1.2,0.8v9.5l-1.2,0.9l-0.6-2.8l-20.6-23.1
		c0,0-1.7-4.2-5.3-0.6c-3.6,3.6-23.4,21.7-23.4,21.7s-3.6,3.6-6.7,0c-3.1-3.6-9.6-10.7-9.6-10.7s-2.6-2.6-5.1,0
		c-2.5,2.6-21.6,19.2-21.6,19.2L55.3,123.6z"/>
	<path class="st1" d="M141.5,64.7H125v7.1h16.4c3.3,0,6,2.7,6,6v63.9c0,3.3-2.7,6-6,6H63.8c-3.3,0-6-2.7-6-6V77.8c0-3.3,2.7-6,6-6
		h16.4v-7.1H63.7c-7.2,0-13.1,5.9-13.1,13.1v63.7c0,7.3,5.9,13.1,13.1,13.1h77.8c7.2,0,13.1-5.9,13.1-13.1V77.8
		C154.6,70.6,148.7,64.7,141.5,64.7z"/>
	<g>
		<path class="st1" d="M106.5,78.3c0,2-1.6,3.7-3.7,3.7l0,0c-2,0-3.7-1.6-3.7-3.7V56.6c0-2,1.6-3.7,3.7-3.7l0,0c2,0,3.7,1.6,3.7,3.7
			V78.3z"/>
		<path class="st1" d="M96.3,62.5c-1.4,1.4-3.8,1.4-5.2,0l0,0c-1.4-1.4-1.4-3.8,0-5.2l8.4-8.4c1.4-1.4,3.8-1.4,5.2,0l0,0
			c1.4,1.4,1.4,3.8,0,5.2L96.3,62.5z"/>
		<path class="st1" d="M114,57.1c1.5,1.4,1.5,3.7,0.2,5.2l0,0c-1.4,1.5-3.7,1.5-5.2,0.2l-8.6-8.2c-1.5-1.4-1.5-3.7-0.1-5.2l0,0
			c1.4-1.5,3.7-1.5,5.2-0.1L114,57.1z"/>
	</g>
</g>
</svg>
