<?xml version="1.0" encoding="utf-8"?>
<!-- Generator: Adobe Illustrator 22.1.0, SVG Export Plug-In . SVG Version: 6.00 Build 0)  -->
<svg version="1.1" id="图层_1" xmlns="http://www.w3.org/2000/svg" xmlns:xlink="http://www.w3.org/1999/xlink" x="0px" y="0px"
	 viewBox="0 0 206 206" style="enable-background:new 0 0 206 206;" xml:space="preserve">
<style type="text/css">
	.st0{fill:#FE970E;}
	.st1{fill:#FFFFFF;}
</style>
<g>
	<circle class="st0" cx="103" cy="103" r="100"/>
	<g>
		<path class="st1" d="M55.7,123.3l23.6-20.8c0,0,2.8-2.3,5.6,0.8c2.8,3.1,9.9,11.5,9.9,11.5s1.2,2.4,4.2-0.3
			c2.9-2.7,23.9-22.3,23.9-22.3s2.6-2.5,6.5,1.4s20.2,22.3,20.2,22.3l1.2,0.8v9.5l-1.2,0.9l-0.6-2.8l-20.6-23.1c0,0-1.7-4.2-5.3-0.6
			c-3.6,3.6-23.4,21.7-23.4,21.7s-3.6,3.6-6.7,0s-9.6-10.7-9.6-10.7s-2.6-2.6-5.1,0s-21.6,19.2-21.6,19.2L55.7,123.3z"/>
		<path class="st1" d="M141.9,64.4h-16.5v7.1h16.4c3.3,0,6,2.7,6,6v63.9c0,3.3-2.7,6-6,6H64.2c-3.3,0-6-2.7-6-6V77.5
			c0-3.3,2.7-6,6-6h16.4v-7.1H64.1c-7.2,0-13.1,5.9-13.1,13.1v63.7c0,7.3,5.9,13.1,13.1,13.1h77.8c7.2,0,13.1-5.9,13.1-13.1V77.5
			C155,70.3,149.1,64.4,141.9,64.4z"/>
		<g>
			<path class="st1" d="M106.9,78c0,2-1.6,3.7-3.7,3.7l0,0c-2,0-3.7-1.6-3.7-3.7V56.3c0-2,1.6-3.7,3.7-3.7l0,0c2,0,3.7,1.6,3.7,3.7
				V78z"/>
			<path class="st1" d="M96.7,62.2c-1.4,1.4-3.8,1.4-5.2,0l0,0c-1.4-1.4-1.4-3.8,0-5.2l8.4-8.4c1.4-1.4,3.8-1.4,5.2,0l0,0
				c1.4,1.4,1.4,3.8,0,5.2L96.7,62.2z"/>
			<path class="st1" d="M114.4,56.8c1.5,1.4,1.5,3.7,0.2,5.2l0,0c-1.4,1.5-3.7,1.5-5.2,0.2l-8.6-8.2c-1.5-1.4-1.5-3.7-0.1-5.2l0,0
				c1.4-1.5,3.7-1.5,5.2-0.1L114.4,56.8z"/>
		</g>
	</g>
</g>
</svg>
