<?xml version="1.0" encoding="utf-8"?>
<!-- Generator: Adobe Illustrator 22.1.0, SVG Export Plug-In . SVG Version: 6.00 Build 0)  -->
<svg version="1.1" id="图层_1" xmlns="http://www.w3.org/2000/svg" xmlns:xlink="http://www.w3.org/1999/xlink" x="0px" y="0px"
	 viewBox="0 0 206 206" style="enable-background:new 0 0 206 206;" xml:space="preserve">
<style type="text/css">
	.st0{fill:#EF6B52;}
	.st1{fill:#FFFFFF;}
	.st2{opacity:0.65;fill:#FFFFFF;}
</style>
<g>
	<path class="st0" d="M203,103c0,55.2-44.8,100-100,100S3,158.2,3,103S47.8,3,103,3S203,47.8,203,103"/>
	<path class="st1" d="M64.5,122.4"/>
	<g>
		<path class="st1" d="M123.9,88.2c-3.2-11.4-15-18-26.3-14.8c-11.4,3.2-18,15-14.8,26.3c3.2,11.4,15,18,26.3,14.8
			C120.5,111.3,127.1,99.5,123.9,88.2z M107.5,108.6c-8.1,2.3-16.5-2.5-18.8-10.6c-2.3-8.1,2.5-16.5,10.6-18.8
			c8.1-2.3,16.5,2.5,18.8,10.6C120.3,97.9,115.6,106.4,107.5,108.6z"/>
		<path class="st1" d="M116,94.2c0,1.8-1.9,3.3-4.2,3.3l-17.3,0.1c-2.3,0-4.2-1.5-4.2-3.3l0,0c0-1.8,1.9-3.3,4.2-3.3l17.3-0.1
			C114.1,90.9,116,92.4,116,94.2L116,94.2z"/>
		<path class="st1" d="M103.1,106.8c-1.8,0-3.3-1.8-3.3-4.1l0-17.1c0-2.3,1.5-4.1,3.3-4.1l0,0c1.8,0,3.3,1.9,3.3,4.1l0,17.1
			C106.4,105,104.9,106.8,103.1,106.8L103.1,106.8z"/>
		<path class="st1" d="M151.4,153.9h-15.8h-5.8H75.9c-9.1,0-16.9-2.9-17-11.6v-0.5C59,133,67.1,130,76.1,130h59.7h7h4h5
			c1.7,0,2.3-1.8,2.3-3.4c0-0.1-0.1-0.7-0.2-1.1V76.2c0-10.6-8.3-19.2-18.4-19.2h-65c-10.2,0-18.4,8.6-18.4,19.2V142c0,0,0,0,0,0
			c0,0,0,0,0,0v1.4h0.1c0.7,9.5,8.8,17,18.8,17h58.4h17.2h4.3c1.7,0,3-1.3,3-3C154,155.8,153.1,153.9,151.4,153.9z M68,64.1h70.1
			c5.1,0,9.2,5.3,9.2,10.6v49c-0.2,0-0.4,0-0.6,0H71c-4.6,0-8.8,1.6-12.1,4.3V74.7C58.9,69.4,63,64.1,68,64.1z"/>
		<path class="st2" d="M147.5,144.5H69.9c-1.5,0-2.8-1.2-2.8-2.8l0,0c0-1.5,1.2-2.8,2.8-2.8h77.6c1.5,0,2.8,1.2,2.8,2.8l0,0
			C150.3,143.3,149,144.5,147.5,144.5z"/>
	</g>
</g>
</svg>
