<?xml version="1.0" encoding="utf-8"?>
<!-- Svg Vector Icons : http://www.sfont.cn -->
<!DOCTYPE svg PUBLIC "-//W3C//DTD SVG 1.1//EN" "http://www.w3.org/Graphics/SVG/1.1/DTD/svg11.dtd">
<svg version="1.1" xmlns="http://www.w3.org/2000/svg" xmlns:xlink="http://www.w3.org/1999/xlink" x="0px" y="0px" viewBox="0 0 1000 1000" enable-background="new 0 0 1000 1000" xml:space="preserve">
<metadata> Svg Vector Icons : http://www.sfont.cn </metadata>
<g><g><g><path d="M852.1,160.3c0,46.8-38.1,84.9-84.9,84.9h-46.3c-46.8,0-84.9-38.1-84.9-84.9v-25.1H364v25.1c0,46.8-38.1,84.9-84.9,84.9h-46.3c-46.8,0-84.9-38.1-84.9-84.9v-25.1H10v857.5h980V135.2H852.1V160.3L852.1,160.3z M912.8,919.4H87.2V333h825.7V919.4z"/><path d="M232.8,7.3c-25.6,0-46.3,20.7-46.3,46.3v106.7c0,25.6,20.7,46.3,46.3,46.3h46.3c25.6,0,46.3-20.7,46.3-46.3V53.6c0-25.6-20.7-46.3-46.3-46.3H232.8z"/><path d="M767.2,206.6c25.6,0,46.3-20.7,46.3-46.3V53.6c0-25.6-20.7-46.3-46.3-46.3h-46.3c-25.6,0-46.3,20.7-46.3,46.3v106.7c0,25.6,20.7,46.3,46.3,46.3L767.2,206.6L767.2,206.6z"/><path d="M237.6,497.9h37.6c17,0,30.9-13.8,30.9-30.9v-37.6c0-17-13.8-30.9-30.9-30.9h-37.6c-17,0-30.9,13.8-30.9,30.9V467C206.8,484.1,220.6,497.9,237.6,497.9z"/><path d="M485.6,497.9h37.6c17,0,30.9-13.8,30.9-30.9v-37.6c0-17-13.8-30.9-30.9-30.9h-37.6c-17,0-30.9,13.8-30.9,30.9V467C454.7,484.1,468.6,497.9,485.6,497.9z"/><path d="M733.3,497.9H771c17,0,30.9-13.8,30.9-30.9v-37.6c0-17-13.8-30.9-30.9-30.9h-37.6c-17,0-30.9,13.8-30.9,30.9V467C702.5,484.1,716.3,497.9,733.3,497.9z"/><path d="M237.6,676h37.6c17,0,30.9-13.8,30.9-30.9v-37.6c0-17-13.8-30.9-30.9-30.9h-37.6c-17,0-30.9,13.8-30.9,30.9v37.6C206.8,662.1,220.6,676,237.6,676z"/><path d="M485.6,676h37.6c17,0,30.9-13.8,30.9-30.9v-37.6c0-17-13.8-30.9-30.9-30.9h-37.6c-17,0-30.9,13.8-30.9,30.9v37.6C454.7,662.1,468.6,676,485.6,676z"/><path d="M733.3,676H771c17,0,30.9-13.8,30.9-30.9v-37.6c0-17-13.8-30.9-30.9-30.9h-37.6c-17,0-30.9,13.8-30.9,30.9v37.6C702.5,662.1,716.3,676,733.3,676z"/><path d="M237.6,853.9h37.6c17,0,30.9-13.8,30.9-30.9v-37.6c0-17-13.8-30.9-30.9-30.9h-37.6c-17,0-30.9,13.8-30.9,30.9V823C206.8,840.1,220.6,853.9,237.6,853.9z"/><path d="M485.6,853.9h37.6c17,0,30.9-13.8,30.9-30.9v-37.6c0-17-13.8-30.9-30.9-30.9h-37.6c-17,0-30.9,13.8-30.9,30.9V823C454.7,840.1,468.6,853.9,485.6,853.9z"/><path d="M733.3,853.9H771c17,0,30.9-13.8,30.9-30.9v-37.6c0-17-13.8-30.9-30.9-30.9h-37.6c-17,0-30.9,13.8-30.9,30.9V823C702.5,840.1,716.3,853.9,733.3,853.9z"/></g></g><g></g><g></g><g></g><g></g><g></g><g></g><g></g><g></g><g></g><g></g><g></g><g></g><g></g><g></g><g></g></g>
</svg>