<?xml version="1.0" encoding="utf-8"?>
<!-- Generator: Adobe Illustrator 22.1.0, SVG Export Plug-In . SVG Version: 6.00 Build 0)  -->
<svg version="1.1" id="图层_1" xmlns="http://www.w3.org/2000/svg" xmlns:xlink="http://www.w3.org/1999/xlink" x="0px" y="0px"
	 viewBox="0 0 206 206" style="enable-background:new 0 0 206 206;" xml:space="preserve">
<style type="text/css">
	.st0{fill:#FFFFFF;}
	.st1{fill:#FE970E;}
</style>
<g>
	<path class="st0" d="M39.9,83.4"/>
	<circle class="st1" cx="103" cy="103" r="100"/>
	<path class="st0" d="M164.6,102.8c-2.2-14.6-12.9-26.4-27.9-33c-1.4-0.6-3.2,0-3.7,1.5c-0.2,0.6-0.3,1.2-0.4,1.8
		c-0.1,1.2,0.6,2.2,1.6,2.7c12.7,5.8,22,16,23.9,28.1c3.5,22.2-18.6,44.5-48.8,48.9c-30.2,4.3-57.9-10.7-61.4-32.9
		c-3.4-22.2,18.6-44.1,48.7-48.4c0.1,0,0.1,0,0.2,0c0.5-0.6,1-1.3,1.6-2.1c1.5-2-0.1-4.8-2.6-4.5l0,0c-34,5.1-58.4,30.3-54.4,56.3
		c3.9,26,34.7,43,68.7,37.9C144.1,154,168.5,128.8,164.6,102.8z"/>
	<g>
		<path class="st0" d="M129.3,92.2c-3-4.7-3.8-10.5-2.1-15.8l0.3-0.9c0.5-1.6,0.4-3.3-0.4-4.7c-0.8-1.5-2-2.5-3.6-3.1l-11.7-3.9
			c-1.6-0.5-3.3-0.4-4.7,0.4c-1.5,0.8-2.5,2-3.1,3.6l-0.3,0.9c-1.6,5.1-5.5,9.3-10.6,11.2c-8.3,3.2-14.8,10-17.6,18.5
			c-2.5,7.9-1.7,16.4,2.2,23.6c4,7.3,10.8,12.5,18.7,14.5c11.8,3,24.2-1.5,31.4-11.2C135.1,115.7,135.7,102.5,129.3,92.2z
			 M125.8,116.1c-4.7,11.8-17.9,17.7-29.8,13.4c-11.9-4.4-18.3-17.3-14.3-29.5c2.2-6.7,7.2-12.1,13.8-14.6
			c5.7-2.2,10.1-6.9,11.9-12.7l0.3-0.9c0.2-0.5,0.5-0.9,1-1.1s1-0.3,1.5-0.1l10.8,3.5c0.5,0.2,0.9,0.5,1.1,1c0.2,0.5,0.3,1,0.1,1.5
			l-0.3,0.8c-1.6,5.2-1.2,11,1.4,15.9c0.3,0.6,0.6,1.2,1,1.6C127.9,101.3,128.6,109.1,125.8,116.1z"/>
		<path class="st0" d="M111.6,60l-1.7,5.1l4.2,1.4l2-6.3c0.3-0.9-0.1-1.8-0.9-2.2c-1.6-0.8-2.3-2.6-1.9-4.3c0.4-1.7,1.9-2.9,3.7-2.9
			c1.8,0,3.3,1.2,3.7,2.8c0.2,0.6,0.7,1.2,1.3,1.4s1.3,0.1,1.7-0.3c1.4-1.1,3.3-1.1,4.7,0s1.8,2.9,1.2,4.6c-0.7,1.6-2.4,2.5-4.1,2.2
			c-0.9-0.1-1.8,0.4-2.1,1.3l-2,6.2l4.2,1.4l1.6-4.9c2.7-0.2,5.2-1.7,6.6-4.2c1.4-2.4,1.5-5.3,0.2-7.8c-1.8-3.8-6.3-5.5-10.2-4.1
			c-1.7-2.7-4.9-4.2-8.1-3.7s-5.8,2.8-6.7,5.9C108.1,54.6,109.1,57.9,111.6,60z"/>
	</g>
	<g>
		<path class="st0" d="M97.1,106c0-3,0.9-5.9,2.5-8.4c0.8-1.3,0.3-3-1.1-3.8l0,0c-1.4-0.7-3-0.2-3.9,1c-2.2,3.3-3.5,7.1-3.5,11.2
			c0,3.3,0.8,6.4,2.4,9.2c0.7,1.3,2.4,2.1,3.8,1.5c1.6-0.6,2.3-2.3,1.6-3.7C97.7,110.8,97.1,108.5,97.1,106z"/>
	</g>
	<circle class="st0" cx="103.5" cy="121.2" r="3.9"/>
</g>
</svg>
