<?xml version="1.0" encoding="utf-8"?>
<!-- Generator: Adobe Illustrator 22.1.0, SVG Export Plug-In . SVG Version: 6.00 Build 0)  -->
<svg version="1.1" id="图层_1" xmlns="http://www.w3.org/2000/svg" xmlns:xlink="http://www.w3.org/1999/xlink" x="0px" y="0px"
	 viewBox="0 0 206 206" style="enable-background:new 0 0 206 206;" xml:space="preserve">
<style type="text/css">
	.st0{fill:#EF6B52;}
	.st1{fill:none;}
	.st2{fill:#FFFFFF;}
	.st3{opacity:0.36;fill:#FFFFFF;}
</style>
<g>
	<circle class="st0" cx="103" cy="103" r="100"/>
	<path d="M117.1,116.1"/>
	<path class="st1" d="M95.6,149.2h-4v-4.5c-2.1,0.7-4.1,1.2-6,1.6v7.7l7,9.4H122l3.5-24.8l-10.5-4.3c-6.7,3.7-13.3,6.9-19.4,9.2
		V149.2z"/>
	<path class="st1" d="M88.6,138.2c0.9-0.3,1.9-0.7,3-1.1v-26.1c0-4.4,3.6-8,8-8c4.4,0,8,3.6,8,8l0,15.7l3.1,1.3
		c19.8-10.8,41.1-26.2,41.1-33.3c0-12.1-59.9-50.5-73.8-42.3c-13.9,8.2-9.7,83.4,0.9,87.1c0.8,0.3,1.8,0.3,3.1,0.2l4-4L88.6,138.2z"
		/>
	<path class="st1" d="M99.6,107.1c-2.2,0-4,1.8-4,4v24.5c2.5-1.1,5.2-2.3,8-3.7l0-20.7l4,0h-4C103.6,108.9,101.8,107.1,99.6,107.1z"
		/>
	<g>
		<g>
			<path class="st2" d="M102.2,114c2.2,0,4,1.8,4,4h4c0-4.4-3.6-8-8-8c-4.4,0-8,3.6-8,8h4C98.2,115.8,100,114,102.2,114z"/>
			<path class="st2" d="M106.2,138.7c0.8-0.4,1.7-0.8,2.5-1.3l-1.3-0.5l1.5-3.7l1.3,0.5l0-15.7l-4,0L106.2,138.7z"/>
			<path class="st2" d="M98.2,118h-4v26.1c1.3-0.5,2.6-1,4-1.6V118z"/>
			<path class="st2" d="M94.2,156.1h4v-5.9c-1.4,0.5-2.7,1-4,1.4V156.1z"/>
			<path class="st2" d="M106.2,138.7l0,5.4l4,0l0-6l-1.5-0.6C107.9,137.9,107.1,138.3,106.2,138.7z"/>
			<path class="st2" d="M98.2,150.2v-7.7c-1.4,0.6-2.7,1.1-4,1.6v7.5C95.5,151.2,96.8,150.7,98.2,150.2z"/>
			<path class="st2" d="M88.8,142.7l-4,4c1.8-0.2,4-0.7,6.5-1.6L88.8,142.7z"/>
			<path class="st2" d="M128.1,145.4l-3.5,24.8H95.2l-7-9.4v-7.7c-1.4,0.3-2.8,0.5-4,0.5v8.5l9,12h34.9l4.4-31.4l-10.5-4.3
				c-1.5,0.9-2.9,1.7-4.4,2.5L128.1,145.4z"/>
			<path class="st2" d="M110.3,136.7l0,1.4l7.3,3c1.5-0.8,2.9-1.7,4.4-2.5l-8.6-3.5C112.3,135.6,111.3,136.1,110.3,136.7z"/>
			<path class="st2" d="M88.2,148.9l3.4-3.4l-0.4-0.4c-2.5,0.8-4.7,1.4-6.5,1.6l-0.6,0.6v6.4c1.3-0.1,2.6-0.3,4-0.5V148.9z"/>
			<path class="st2" d="M109,133.2l-1.5,3.7l1.3,0.5c0.5-0.3,1-0.5,1.5-0.8l0-2.9L109,133.2z"/>
		</g>
		<g>
			<path class="st2" d="M110.3,136.7c1-0.5,2.1-1.1,3.1-1.7l-3.1-1.3L110.3,136.7z"/>
			<path class="st2" d="M110.3,138.1l0-1.4c-0.5,0.3-1,0.5-1.5,0.8L110.3,138.1z"/>
		</g>
	</g>
	<path class="st2" d="M73.9,48.4c-14.2,14.2-12.9,86.7,0,99.6c1.5,1.5,3.9,2.2,6.8,2.2v-7c-0.4,0-0.7-0.1-1-0.2
		c-10.6-3.7-14.8-78.9-0.9-87.1c13.9-8.2,73.8,30.2,73.8,42.3c0,6.8-19.6,21.2-38.7,31.9l8.5,3.5c19.7-12,37.7-27.4,37.7-35.4
		C160.2,82.1,88.1,34.2,73.9,48.4z"/>
	<g>
		<g>
			<path class="st2" d="M87.2,78.2c0-2.2,1.8-4,4-4v-4c-4.4,0-8,3.6-8,8c0,4.4,3.6,8,8,8v-4C89,82.2,87.2,80.4,87.2,78.2z"/>
			<path class="st2" d="M111.9,74.2c-0.4-0.8-0.8-1.7-1.3-2.5l-0.5,1.3l-3.7-1.5l0.5-1.3l-15.7,0l0,4L111.9,74.2z"/>
			<path class="st2" d="M91.2,82.2v4h26.1c-0.5-1.3-1-2.6-1.6-4H91.2z"/>
		</g>
		<path class="st2" d="M86.4,80.7l-1-3.5v-0.3c-1.3,0-2.3,1-2.3,2.3v39.6c0,1.3,1,2.3,2.3,2.3c1.3,0,2.3-1,2.3-2.3V80.9L86.4,80.7z"
			/>
		<path class="st2" d="M112.6,82.2c0,1.2-1,2.2-2.2,2.2l0,0c-1.2,0-2.2-1-2.2-2.2v-9.8c0-1.2,1-2.2,2.2-2.2l0,0c1.2,0,2.2,1,2.2,2.2
			V82.2z"/>
		<path class="st2" d="M111.9,72.2c0,1.1-0.9,2-2,2h-3.7c-1.1,0-2-0.9-2-2l0,0c0-1.1,0.9-2,2-2h3.7C111,70.2,111.9,71.1,111.9,72.2
			L111.9,72.2z"/>
		<path class="st2" d="M121.2,118.7c0,1.3-1.1,2.4-2.4,2.4l0,0c-1.3,0-2.4-1.1-2.4-2.4v-34c0-1.3,1.1-2.4,2.4-2.4l0,0
			c1.3,0,2.4,1.1,2.4,2.4V118.7z"/>
		<path class="st2" d="M120.8,84.2c0,1.1-0.9,2-2,2h-3.2c-1.1,0-2-0.9-2-2l0,0c0-1.1,0.9-2,2-2h3.2
			C119.9,82.2,120.8,83.1,120.8,84.2L120.8,84.2z"/>
		<path class="st2" d="M121.2,118.9c0,1.2-1,2.2-2.2,2.2H85.3c-1.2,0-2.2-1-2.2-2.2l0,0c0-1.2,1-2.2,2.2-2.2h33.8
			C120.3,116.8,121.2,117.7,121.2,118.9L121.2,118.9z"/>
	</g>
	<path class="st3" d="M112.6,92.4c0,1.6-1.3,2.8-2.8,2.8H94c-1.6,0-2.8-1.3-2.8-2.8l0,0c0-1.6,1.3-2.8,2.8-2.8h15.8
		C111.3,89.6,112.6,90.8,112.6,92.4L112.6,92.4z"/>
	<path class="st3" d="M110.4,103.3c0,1.6-1.3,3-3,3H94c-1.6,0-3-1.3-3-3l0,0c0-1.6,1.3-3,3-3h13.5
		C109.1,100.3,110.4,101.6,110.4,103.3L110.4,103.3z"/>
</g>
</svg>
