<?xml version="1.0" encoding="utf-8"?>
<!-- Generator: Adobe Illustrator 22.1.0, SVG Export Plug-In . SVG Version: 6.00 Build 0)  -->
<svg version="1.1" id="图层_1" xmlns="http://www.w3.org/2000/svg" xmlns:xlink="http://www.w3.org/1999/xlink" x="0px" y="0px"
	 viewBox="0 0 206 206" style="enable-background:new 0 0 206 206;" xml:space="preserve">
<style type="text/css">
	.st0{fill:#EF6B52;}
	.st1{fill:#FFFFFF;}
</style>
<g>
	<path class="st0" d="M3,103C3,47.8,47.8,3,103,3c55.2,0,100,44.8,100,100c0,55.2-44.8,100-100,100C47.8,203,3,158.2,3,103"/>
	<path class="st1" d="M117.7,143.6H72.2c-1.8,0-3.3-1.5-3.3-3.3V65.4c0-1.6,1.3-3,3-3h63c1.2,0,2.2,1,2.2,2.2v57.7
		c2.1,3.7,6.1,2.8,6.9-0.3V60.9c0-3.1-2.5-5.7-5.7-5.7H67.7c-3.1,0-5.7,2.5-5.7,5.7v84.2c0,3.1,2.5,5.7,5.7,5.7h51
		C122.4,148.2,122.8,145.6,117.7,143.6z"/>
	<g>
		<path class="st1" d="M127.1,93.2c-0.9-0.9-2.2-1.5-3.5-1.5c-1.3,0-2.6,0.5-3.5,1.5l-21.3,21.3c-0.1,0.1-0.2,0.2-0.2,0.3l-3.3,9.2
			c-0.1,0.3,0,0.6,0.2,0.9c0.2,0.2,0.4,0.2,0.6,0.2c0.1,0,0.2,0,0.3,0l9.2-3.3c0.1,0,0.2-0.1,0.3-0.2l21.3-21.3
			c0.9-0.9,1.5-2.2,1.5-3.5C128.6,95.4,128.1,94.1,127.1,93.2L127.1,93.2z M104,120l-5.8,2.1l2.1-5.8l18.5-18.5l3.7,3.7L104,120z
			 M125.9,99l-1.5,1.5l-4.7-4.7l1.5-1.5c0.6-0.6,1.5-1,2.3-1s1.7,0.3,2.3,1c0.6,0.6,1,1.5,1,2.3S126.6,98.4,125.9,99L125.9,99z
			 M125.9,99"/>
	</g>
	<rect x="102" y="114" transform="matrix(0.6788 -0.7343 0.7343 0.6788 -53.1055 113.327)" class="st1" width="2.1" height="6.7"/>
	<path class="st1" d="M97.7,123.3c0,1-0.8,1.8-1.8,1.8H78.2c-1,0-1.8-0.8-1.8-1.8l0,0c0-1,0.8-1.8,1.8-1.8h17.8
		C96.9,121.6,97.7,122.4,97.7,123.3L97.7,123.3z"/>
	<g>
		<path class="st1" d="M100.6,90l-11.5,29h-7l11.5-26.5h-15V87h22.1V90z"/>
	</g>
	<g>
		<path class="st1" d="M142.2,149.9c0,2.1-1.7,3.8-3.8,3.8l0,0c-2.1,0-3.8-1.7-3.8-3.8v-16.4c0-2.1,1.7-3.8,3.8-3.8l0,0
			c2.1,0,3.8,1.7,3.8,3.8V149.9z"/>
		<path class="st1" d="M130.2,146.3c-2.1,0-3.8-1.7-3.8-3.8l0,0c0-2.1,1.7-3.8,3.8-3.8h16.4c2.1,0,3.8,1.7,3.8,3.8l0,0
			c0,2.1-1.7,3.8-3.8,3.8H130.2z"/>
	</g>
</g>
</svg>
