<?xml version="1.0" standalone="no"?><!DOCTYPE svg PUBLIC "-//W3C//DTD SVG 1.1//EN" "http://www.w3.org/Graphics/SVG/1.1/DTD/svg11.dtd"><svg t="1554967306678" class="icon" style="" viewBox="0 0 1024 1024" version="1.1" xmlns="http://www.w3.org/2000/svg" p-id="1018" xmlns:xlink="http://www.w3.org/1999/xlink" width="128" height="128"><defs><style type="text/css"></style></defs><path d="M512 983.823059c55.235765 0 100.412235-45.176471 100.412235-100.352H411.587765c0 55.175529 45.176471 100.352 100.412235 100.352zM813.176471 682.646588V431.706353c0-154.142118-81.799529-283.105882-225.882353-317.259294v-34.153412C587.294118 38.671059 553.682824 4.999529 512 4.999529s-75.294118 33.671529-75.294118 75.294118V114.447059C293.165176 148.600471 210.823529 277.082353 210.823529 431.706353v250.940235L110.411294 783.058824v50.176h803.177412V783.058824L813.176471 682.646588z m-100.412236 50.236236H311.235765v-301.176471c0-124.506353 75.776-225.882353 200.764235-225.882353s200.764235 101.376 200.764235 225.882353v301.176471z" p-id="1019" fill="#d81e06"></path></svg>