<?xml version="1.0" standalone="no"?><!DOCTYPE svg PUBLIC "-//W3C//DTD SVG 1.1//EN" "http://www.w3.org/Graphics/SVG/1.1/DTD/svg11.dtd"><svg t="1542766313626" class="icon" style="" viewBox="0 0 1024 1024" version="1.1" xmlns="http://www.w3.org/2000/svg" p-id="1099" xmlns:xlink="http://www.w3.org/1999/xlink" width="200" height="200"><defs><style type="text/css"></style></defs><path d="M733.866667 921.6H290.133333c-37.546667 0-68.266667-29.013333-68.266666-66.56V341.333333c0-18.773333 15.36-34.133333 34.133333-34.133333s34.133333 15.36 34.133333 34.133333v512h443.733334V341.333333c0-18.773333 15.36-34.133333 34.133333-34.133333s34.133333 15.36 34.133333 34.133333v513.706667c0 35.84-30.72 66.56-68.266666 66.56z" fill="#3793DF" p-id="1100"></path><path d="M512 256c-18.773333 0-34.133333-15.36-34.133333-34.133333V153.6c0-18.773333 15.36-34.133333 34.133333-34.133333s34.133333 15.36 34.133333 34.133333v68.266667c0 18.773333-15.36 34.133333-34.133333 34.133333zM375.466667 853.333333c-18.773333 0-34.133333-15.36-34.133334-34.133333V409.6c0-18.773333 15.36-34.133333 34.133334-34.133333s34.133333 15.36 34.133333 34.133333v409.6c0 18.773333-15.36 34.133333-34.133333 34.133333zM512 853.333333c-18.773333 0-34.133333-15.36-34.133333-34.133333V409.6c0-18.773333 15.36-34.133333 34.133333-34.133333s34.133333 15.36 34.133333 34.133333v409.6c0 18.773333-15.36 34.133333-34.133333 34.133333zM648.533333 853.333333c-18.773333 0-34.133333-15.36-34.133333-34.133333V409.6c0-18.773333 15.36-34.133333 34.133333-34.133333s34.133333 15.36 34.133334 34.133333v409.6c0 18.773333-15.36 34.133333-34.133334 34.133333z" fill="#EB4AF4" p-id="1101"></path><path d="M819.2 273.066667H204.8c-18.773333 0-34.133333-15.36-34.133333-34.133334s15.36-34.133333 34.133333-34.133333h614.4c18.773333 0 34.133333 15.36 34.133333 34.133333s-15.36 34.133333-34.133333 34.133334z" fill="#3793DF" p-id="1102"></path></svg>