<?xml version="1.0" encoding="utf-8"?>
<!-- Svg Vector Icons : http://www.sfont.cn -->
<!DOCTYPE svg PUBLIC "-//W3C//DTD SVG 1.1//EN" "http://www.w3.org/Graphics/SVG/1.1/DTD/svg11.dtd">
<svg version="1.1" xmlns="http://www.w3.org/2000/svg" xmlns:xlink="http://www.w3.org/1999/xlink" x="0px" y="0px" viewBox="0 0 1000 1000" enable-background="new 0 0 1000 1000" xml:space="preserve">
<metadata> Svg Vector Icons : http://www.sfont.cn </metadata>
<g><path d="M836.2,316.2v551.3c0,67.7-54.7,122.5-122.2,122.5H286.1c-67.5,0-122.2-54.8-122.2-122.5V316.2c-33.8,0-61.1-27.4-61.1-61.2v-61.2c0-33.9,27.4-61.3,61.1-61.3h183.4V71.2c0-33.8,27.4-61.2,61.1-61.2h183.4c33.8,0,61.1,27.4,61.1,61.2v61.3h183.4c33.8,0,61.1,27.4,61.1,61.3V255C897.3,288.9,869.9,316.2,836.2,316.2z M224.9,316.2v551.3c0,33.8,27.4,61.3,61.1,61.3h427.9c33.7,0,61.1-27.4,61.1-61.3V316.2H224.9z M408.3,132.5v-30.6c0-16.9,13.7-30.6,30.6-30.6h122.2c16.9,0,30.6,13.7,30.6,30.6v30.6H408.3z M805.6,193.8H194.4c-16.9,0-30.6,13.7-30.6,30.6c0,16.9,13.7,30.6,30.6,30.6h611.2c16.9,0,30.6-13.7,30.6-30.6C836.2,207.5,822.5,193.8,805.6,193.8z M347.2,438.8c16.9,0,30.6,13.7,30.6,30.6v367.5c0,16.9-13.7,30.6-30.6,30.6c-16.9,0-30.6-13.7-30.6-30.6V469.4C316.6,452.5,330.3,438.8,347.2,438.8z M500,438.8c16.9,0,30.6,13.7,30.6,30.6v367.5c0,16.9-13.7,30.6-30.6,30.6c-16.9,0-30.6-13.7-30.6-30.6V469.4C469.4,452.5,483.1,438.8,500,438.8z M652.8,438.8c16.9,0,30.6,13.7,30.6,30.6v367.5c0,16.9-13.7,30.6-30.6,30.6c-16.9,0-30.6-13.7-30.6-30.6l0-367.5C622.2,452.5,635.9,438.8,652.8,438.8z"/></g>
</svg>