<?xml version="1.0" encoding="utf-8"?>
<!-- Generator: Adobe Illustrator 16.0.0, SVG Export Plug-In . SVG Version: 6.00 Build 0)  -->
<!DOCTYPE svg PUBLIC "-//W3C//DTD SVG 1.1//EN" "http://www.w3.org/Graphics/SVG/1.1/DTD/svg11.dtd">
<svg version="1.1" id="图层_1" xmlns="http://www.w3.org/2000/svg" xmlns:xlink="http://www.w3.org/1999/xlink" x="0px" y="0px"
	 width="85.039px" height="85.039px" viewBox="0 0 85.039 85.039" enable-background="new 0 0 85.039 85.039" xml:space="preserve">
<g>
	<circle fill="#EC8235" cx="42.52" cy="42.155" r="33.833"/>
	<path fill="#FFFFFF" d="M41.164,39.337c0.123,0.174,0.174,0.393,0.138,0.602c-0.089,0.495-0.126,0.999-0.11,1.501
		c-0.045,0.397-0.375,0.698-0.772,0.714c-0.398,0.014-0.747-0.269-0.817-0.657c-0.019-0.614,0.027-1.229,0.131-1.836
		c0.038-0.21,0.156-0.396,0.33-0.519c0.174-0.124,0.39-0.171,0.601-0.136C40.867,39.048,41.046,39.167,41.164,39.337L41.164,39.337z
		"/>
	<path fill="#FFFFFF" d="M45.322,48.25c0.212,0.293,0.201,0.695-0.027,0.975c-0.23,0.283-0.619,0.377-0.951,0.229
		c-0.131-0.057-3.332-1.514-4.715-4.803c-0.171-0.408,0.021-0.881,0.43-1.051c0.41-0.174,0.881,0.018,1.054,0.428
		c1.127,2.689,3.859,3.949,3.873,3.967C45.116,48.051,45.234,48.135,45.322,48.25L45.322,48.25z"/>
	<path fill="#FFFFFF" d="M56.086,37.862c-1.039-1.908-1.186-4.177-0.396-6.199l0.141-0.334c0.242-0.594,0.235-1.258-0.017-1.848
		c-0.255-0.593-0.733-1.054-1.331-1.285l-4.468-1.806c-0.593-0.239-1.257-0.231-1.847,0.017c-0.588,0.25-1.053,0.726-1.293,1.315
		l-0.135,0.343c-0.772,1.965-2.391,3.473-4.402,4.112c-3.342,1.029-6.042,3.517-7.345,6.763c-1.202,2.987-1.116,6.335,0.237,9.257
		c1.354,2.92,3.857,5.148,6.913,6.158c4.511,1.48,9.468,0.08,12.533-3.547C57.741,47.184,58.298,42.06,56.086,37.862z
		 M54.095,47.082c-2.146,4.473-7.454,6.436-11.994,4.434c-4.539-2.004-6.668-7.248-4.81-11.848c1.028-2.561,3.159-4.521,5.795-5.338
		c2.269-0.713,4.093-2.412,4.967-4.623l0.124-0.314c0.071-0.178,0.214-0.319,0.394-0.397c0.18-0.075,0.383-0.078,0.563-0.006
		l4.088,1.653c0.181,0.072,0.325,0.218,0.401,0.396c0.076,0.18,0.078,0.383,0.006,0.563l-0.125,0.307
		c-0.793,2.01-0.754,4.254,0.106,6.232c0.097,0.229,0.204,0.453,0.32,0.67C55.305,41.38,55.365,44.457,54.095,47.082z"/>
	<path fill="#FFFFFF" d="M50.033,24.839l-0.797,1.955l1.598,0.633l0.972-2.391c0.135-0.328,0.019-0.713-0.281-0.908
		c-0.579-0.354-0.84-1.063-0.636-1.713c0.204-0.648,0.822-1.074,1.501-1.039c0.679,0.037,1.247,0.531,1.379,1.197
		c0.048,0.246,0.217,0.451,0.449,0.543c0.231,0.096,0.495,0.068,0.7-0.074c0.563-0.385,1.314-0.34,1.826,0.109
		c0.511,0.451,0.654,1.189,0.345,1.797c-0.31,0.604-0.992,0.922-1.655,0.775c-0.354-0.08-0.713,0.106-0.85,0.442l-0.973,2.361
		l1.6,0.637l0.772-1.896c1.079,0.002,2.086-0.537,2.684-1.437c0.596-0.896,0.703-2.022,0.289-3.021
		c-0.635-1.514-2.305-2.311-3.878-1.846c-0.611-1.103-1.813-1.746-3.072-1.646c-1.258,0.104-2.34,0.933-2.766,2.121
		C48.813,22.634,49.125,23.964,50.033,24.839z"/>
	<path fill="#FFFFFF" d="M57.173,29.875c-0.396,1.004-0.74,2.285-0.626,3.529c0.018,0.055,0.037,0.119,0.055,0.17
		c3.862,2.672,6.297,6.494,6.297,10.754c0,8.076-8.703,14.625-19.438,14.625s-19.438-6.549-19.438-14.625
		c0-8.079,8.703-14.625,19.438-14.625c0.229,0,0.452,0.02,0.678,0.025c1.126-1.109,2.016-3.182,2.016-3.182
		s-1.713-0.115-2.589-0.115c-12.816,0-23.207,8.092-23.207,18.075c0,9.979,10.391,18.068,23.207,18.068
		c12.815,0,23.207-8.092,23.207-18.068C66.773,38.485,62.987,33.16,57.173,29.875z"/>
</g>
</svg>
