<?xml version="1.0" encoding="utf-8"?>
<!-- Generator: Adobe Illustrator 22.1.0, SVG Export Plug-In . SVG Version: 6.00 Build 0)  -->
<svg version="1.1" id="图层_1" xmlns="http://www.w3.org/2000/svg" xmlns:xlink="http://www.w3.org/1999/xlink" x="0px" y="0px"
	 viewBox="0 0 206 206" style="enable-background:new 0 0 206 206;" xml:space="preserve">
<style type="text/css">
	.st0{fill:#47BEE6;}
	.st1{fill:#FFFFFF;}
</style>
<circle class="st0" cx="103.6" cy="104.3" r="100"/>
<path d="M117.6,120.7"/>
<path class="st1" d="M101.5,138L101.5,138c-1.9,0-3.5-1.6-3.5-3.5v-36c0-1.9,1.6-3.5,3.5-3.5l0,0c1.9,0,3.5,1.6,3.5,3.5v36
	C105,136.4,103.4,138,101.5,138z"/>
<g>
	<path class="st1" d="M102.5,55.7l51.4,51.4c0.6,0.6,1.4,1,2.3,1l0,0c2.9,0,4.3-3.5,2.3-5.5l-51.9-51.9c-2.3-2.3-5.9-2.3-8.2,0
		l-51.9,51.9c-2,2-0.6,5.5,2.3,5.5l0,0c0.9,0,1.7-0.3,2.3-1L102.5,55.7z"/>
	<path class="st1" d="M144,95l-5.3-2.9l0.1,0.1v54.5H66.4V92.2l0.1-0.1L63,93l-3.5,5.5v49.7c0,2.6,2.1,4.8,4.8,4.8H141
		c2.6,0,4.8-2.1,4.8-4.8V98.5L144,95z"/>
</g>
</svg>
