<?xml version="1.0" encoding="utf-8"?>
<!-- Generator: Adobe Illustrator 22.1.0, SVG Export Plug-In . SVG Version: 6.00 Build 0)  -->
<svg version="1.1" id="图层_1" xmlns="http://www.w3.org/2000/svg" xmlns:xlink="http://www.w3.org/1999/xlink" x="0px" y="0px"
	 viewBox="0 0 206 206" style="enable-background:new 0 0 206 206;" xml:space="preserve">
<style type="text/css">
	.st0{fill:#00D3BC;}
	.st1{fill:#FFFFFF;}
	.st2{fill:none;}
</style>
<g>
	<circle class="st0" cx="103.6" cy="103.3" r="100"/>
	<path d="M117.6,119.7"/>
	<g>
		<path class="st1" d="M101.6,114h-0.3c-1.9,0-3.4-1.5-3.4-3.4V95.4c0-1.9,1.5-3.4,3.4-3.4h0.3c1.9,0,3.4,1.5,3.4,3.4v15.3
			C105,112.5,103.5,114,101.6,114z"/>
		<path class="st1" d="M133,107c-7.2,0-13,5.8-13,13s5.8,13,13,13s13-5.8,13-13S140.2,107,133,107z M133,127c-3.9,0-7-3.1-7-7
			s3.1-7,7-7s7,3.1,7,7S136.9,127,133,127z"/>
		<path class="st1" d="M122.6,152c-1-1.8-1.6-3.8-1.6-6c0-6.6,5.4-12,12-12c6.6,0,12,5.4,12,12c0,2.2-0.6,4.2-1.6,6h6.6
			c0.7-1.9,1-3.9,1-6c0-9.9-8.1-18-18-18s-18,8.1-18,18c0,2.1,0.4,4.1,1,6H122.6z"/>
		<path class="st1" d="M158.5,101.5l-51.9-51.9c-2.3-2.3-5.9-2.3-8.2,0l-51.8,51.8c-2.2,2.2-1.6,4.9,1.5,5.6c1.1,0.2,2.2-0.1,3-0.9
			l8.3-8.3v49.5c0,2.6,2.1,4.8,4.8,4.8H114v-3.4c0-1.5-1.3-2.8-2.8-2.8H66.4V91.2l0.1-0.1l-0.6,0.1l36.6-36.6l36.7,36.7l-0.5-0.3
			l0.1,0.1v11.3c0,1.9,1.5,3.5,3.5,3.5l0,0c1.9,0,3.5-1.5,3.5-3.5v-4.6l8,8c0.7,0.7,1.5,1.1,2.5,1.1
			C159.1,107,160.5,103.5,158.5,101.5z"/>
	</g>
	<rect x="114" y="151" class="st1" width="31" height="1"/>
	<rect id="_x3C_切片_x3E__7_" class="st2" width="206" height="206"/>
</g>
</svg>
