<?xml version="1.0" encoding="utf-8"?>
<!-- Generator: Adobe Illustrator 22.1.0, SVG Export Plug-In . SVG Version: 6.00 Build 0)  -->
<svg version="1.1" id="图层_1" xmlns="http://www.w3.org/2000/svg" xmlns:xlink="http://www.w3.org/1999/xlink" x="0px" y="0px"
	 viewBox="0 0 206 206" style="enable-background:new 0 0 206 206;" xml:space="preserve">
<style type="text/css">
	.st0{fill:#FE970E;}
	.st1{fill:#FFFFFF;}
</style>
<g>
	<path d="M149.9,171.6"/>
	<circle class="st0" cx="103" cy="103" r="100"/>
	<path d="M141.5,127.5"/>
	<rect x="46.8" y="85.3" class="st1" width="110.6" height="5.9"/>
	<path class="st1" d="M91.5,127.4H69c-1.9,0-3.5-1.6-3.5-3.5v0c0-1.9,1.6-3.5,3.5-3.5h22.5c1.9,0,3.5,1.6,3.5,3.5v0
		C95,125.8,93.4,127.4,91.5,127.4z"/>
	<g>
		<g>
			
				<rect x="162.8" y="89.4" transform="matrix(0.7714 -0.6364 0.6364 0.7714 -22.16 127.035)" class="st1" width="5.9" height="10"/>
			<polygon class="st1" points="158.6,93.8 129,118.3 121.9,124.1 125.1,127.9 128.3,131.8 135.4,126 165,101.5 			"/>
		</g>
		<polygon class="st1" points="116.6,134.8 120.3,125.4 126.7,133.2 		"/>
	</g>
	<path class="st1" d="M151.5,116.4v22.2c0,1.1-0.9,2-2,2H54.7c-1.1,0-2-0.9-2-2V71.4c0-1.1,0.9-2,2-2h94.8c1.1,0,2,0.9,2,2v24.4
		l5.9-4.6V71.4c0-4.4-3.5-7.9-7.9-7.9H54.7c-4.4,0-7.9,3.5-7.9,7.9v67.1c0,4.4,3.5,7.9,7.9,7.9h94.8c4.4,0,7.9-3.5,7.9-7.9v-27.1
		L151.5,116.4z"/>
</g>
</svg>
