<?xml version="1.0" standalone="no"?><!DOCTYPE svg PUBLIC "-//W3C//DTD SVG 1.1//EN" "http://www.w3.org/Graphics/SVG/1.1/DTD/svg11.dtd"><svg t="1547008436488" class="icon" style="" viewBox="0 0 1024 1024" version="1.1" xmlns="http://www.w3.org/2000/svg" p-id="1519" xmlns:xlink="http://www.w3.org/1999/xlink" width="200" height="200"><defs><style type="text/css"></style></defs><path d="M512.213871 908.72251c26.78197 0 48.492434-21.710464 48.492434-48.492434L560.706305 112.595404c0-26.78197-21.710464-48.492434-48.492434-48.492434l0 0c-26.78197 0-48.492434 21.710464-48.492434 48.492434l0 747.634672C463.721437 887.012046 485.431901 908.72251 512.213871 908.72251L512.213871 908.72251zM477.79906 944.498318c18.937305 18.937305 48.554856 20.024056 66.152653 2.426259l357.195262-357.195262c17.597797-17.597797 16.511046-47.214325-2.426259-66.152653l0 0c-18.937305-18.937305-48.554856-20.024056-66.152653-2.426259l-357.194238 357.195262C457.775005 895.943462 458.861756 925.561014 477.79906 944.498318L477.79906 944.498318zM546.620495 944.498318c18.937305-18.937305 20.024056-48.554856 2.426259-66.152653l-357.195262-357.195262c-17.597797-17.597797-47.214325-16.511046-66.152653 2.426259l0 0c-18.937305 18.937305-20.024056 48.554856-2.426259 66.152653l357.195262 357.195262C498.065639 964.522374 527.683191 963.435623 546.620495 944.498318L546.620495 944.498318z" p-id="1520" fill="#1296db"></path></svg>