<?xml version="1.0" encoding="utf-8"?>
<!-- Generator: Adobe Illustrator 22.1.0, SVG Export Plug-In . SVG Version: 6.00 Build 0)  -->
<svg version="1.1" id="图层_1" xmlns="http://www.w3.org/2000/svg" xmlns:xlink="http://www.w3.org/1999/xlink" x="0px" y="0px"
	 viewBox="0 0 25 25" style="enable-background:new 0 0 25 25;" xml:space="preserve">
<style type="text/css">
	.st0{fill:none;}
	.st1{display:none;}
	.st2{display:inline;}
	.st3{fill:none;stroke:#3D84D1;stroke-width:0.816;stroke-miterlimit:10;}
	.st4{display:none;fill:#231815;}
</style>
<rect x="3.6" y="5" class="st0" width="18.4" height="15.5"/>
<g class="st1">
	<g class="st2">
		<path class="st3" d="M16.8,9.5c-0.4-1.9-2.1-3.4-4.1-3.4c-2.1,0-3.7,1.4-4.1,3.4c-1.4,0.4-2.4,1.7-2.4,3.2c0,1.8,1.4,3.3,3.3,3.3
			H10v-0.9H9.4c-1.3,0-2.3-1-2.3-2.3s1-2.3,2.3-2.3c0-1.8,1.4-3.3,3.3-3.3c1.8,0,3.3,1.4,3.3,3.3c1.3,0,2.3,1,2.3,2.3
			s-1,2.3-2.3,2.3h-0.5V16H16c1.8,0,3.3-1.4,3.3-3.3C19.3,11.2,18.2,9.9,16.8,9.5L16.8,9.5z"/>
		<path class="st3" d="M13.1,11.5c-0.2-0.1-0.4-0.2-0.6-0.1c0,0-0.1,0-0.1,0.1L11,12.8c-0.2,0.2-0.2,0.5,0,0.7s0.5,0.2,0.7,0
			l0.6-0.5v5.5c0,0.3,0.2,0.5,0.5,0.5s0.5-0.2,0.5-0.5V13l0.6,0.5c0.2,0.2,0.5,0.2,0.7,0s0.2-0.5,0-0.7L13.1,11.5z"/>
	</g>
</g>
<g class="st1">
	<path class="st2" d="M20.2,12.9C20.2,12.9,20.1,12.9,20.2,12.9c0,0.6-0.2,1-0.4,1.5c-0.2,0.3-0.5,0.6-0.8,0.9
		c-0.2,0.2-0.4,0.3-0.7,0.5c-0.3,0.2-0.6,0.3-0.9,0.3c-0.2,0-0.5,0.1-0.7,0.1c-0.3,0-0.6-0.2-0.7-0.5s0-0.6,0.3-0.8
		c0.1-0.1,0.2-0.1,0.4-0.1c0.5,0,0.9-0.1,1.3-0.4c0.4-0.3,0.7-0.8,0.8-1.3c0.1-0.5,0-1.1-0.4-1.5c-0.3-0.4-0.6-0.6-1-0.7
		c-0.2-0.1-0.3-0.1-0.5-0.1c-0.1,0-0.1,0-0.2,0c-0.2-1.1-0.8-2-1.8-2.6c-0.7-0.5-1.5-0.7-2.4-0.6C10.6,7.7,9,9,8.8,10.7
		c-0.1,0-0.2,0-0.3,0c-0.3,0-0.5,0.1-0.8,0.2c-0.3,0.2-0.6,0.5-0.8,0.8c-0.1,0.3-0.2,0.5-0.2,0.8c0,0.5,0.1,0.9,0.4,1.3
		c0.3,0.4,0.7,0.7,1.2,0.8c0.2,0,0.3,0,0.5,0.1c0.4,0,0.6,0.2,0.7,0.6c0.1,0.4-0.2,0.7-0.6,0.8c-0.2,0-0.4,0-0.6,0
		c-0.3,0-0.5-0.1-0.8-0.2c-0.4-0.1-0.7-0.3-1.1-0.6s-0.7-0.8-1-1.2c-0.1-0.3-0.2-0.6-0.3-0.9c0-0.1,0-0.1,0-0.2v-0.5c0,0,0,0,0-0.1
		s0-0.2,0-0.3c0-0.2,0.1-0.5,0.2-0.7c0.1-0.3,0.3-0.6,0.6-0.9c0.2-0.2,0.3-0.3,0.5-0.5c0.3-0.2,0.7-0.4,1-0.5c0,0,0.1,0,0.1-0.1
		C7.8,9.2,7.9,9,8,8.8c0.2-0.3,0.4-0.6,0.6-0.9C8.8,7.7,9,7.5,9.2,7.4c0.3-0.2,0.6-0.5,0.9-0.6c0.4-0.2,0.9-0.4,1.3-0.5
		c0.3-0.1,0.6-0.1,0.8-0.1c0,0,0,0,0.1,0H13l0,0c0.1,0,0.3,0,0.4,0c0.3,0,0.5,0.1,0.8,0.2c0.4,0.1,0.8,0.3,1.2,0.5s0.7,0.5,1,0.7
		c0.2,0.2,0.3,0.3,0.5,0.5c0.3,0.4,0.6,0.8,0.7,1.2l0.1,0.1c0.1,0.1,0.3,0.1,0.4,0.2c0.4,0.2,0.8,0.5,1.1,0.9c0.3,0.3,0.5,0.6,0.6,1
		c0.1,0.3,0.2,0.7,0.2,1.1c0,0,0,0,0,0.1v0.2C20,12.9,20.2,12.9,20.2,12.9z"/>
	<path class="st2" d="M12.5,18.6c-0.1-0.1-0.3-0.1-0.4-0.2C12,18.3,12,18.1,12,17.9c0-1.1,0-2.2,0-3.3v-0.1
		c-0.1,0.1-0.1,0.1-0.1,0.2c-0.2,0.2-0.4,0.4-0.6,0.6c-0.1,0.1-0.2,0.2-0.3,0.3c-0.2,0.1-0.6,0.1-0.8-0.1c-0.3-0.3-0.3-0.7,0-1
		s0.5-0.5,0.8-0.8c0.1-0.1,0.3-0.3,0.4-0.4c0.2-0.2,0.5-0.5,0.7-0.7c0.1-0.1,0.2-0.2,0.3-0.3c0.3-0.2,0.7-0.2,0.9,0.1
		c0.3,0.3,0.5,0.5,0.8,0.8c0.1,0.1,0.3,0.3,0.4,0.4c0.2,0.3,0.5,0.5,0.7,0.8c0.1,0.1,0.2,0.2,0.3,0.4c0.3,0.4,0.1,0.9-0.4,1
		c-0.3,0.1-0.5,0-0.7-0.2c-0.3-0.3-0.5-0.6-0.8-0.9c0,0,0,0-0.1-0.1v0.1c0,1.1,0,2.1,0,3.2c0,0.2,0,0.4-0.2,0.6
		c-0.1,0.1-0.2,0.2-0.3,0.2l0,0C12.7,18.6,12.6,18.6,12.5,18.6L12.5,18.6z"/>
</g>
<path class="st4" d="M10,16.4c0,0-2.9,0.3-3.9-2.4s1.6-4.6,2.3-4.7c0,0,0.4-2.7,3.5-3.4s5,1.9,5.3,3.3c0,0,2.2,0.7,2.5,3.2s-2,4-4,4
	H10z"/>
<path d="M22.2,3.4l-0.9-0.8c-0.5-0.5-1.4-0.5-1.9,0l-9.1,9.6l-0.1,0.1l-2.7,5.1c-0.1,0.2-0.1,0.4,0,0.5S7.9,18.1,8,18l4.8-3.1
	c0,0,0.1,0,0.1-0.1l9.2-9.5C22.7,4.7,22.7,3.8,22.2,3.4z M10,15.3l1.6-3l1.2,1.2L10,15.3z M19.9,6L19.9,6l-6.5,6.7l-1-1L18.9,5
	c0.1-0.1,0.3-0.1,0.5,0L20,5.6C20,5.7,20,5.9,19.9,6z"/>
<path d="M21.4,10.4L21.4,10.4l0,11L3.7,21.3V3.9l10.8,0l0-1H2.9c0,0-0.1,0-0.1,0.1v19.1c0,0,0,0.1,0.1,0.1h19.3c0,0,0.1,0,0.1-0.1
	V10.4H21.4z"/>
</svg>
