<?xml version="1.0" encoding="utf-8"?>
<!-- Generator: Adobe Illustrator 22.1.0, SVG Export Plug-In . SVG Version: 6.00 Build 0)  -->
<svg version="1.1" id="图层_1" xmlns="http://www.w3.org/2000/svg" xmlns:xlink="http://www.w3.org/1999/xlink" x="0px" y="0px"
	 viewBox="0 0 206 206" style="enable-background:new 0 0 206 206;" xml:space="preserve">
<style type="text/css">
	.st0{fill:#FFFFFF;}
	.st1{fill:#FE970E;}
</style>
<g>
	<path class="st0" d="M42.4,87.4"/>
	<circle class="st1" cx="103" cy="103" r="100"/>
	<path class="st0" d="M117.7,64.8c0-8.4-6.6-15.3-14.7-15.3c-8.1,0-14.7,6.8-14.7,15.3h-7.4v7.6h44.1v-7.6H117.7z M95.6,64.8
		c0-4.2,3.3-7.6,7.4-7.6c4.1,0,7.4,3.4,7.4,7.6H95.6z M95.6,64.8"/>
	<path class="st0" d="M136.6,64.8h-5.9v7.6h3c2.2,0,3.9,2,3.9,4.4v67.7c0,2.4-1.8,4.4-3.9,4.4H72.4c-2.2,0-3.9-2-3.9-4.4V76.8
		c0-2.4,1.8-4.4,3.9-4.4h3v-7.6h-5.9c-4.4,0-7.9,3.9-7.9,8.7v74.2c0,4.8,3.5,8.7,7.9,8.7h67.1c4.4,0,7.9-3.9,7.9-8.7V73.5
		C144.4,68.7,140.9,64.8,136.6,64.8L136.6,64.8z M136.6,64.8"/>
	<path class="st0" d="M82.8,133.5h40.6c1.9,0,3.4-1.7,3.4-3.8c0-2.1-1.5-3.8-3.4-3.8H82.8c-1.9,0-3.4,1.7-3.4,3.8
		C79.4,131.8,80.9,133.5,82.8,133.5L82.8,133.5z M82.8,133.5"/>
	<path class="st0" d="M82.8,114.5h40.6c1.9,0,3.4-1.7,3.4-3.8c0-2.1-1.5-3.8-3.4-3.8H82.8c-1.9,0-3.4,1.7-3.4,3.8
		C79.4,112.8,80.9,114.5,82.8,114.5L82.8,114.5z M82.8,114.5"/>
	<path class="st0" d="M82.8,95.4h40.6c1.9,0,3.4-1.7,3.4-3.8s-1.5-3.8-3.4-3.8H82.8c-1.9,0-3.4,1.7-3.4,3.8
		C79.4,93.7,80.9,95.4,82.8,95.4L82.8,95.4z M82.8,95.4"/>
</g>
</svg>
