<?xml version="1.0" encoding="utf-8"?>
<!-- Generator: Adobe Illustrator 22.1.0, SVG Export Plug-In . SVG Version: 6.00 Build 0)  -->
<svg version="1.1" id="图层_1" xmlns="http://www.w3.org/2000/svg" xmlns:xlink="http://www.w3.org/1999/xlink" x="0px" y="0px"
	 viewBox="0 0 206 206" style="enable-background:new 0 0 206 206;" xml:space="preserve">
<style type="text/css">
	.st0{fill:#FFFFFF;}
	.st1{fill:#388CC1;}
	.st2{fill:none;}
	.st3{fill:#4597BF;}
	.st4{font-family:'TwCenMT-Regular';}
	.st5{font-size:46.1781px;}
</style>
<path class="st0" d="M222,42.3"/>
<path class="st1" d="M103.3,3.8c55.1,0,99.9,44.8,99.9,99.8c0,55-44.8,99.8-99.9,99.8c-55.1,0-99.9-44.8-99.9-99.8
	C3.4,48.6,48.2,3.8,103.3,3.8L103.3,3.8z M103.3,3.8"/>
<rect x="3.4" y="3.7" class="st2" width="200" height="200"/>
<path class="st3" d="M118.7,86h31.4c1.7,0,2.9,1.1,2.9,2.9c0,1.7-1.1,2.9-2.9,2.9h-31.4c-1.7,0-2.9-1.1-2.9-2.9
	C115.9,87.1,117,86,118.7,86L118.7,86z M106.2,104.8h44.5c1.7,0,2.9,1.1,2.9,2.9c0,1.7-1.1,2.9-2.9,2.9h-44.5
	c-1.7,0-2.9-1.1-2.9-2.9C103.3,105.9,104.5,104.8,106.2,104.8L106.2,104.8z M106.2,104.8"/>
<path class="st0" d="M120.7,122.4c-1.7,0-2.9,0.8-2.9,1.9v24.6c0,1.1,1.1,1.9,2.9,1.9c1.7,0,2.9-0.8,2.9-1.9v-24.6
	C123.6,123.2,122.5,122.4,120.7,122.4L120.7,122.4z M120.7,122.4"/>
<path class="st0" d="M105,148.8c0-1.7,1.1-2.9,2.9-2.9h25.7c1.7,0,2.9,1.1,2.9,2.9c0,1.7-1.1,2.9-2.9,2.9h-25.7
	C106.2,151.7,105,150.6,105,148.8L105,148.8z M105,148.8"/>
<path class="st0" d="M69.6,126l22.3-22.2c1.1-1.1,2.9-1.1,4,0c1.1,1.1,1.1,2.9,0,4l-22,22.2c-1.1,1.1-2.9,1.1-4,0
	C68.8,129.2,68.8,127.2,69.6,126L69.6,126z M69.6,126"/>
<g>
	<path class="st0" d="M55.4,89.1c-7.2,0-13,5.8-13,13c0,7.2,5.8,13,13,13c7.2,0,13-5.8,13-13C68.4,94.9,62.5,89.1,55.4,89.1z
		 M55.4,110.1c-4.4,0-8-3.6-8-8c0-4.4,3.6-8,8-8s8,3.6,8,8C63.4,106.5,59.8,110.1,55.4,110.1z"/>
	<path class="st0" d="M67.8,114.5h-2.2c0,0,0,0-0.1,0c-0.7,2-2.7,3.8-5.3,4.9c-0.1,0,5.5,0.1,5.5,0.1c1.1,0,2.1,0.9,2.1,2.1v22.5
		c0,1.1-0.9,2.1-2.1,2.1H48.4c-1.1,0-2.1-0.9-2.1-2.1v-22.5c0-1.1,0.9-2.1,2.1-2.1c0,0-4.1-2.3-5-3.9c0,0-0.1,0-0.1,0
		c-1.2,0.9-1.9,2.3-1.9,3.9v26.6c0,2.8,2.3,5.1,5.1,5.1h21.4c2.8,0,5.1-2.3,5.1-5.1v-26.5C72.8,116.8,70.6,114.5,67.8,114.5z"/>
	<path class="st0" d="M42,121c0,0,2.7,4.1,11.9,3.9c9.6-0.1,16.1-6.7,16.1-6.7l0.8-2.3l-5.2-1.4c0,0-3.3,4.6-9.6,5.7
		c-5.6,0.9-9.3-1.2-11.9-3.6c-0.4-0.3-1-0.2-1.1,0.3L42,121z"/>
</g>
<path class="st0" d="M80.2,71v49c0,3.8,3.1,6.9,6.9,6.9h66c3.8,0,6.9-3.1,6.9-6.9V71c0-3.8-3.1-6.9-6.9-6.9h-66
	C83.3,64.1,80.2,67.2,80.2,71z M151,120.9H89.2c-1.7,0-3-1.3-3-3V73.1c0-1.7,1.3-3,3-3H151c1.7,0,3,1.3,3,3v44.8
	C154,119.6,152.7,120.9,151,120.9z"/>
<path class="st0" d="M163,70H77.5c-1.6,0-3-1.3-3-3V67c0-1.6,1.3-3,3-3H163c1.6,0,3,1.3,3,3v0.1C165.9,68.7,164.6,70,163,70z"/>
<text transform="matrix(1 0 0 1 102.1465 109.5859)" class="st0 st4 st5">G</text>
</svg>
