<?xml version="1.0" encoding="utf-8"?>
<!-- Generator: Adobe Illustrator 22.1.0, SVG Export Plug-In . SVG Version: 6.00 Build 0)  -->
<svg version="1.1" id="图层_1" xmlns="http://www.w3.org/2000/svg" xmlns:xlink="http://www.w3.org/1999/xlink" x="0px" y="0px"
	 viewBox="0 0 206 206" style="enable-background:new 0 0 206 206;" xml:space="preserve">
<style type="text/css">
	.st0{fill:#EF6B52;}
	.st1{fill:#FFFFFF;}
</style>
<g>
	<path class="st0" d="M203,103c0,55.2-44.8,100-100,100S3,158.2,3,103S47.8,3,103,3S203,47.8,203,103"/>
	<path class="st1" d="M147.7,109.7c-2.5,0-3.6,2.1-3.6,4.6v9.2c0,13.6-11.8,25.1-27.2,25.1H89.2c-15.4,0-27.2-11.5-27.2-25.1v-9.2
		c0-2.5-1.1-4.6-3.6-4.6c-2.5,0-4.6,2.1-4.6,4.6v9.2c0,18.7,14.9,32.3,35.4,32.3h27.7c20.5,0,35.4-13.6,35.4-32.3v-9.2
		C152.3,111.7,150.2,109.7,147.7,109.7L147.7,109.7z M147.7,109.7"/>
	<path class="st1" d="M101.9,51.8c-9.3,0-16.9,7.6-16.9,16.9c0,9.3,7.6,16.9,16.9,16.9c9.3,0,16.9-7.6,16.9-16.9
		C118.8,59.4,111.2,51.8,101.9,51.8 M101.9,79.2c-5.8,0-10.4-4.7-10.4-10.4c0-5.8,4.7-10.4,10.4-10.4c5.8,0,10.4,4.7,10.4,10.4
		C112.3,74.5,107.6,79.2,101.9,79.2"/>
	<path class="st1" d="M83.3,99.8v28.9c0,5.4,4,9.7,9,9.7h19.2c5,0,9-4.3,9-9.7V99.8c0-5.4-4-9.7-9-9.7H92.3
		C87.3,90.1,83.3,94.4,83.3,99.8 M109,131.6H94.7c-2.8,0-5.1-2.5-5.1-5.6v-23.6c0-3.1,2.3-5.6,5.1-5.6H109c2.8,0,5.1,2.5,5.1,5.6
		V126C114.2,129.1,111.9,131.6,109,131.6"/>
	<path class="st1" d="M140.7,103.5l-22.1,30.7c-0.4-0.6-3.3,1.9-4.9,0.8l-0.2-0.1c-1.6-1.1-1.9-3.3-0.8-4.9l22.1-30.7
		c1.1-1.6,3.3-1.9,4.9-0.8l0.2,0.1C141.5,99.7,141.8,101.9,140.7,103.5"/>
</g>
</svg>
