<?xml version="1.0" encoding="utf-8"?>
<!-- Generator: Adobe Illustrator 22.1.0, SVG Export Plug-In . SVG Version: 6.00 Build 0)  -->
<svg version="1.1" id="图层_1" xmlns="http://www.w3.org/2000/svg" xmlns:xlink="http://www.w3.org/1999/xlink" x="0px" y="0px"
	 viewBox="0 0 206 206" style="enable-background:new 0 0 206 206;" xml:space="preserve">
<style type="text/css">
	.st0{fill:#FFFFFF;}
	.st1{fill:#EF6B52;}
</style>
<path class="st0" d="M246.9,107.7"/>
<g>
	<path class="st0" d="M25,159.6"/>
	<path class="st1" d="M203,103c0,55.2-44.8,100-100,100C47.8,203,3,158.2,3,103C3,47.8,47.8,3,103,3C158.2,3,203,47.8,203,103"/>
	<path class="st0" d="M149.5,87.4c-0.5-0.6-0.9-1.4-1-2.2l-4.1-22.1c-0.9-4.9-5.3-8.2-10.2-7.9L112.6,57c-1.2,0.1-2.5-0.1-3.6-0.6
		c-4.3-1.7-9.2-0.3-12,3.3l-40.3,52.5c-1.7,2.2-2.4,4.9-2.1,7.6c0.4,2.7,1.8,5.2,4,6.9l36.4,27.9c1.8,1.4,4,2.1,6.3,2.1
		c3.2,0,6.3-1.5,8.2-4l40.3-52.5C152.7,96.5,152.6,91.1,149.5,87.4z M143.5,97.1l-38.8,50.4c-1.5,1.9-4.2,2.3-6.1,0.8l-34.9-26.9
		c-1.9-1.5-2.3-4.2-0.8-6.1l38.8-50.4c1.2-1.5,3.2-2.1,5-1.4c1.9,0.8,3.9,1.1,6,0.9l20.8-1.6c1.9-0.1,3.5,1.1,3.9,3l3.9,21.2
		c0.3,1.7,1.1,3.3,2.2,4.7C144.7,93.2,144.7,95.5,143.5,97.1z"/>
	<path class="st0" d="M98.4,150"/>
	<path class="st0" d="M115.8,104c-6.7,0-12.6-4.7-14.1-11.2c-1.5-6.6,1.7-13.3,7.7-16.3c6-3,13.3-1.4,17.6,3.8
		c4.3,5.2,4.4,12.7,0.3,18c-2.3,3.1-5.8,5-9.6,5.5C117,104,116.4,104,115.8,104L115.8,104z M115.8,81.5c-0.4,0-0.7,0-1.1,0.1
		c-3.6,0.5-6.5,3.3-6.9,6.9c-0.5,3.6,1.5,7.1,4.9,8.5c3.4,1.4,7.3,0.4,9.5-2.5c1.9-2.4,2.2-5.7,0.8-8.5
		C121.7,83.2,118.9,81.5,115.8,81.5L115.8,81.5z M115.8,81.5"/>
</g>
</svg>
