<?xml version="1.0" encoding="utf-8"?>
<!-- Generator: Adobe Illustrator 16.0.0, SVG Export Plug-In . SVG Version: 6.00 Build 0)  -->
<!DOCTYPE svg PUBLIC "-//W3C//DTD SVG 1.1//EN" "http://www.w3.org/Graphics/SVG/1.1/DTD/svg11.dtd">
<svg version="1.1" id="图层_1" xmlns="http://www.w3.org/2000/svg" xmlns:xlink="http://www.w3.org/1999/xlink" x="0px" y="0px"
	 width="85.039px" height="85.039px" viewBox="0 0 85.039 85.039" enable-background="new 0 0 85.039 85.039" xml:space="preserve">
<g>
	<circle fill="#D1514A" cx="42.715" cy="42.519" r="33.833"/>
	<g>
		<g>
			<path fill="#FFFFFF" d="M58.005,26.207h-30.58c-3.131,0-5.668,2.538-5.668,5.669v24.578c0,3.131,2.537,5.67,5.668,5.67h30.58
				c3.131,0,5.668-2.539,5.668-5.67V31.875C63.673,28.744,61.136,26.207,58.005,26.207z M60.841,56.205
				c0,1.565-1.27,2.834-2.836,2.834h-30.83c-1.563,0-2.834-1.269-2.834-2.834V31.833c0-1.565,1.271-2.834,2.834-2.834h30.83
				c1.566,0,2.836,1.269,2.836,2.834V56.205z"/>
			<path fill="#FFFFFF" d="M36.423,30.749c0,0.805-0.652,1.458-1.459,1.458l0,0c-0.805,0-1.457-0.653-1.457-1.458v-6.375
				c0-0.805,0.652-1.458,1.457-1.458l0,0c0.807,0,1.459,0.653,1.459,1.458V30.749z"/>
			<path fill="#FFFFFF" d="M51.673,30.749c0,0.805-0.652,1.458-1.459,1.458l0,0c-0.805,0-1.457-0.653-1.457-1.458v-6.375
				c0-0.805,0.652-1.458,1.457-1.458l0,0c0.807,0,1.459,0.653,1.459,1.458V30.749z"/>
			<rect x="24.132" y="34.332" fill="#FFFFFF" width="36.916" height="2.5"/>
		</g>
		<g>
			<path fill="#FFFFFF" d="M49.851,50.461c-1.889,0-3.418,1.529-3.418,3.419s1.529,3.418,3.418,3.418
				c1.887,0,3.416-1.53,3.416-3.418C53.269,51.99,51.737,50.461,49.851,50.461z M49.843,56.349c-1.369,0-2.479-1.11-2.479-2.479
				c0-1.369,1.109-2.479,2.479-2.479s2.479,1.11,2.479,2.479C52.321,55.238,51.212,56.349,49.843,56.349z"/>
			<path fill="#FFFFFF" d="M49.591,55.244c-0.594-0.283-1.223-0.594-1.223-1.365s0.521-1.254,1.223-1.529
				c0,0-0.021-0.133-0.043-0.293c-0.016-0.121-0.111-0.139-0.111-0.139c-0.906,0.172-1.59,1.006-1.59,2.012
				c0,1.008,0.75,1.547,1.654,1.718c0,0,0.109-0.07,0.109-0.173C49.612,55.371,49.591,55.244,49.591,55.244z"/>
			<circle fill="#FFFFFF" cx="50.013" cy="51.968" r="0.265"/>
			
				<rect x="52.189" y="55.925" transform="matrix(-0.6687 0.7436 -0.7436 -0.6687 129.5291 55.1838)" fill="#FFFFFF" width="0.561" height="1.051"/>
			<path fill="#FFFFFF" d="M52.681,56.67c-0.299,0.326-0.299,0.816,0.004,1.092l1.049,0.956c0.297,0.277,0.785,0.234,1.082-0.093
				c0.303-0.327,0.301-0.816-0.002-1.092l-1.047-0.958C53.464,56.301,52.979,56.345,52.681,56.67z M54.454,57.884
				c0.117,0.107,0.117,0.297,0.002,0.427c-0.119,0.126-0.307,0.143-0.426,0.034l-0.99-0.905c-0.117-0.105-0.117-0.297,0-0.424
				c0.115-0.129,0.305-0.145,0.424-0.035L54.454,57.884z"/>
		</g>
		<path fill="#FFFFFF" d="M45.243,54.601c0-0.128,0.029-0.245,0.037-0.371H33.438c0.643-3.039,3.338-5.318,6.566-5.318
			c2.469,0,4.615,1.337,5.783,3.323c0.27-0.577,0.625-1.105,1.068-1.552c-0.508-0.673-1.088-1.285-1.764-1.781
			c1.104,0.021,2.143,0.327,3.035,0.851c0.57-0.317,1.201-0.537,1.873-0.635c-0.715-0.578-1.52-1.048-2.406-1.355
			c1.512-0.939,2.521-2.598,2.521-4.505c0-2.938-2.381-5.317-5.316-5.317c-0.568,0-1.109,0.106-1.619,0.278
			c-0.947-0.694-2.107-1.116-3.373-1.116c-3.166,0-5.73,2.568-5.73,5.735c0,2.121,1.158,3.949,2.869,4.942
			c-2.814,1.069-4.922,3.563-5.443,6.603v1.562h13.924C45.317,55.508,45.243,55.064,45.243,54.601z M44.64,39.764
			c0.057-0.001,0.111-0.011,0.164-0.011c1.936,0,3.5,1.567,3.5,3.5s-1.564,3.502-3.5,3.502c-0.26,0-0.508-0.041-0.75-0.098
			c0.922-1.013,1.49-2.348,1.49-3.827C45.544,41.7,45.206,40.654,44.64,39.764z M36.034,42.833c0-2.084,1.691-3.776,3.775-3.776
			s3.773,1.69,3.773,3.776c0,2.086-1.689,3.776-3.773,3.776C37.724,46.609,36.034,44.918,36.034,42.833z"/>
	</g>
</g>
</svg>
