<?xml version="1.0" standalone="no"?><!DOCTYPE svg PUBLIC "-//W3C//DTD SVG 1.1//EN" "http://www.w3.org/Graphics/SVG/1.1/DTD/svg11.dtd"><svg t="1542763560606" class="icon" style="" viewBox="0 0 1024 1024" version="1.1" xmlns="http://www.w3.org/2000/svg" p-id="2251" xmlns:xlink="http://www.w3.org/1999/xlink" width="200" height="200"><defs><style type="text/css"></style></defs><path d="M512 896a384 384 0 1 1 384-384 384 384 0 0 1-384 384z m0-682.666667a298.666667 298.666667 0 1 0 298.666667 298.666667 298.666667 298.666667 0 0 0-298.666667-298.666667z" fill="#FC455D" p-id="2252"></path><path d="M495.146667 582.826667a42.666667 42.666667 0 0 1-42.666667-42.666667V320a42.666667 42.666667 0 0 1 85.333333 0v219.733333a42.666667 42.666667 0 0 1-42.666666 43.093334z" fill="#FD8F9E" p-id="2253"></path><path d="M633.813333 582.826667h-138.666666a42.666667 42.666667 0 0 1 0-85.333334h138.666666a42.666667 42.666667 0 1 1 0 85.333334z" fill="#FC455D" p-id="2254"></path><path d="M495.268418 540.197934m-30.169889 30.16989a42.666667 42.666667 0 1 0 60.339779-60.339779 42.666667 42.666667 0 1 0-60.339779 60.339779Z" fill="#FF9B57" p-id="2255"></path></svg>