<?xml version="1.0" encoding="utf-8"?>
<!-- Generator: Adobe Illustrator 22.1.0, SVG Export Plug-In . SVG Version: 6.00 Build 0)  -->
<svg version="1.1" id="图层_1" xmlns="http://www.w3.org/2000/svg" xmlns:xlink="http://www.w3.org/1999/xlink" x="0px" y="0px"
	 viewBox="0 0 206 206" style="enable-background:new 0 0 206 206;" xml:space="preserve">
<style type="text/css">
	.st0{fill:#DD5A59;}
	.st1{fill:#FFFFFF;}
	.st2{fill:none;stroke:#FFFFFF;stroke-width:5;stroke-miterlimit:10;}
	.st3{fill:none;}
</style>
<circle class="st0" cx="103.9" cy="103" r="100"/>
<polygon class="st1" points="132.2,156.5 119,146 120.3,167.8 120.6,167.8 132.2,156.5 "/>
<path class="st1" d="M136.7,104.9c-10.3,0.4-18.3,9.1-17.9,19.4s9.1,18.3,19.4,17.9c10.3-0.4,18.3-9.1,17.9-19.4
	C155.7,112.5,147,104.5,136.7,104.9z M138,137.4c-7.6,0.3-14-5.6-14.3-13.2s5.6-14,13.2-14.3c7.6-0.3,14,5.6,14.3,13.2
	S145.6,137.1,138,137.4z"/>
<g>
	<rect x="151.7" y="131.1" transform="matrix(0.5456 -0.838 0.838 0.5456 -43.5492 189.8234)" class="st1" width="3.2" height="8"/>
	<path class="st1" d="M161.4,134.8c-2.3-1.5-5.4-1-6.8,1.2c-1.4,2.2-0.7,5.2,1.6,6.7l5.2,3.4c2.3,1.5,5.4,1,6.8-1.2
		c1.4-2.2,0.7-5.2-1.6-6.7L161.4,134.8z M165.2,143c-0.6,0.9-2.1,0.9-3.4,0l-2.9-1.9c-1.3-0.9-1.9-2.2-1.3-3.1
		c0.6-0.9,2.1-0.9,3.4,0l2.9,1.9C165.2,140.7,165.8,142.1,165.2,143z"/>
</g>
<path class="st2" d="M137.5,132.8c-6.3-3.8-7.5-8.3-3.7-14.6"/>
<circle class="st1" cx="137.4" cy="114.4" r="3"/>
<g>
	<path class="st1" d="M105.5,62.6c-12.4,0-22.5,10.1-22.5,22.5s10.1,22.5,22.5,22.5S128,97.6,128,85.1S117.9,62.6,105.5,62.6z
		 M105.5,102.8c-9.8,0-17.7-7.9-17.7-17.7s7.9-17.7,17.7-17.7s17.7,7.9,17.7,17.7S115.2,102.8,105.5,102.8z"/>
	<path class="st1" d="M119.9,107c-14.2-7.2-31.7-3-40.7,10.4c-1.5,2.3-2.7,4.7-3.6,7.2H81c0.6-1.5,1.4-3,2.4-4.4
		c7.4-11.1,19.6-14.3,33.6-9.1C117.9,109.7,118.8,108.3,119.9,107z"/>
	<path class="st1" d="M115,130.1H79.5c2.4-12.1,13.1-21.3,25.9-21.3c2.8,0,5.5,0.4,8,1.2c0.4-1.7,0.9-3.3,1.6-4.8
		c-0.1,0-0.1-0.1-0.2-0.1c0.1-0.1,0.2-0.1,0.3-0.2c2.4-5.4,6.4-9.9,11.5-12.8c0.8-2.3,1.3-4.8,1.3-7.4c0-12.4-10-22.4-22.4-22.4
		S83,72.3,83,84.7c0,9,5.4,16.8,13.1,20.4c-12.8,4-22.1,15.9-22.1,30h0.7H79h37.2C115.7,133.5,115.3,131.8,115,130.1z M88.1,84.7
		c0-9.6,7.8-17.4,17.4-17.4s17.4,7.8,17.4,17.4c0,9.6-7.8,17.4-17.4,17.4S88.1,94.3,88.1,84.7z"/>
</g>
<path class="st1" d="M109,49.2c29.1,2.6,51.7,25.7,49.5,54.3c0.4,0,0.8-0.1,1.2-0.1c2,0,3.9,0.6,5.4,1.6c3-33-21.7-59.2-55.3-62.2
	C76,39.7,46,64.1,42.8,97.2c-3.2,33.1,21.6,62.4,55.3,65.5c12.7,1.1,26.7-0.8,26.7-0.8l-1.1-6.4c0,0-13.2,1.9-24.9,0.8
	c-29.5-2.7-52.2-29.3-49.4-58.3C52.3,68.9,79.5,46.5,109,49.2z"/>
<rect id="_x3C_切片_x3E__2_" x="1" class="st3" width="206" height="206"/>
</svg>
