<?xml version="1.0" standalone="no"?><!DOCTYPE svg PUBLIC "-//W3C//DTD SVG 1.1//EN" "http://www.w3.org/Graphics/SVG/1.1/DTD/svg11.dtd"><svg t="1542766328656" class="icon" style="" viewBox="0 0 1024 1024" version="1.1" xmlns="http://www.w3.org/2000/svg" p-id="1334" xmlns:xlink="http://www.w3.org/1999/xlink" width="200" height="200"><defs><style type="text/css"></style></defs><path d="M361.813333 921.6c-10.24 0-18.773333-3.413333-25.6-11.946667-11.946667-13.653333-11.946667-35.84 3.413334-47.786666 3.413333-3.413333 93.866667-87.04 44.373333-180.906667-5.12-10.24-5.12-20.48 0-30.72s13.653333-17.066667 25.6-18.773333c3.413333 0 73.386667-11.946667 134.826667 58.026666-5.12-37.546667-18.773333-80.213333-52.906667-121.173333-8.533333-10.24-10.24-25.6-3.413333-37.546667 6.826667-11.946667 20.48-18.773333 34.133333-17.066666 3.413333 0 298.666667 40.96 302.08 375.466666 0 18.773333-15.36 34.133333-34.133333 34.133334s-34.133333-15.36-34.133334-34.133334c-1.706667-172.373333-93.866667-249.173333-163.84-283.306666 42.666667 105.813333 10.24 203.093333 8.533334 208.213333-5.12 13.653333-17.066667 22.186667-32.426667 22.186667-13.653333 0-27.306667-8.533333-32.426667-22.186667-20.48-58.026667-47.786667-87.04-69.973333-100.693333 13.653333 88.746667-42.666667 167.253333-80.213333 199.68-8.533333 5.12-15.36 8.533333-23.893334 8.533333z" fill="#EB4AF4" p-id="1335"></path><path d="M788.48 921.6c-5.12 0-10.24-1.706667-15.36-3.413333-17.066667-8.533333-22.186667-29.013333-13.653333-46.08 110.933333-203.093333 81.92-382.293333 46.08-484.693334-34.133333 97.28-105.813333 122.88-110.933334 124.586667-10.24 3.413333-20.48 1.706667-29.013333-3.413333-8.533333-5.12-13.653333-15.36-15.36-25.6-10.24-141.653333-112.64-230.4-184.32-276.48 56.32 288.426667-109.226667 414.72-117.76 421.546666-8.533333 6.826667-18.773333 8.533333-29.013333 5.12-47.786667-11.946667-83.626667-68.266667-109.226667-119.466666-44.373333 220.16 158.72 341.333333 168.96 348.16 17.066667 10.24 22.186667 30.72 11.946667 46.08-10.24 17.066667-30.72 22.186667-46.08 11.946666-3.413333-5.12-319.146667-192.853333-167.253334-523.946666 5.12-13.653333 18.773333-20.48 34.133334-20.48 13.653333 1.706667 25.6 10.24 30.72 23.893333 18.773333 63.146667 52.906667 133.12 81.92 157.013333 39.253333-39.253333 133.12-165.546667 58.026666-409.6-3.413333-11.946667 0-25.6 10.24-35.84s23.893333-11.946667 35.84-6.826666c10.24 3.413333 233.813333 97.28 281.6 312.32 22.186667-23.893333 44.373333-68.266667 46.08-145.066667 0-15.36 10.24-27.306667 23.893334-32.426667 13.653333-3.413333 29.013333 1.706667 37.546666 13.653334 6.826667 13.653333 192.853333 295.253333 1.706667 651.946666-6.826667 10.24-18.773333 17.066667-30.72 17.066667z" fill="#3793DF" p-id="1336"></path></svg>