<?xml version="1.0" encoding="utf-8"?>
<!-- Generator: Adobe Illustrator 22.1.0, SVG Export Plug-In . SVG Version: 6.00 Build 0)  -->
<svg version="1.1" id="图层_1" xmlns="http://www.w3.org/2000/svg" xmlns:xlink="http://www.w3.org/1999/xlink" x="0px" y="0px"
	 viewBox="0 0 206 206" style="enable-background:new 0 0 206 206;" xml:space="preserve">
<style type="text/css">
	.st0{fill:#F7A231;}
	.st1{fill:#FFFFFF;}
	.st2{fill:none;}
</style>
<circle class="st0" cx="103.6" cy="103.3" r="100"/>
<path class="st1" d="M144.3,68c-3.8,0-7.3,1.5-10,4.2c-2.7,2.7-4.1,6.2-4.1,10c0,1.6,0.3,3.1,0.8,4.5L96.6,99.2
	c-1.8-4.3-4.9-8-8.7-10.6l3.4-8.4c1.3,0.3,2.6,0.5,3.9,0.5h0.1c4.1,0,7.9-1.2,10.8-4.2c2.9-2.9,4.4-6.4,4.4-10.5
	c-0.1-8.5-6.9-15.4-15.4-15.4c-4.1,0-7.9,1.5-10.8,4.5c-2.9,2.9-4.4,6.6-4.4,10.7c0,5.5,3,10.1,7.3,12.7l-3.2,8
	c-2.7-1.1-5.6-1.7-8.5-1.7c-6.1,0-11.8,2.5-16,6.9c-4.3,4.3-6.6,10.3-6.5,16.4c0.1,12.5,10.3,23.1,22.7,23.1h0.1
	c6.6,0,12.6-3,16.7-7.7l15.4,11c-1.7,2.8-2.5,6.1-2.5,9.4c0.1,9.8,8,18,17.7,18h0.1c9.8,0,17.7-8.4,17.6-18.2c-0.1-9.8-8-18-17.9-18
	c-4.7,0-9.1,2-12.4,5.3L95.1,120c2.1-3.5,3.3-7.7,3.3-12c0-1.5-0.2-3-0.5-4.5l35.3-12.9c2.6,3.4,6.7,5.5,11.3,5.5h0.1
	c3.8,0,7.3-1.3,10-4c2.7-2.7,4.1-6.1,4.1-9.9C158.5,74.4,152.2,68,144.3,68z M114.1,134.6c2.4-2.4,5.6-3.8,9-3.8
	c6.9,0,12.7,5.7,12.8,12.7c0,7-5.5,12.8-12.4,12.8c-8.3,0-12.8-5.7-12.8-12.7C110.6,140.2,111.7,137,114.1,134.6z M84.7,66.4
	c0-2.8,1.1-5.5,3-7.5c2-2,4.6-3.1,7.5-3.1c5.7,0,10.4,4.7,10.5,10.5c0,2.8-1.1,5.5-3,7.5c-2,2-4.6,3.1-7.4,3.1L95.1,79v-2.1
	C88.9,76.9,84.7,72.2,84.7,66.4z M75.7,125.5l-0.1,2.1v-2.1c-10.6,0-17.6-7.9-17.6-17.7c0-4.7,1.8-9.2,5.1-12.6
	c3.3-3.4,7.7-5.2,12.6-5.3c9.7,0,17.6,7.9,17.6,17.7C93.4,117.4,85.5,125.5,75.7,125.5z M145.1,91.8c-6.2-0.1-9.6-4.3-9.6-9.4
	c0-2.5,0.5-4.9,2.3-6.7c1.8-1.8,4.1-2.8,6.7-2.8c5.1,0,9.6,4.2,9.6,9.4C154.1,87.4,150.2,91.6,145.1,91.8z"/>
<rect id="_x3C_切片_x3E__3_" y="1" class="st2" width="206" height="206"/>
</svg>
