<?xml version="1.0" encoding="utf-8"?>
<!-- Svg Vector Icons : http://www.sfont.cn -->
<!DOCTYPE svg PUBLIC "-//W3C//DTD SVG 1.1//EN" "http://www.w3.org/Graphics/SVG/1.1/DTD/svg11.dtd">
<svg version="1.1" xmlns="http://www.w3.org/2000/svg" xmlns:xlink="http://www.w3.org/1999/xlink" x="0px" y="0px" viewBox="0 0 1000 1000" enable-background="new 0 0 1000 1000" xml:space="preserve">
<metadata> Svg Vector Icons : http://www.sfont.cn </metadata>
<g><path d="M500,710.3c217,0,393,49.8,393,111.3C893,883.1,717,933,500,933c-217,0-393-49.8-393-111.3C107,760.2,283,710.3,500,710.3c-270.6,0-490,62.1-490,138.8c0,76.7,219.4,138.8,490,138.8c270.6,0,490-62.1,490-138.8C990,772.5,770.6,710.3,500,710.3L500,710.3z M747,261.2c0-137.6-120.2-249.2-249.2-249.2c-129.1,0-249.3,111.6-249.3,249.2c0,26.3-6.8,54,31.2,149.5c20.7,52.1,218.1,398.7,218.1,398.7s196.7-345,218.1-398.6C753.8,315.2,747,287.6,747,261.2L747,261.2z M498.3,374.2c-59.1,0-107-48.6-107-108.7c0-60,47.9-108.7,107-108.7c59.1,0,107,48.7,107,108.7C605.3,325.5,557.4,374.2,498.3,374.2L498.3,374.2z"/></g>
</svg>