<?xml version="1.0" encoding="utf-8"?>
<!-- Generator: Adobe Illustrator 22.1.0, SVG Export Plug-In . SVG Version: 6.00 Build 0)  -->
<svg version="1.1" id="图层_1" xmlns="http://www.w3.org/2000/svg" xmlns:xlink="http://www.w3.org/1999/xlink" x="0px" y="0px"
	 viewBox="0 0 206 206" style="enable-background:new 0 0 206 206;" xml:space="preserve">
<style type="text/css">
	.st0{fill:#FE970E;}
	.st1{fill:#FFFFFF;}
</style>
<g>
	<path class="st0" d="M103,3C47.8,3,3,47.8,3,103c0,55.2,44.8,100,100,100s100-44.8,100-100C203,47.8,158.2,3,103,3L103,3z"/>
	<path d="M103,103"/>
	<g>
		<path class="st1" d="M103,46c-15.5,0-28,12.5-28,28c0,15.5,12.5,28,28,28s28-12.5,28-28C131,58.5,118.5,46,103,46z M103,95
			c-11.6,0-21-9.4-21-21c0-11.6,9.4-21,21-21s21,9.4,21,21C124,85.6,114.6,95,103,95z"/>
		<path class="st1" d="M63.6,148.1c-0.4-3.3-0.4-6.6,0.1-10.1c2.5-19.2,18.4-34,37.3-34.9c22.8-1.2,41.7,17.4,41.7,40.4
			c0,1.6-0.1,3.1-0.3,4.6c-0.2,2.1,1.4,3.9,3.4,3.9l0,0c1.7,0,3.2-1.3,3.4-3.1c0.2-1.8,0.3-3.6,0.3-5.4c0-26.2-20.8-47.5-46.5-47.5
			s-46.5,21.3-46.5,47.5c0,1.8,0.1,3.7,0.3,5.4c0.2,1.7,1.7,3.1,3.4,3.1h0C62.3,152,63.8,150.2,63.6,148.1z"/>
		<path class="st1" d="M109.2,108.4c-0.4-1.3-1.6-2.1-3-2.1h-8c-1.4,0-2.6,0.9-3,2.3l-8,26.9c-0.4,1.2,0,2.6,1,3.4l12.5,10.1
			c1.1,0.9,2.7,0.9,3.9,0l13.1-10.1c1.1-0.8,1.5-2.3,1.1-3.6L109.2,108.4z M102.7,142.5l-8.9-7.2l6.7-22.6h3.5l8,22.6L102.7,142.5z
			 M102.7,142.5"/>
		<g>
			<path class="st1" d="M83.9,145.5H59.8v5.1c0,0.8,0.6,1.4,1.4,1.4h22.7c1.7,0,3.1-1.5,3.1-3.2v0C86.9,146.9,85.6,145.5,83.9,145.5
				z"/>
			<path class="st1" d="M121.1,148.7L121.1,148.7c0,1.8,1.4,3.2,3.1,3.2h22v-5.6c0-0.5-0.4-0.9-0.9-0.9h-21.1
				C122.5,145.5,121.1,146.9,121.1,148.7z"/>
		</g>
	</g>
</g>
</svg>
