<?xml version="1.0" encoding="utf-8"?>
<!-- Generator: Adobe Illustrator 22.1.0, SVG Export Plug-In . SVG Version: 6.00 Build 0)  -->
<svg version="1.1" id="图层_1" xmlns="http://www.w3.org/2000/svg" xmlns:xlink="http://www.w3.org/1999/xlink" x="0px" y="0px"
	 viewBox="0 0 206 206" style="enable-background:new 0 0 206 206;" xml:space="preserve">
<style type="text/css">
	.st0{fill:#EF6B52;}
	.st1{fill:#FFFFFF;}
	.st2{font-family:'SimHei';}
	.st3{font-size:48.12px;}
</style>
<g>
	<circle class="st0" cx="103" cy="103" r="100"/>
	<path class="st1" d="M52.1,84"/>
	<g>
		<path class="st1" d="M83,77.2c2.2,0,4-1.8,4-4.1V62.1c0-2.3-1.8-4.1-4-4.1s-4,1.8-4,4.1V73C78.9,75.3,80.7,77.2,83,77.2L83,77.2z"
			/>
		<path class="st1" d="M123.1,77.2c2.2,0,4-1.8,4-4.1V62.1c0-2.3-1.8-4.1-4-4.1s-4,1.8-4,4.1V73C119.1,75.3,120.9,77.2,123.1,77.2
			L123.1,77.2z"/>
		<rect x="53.6" y="83.7" class="st1" width="98.9" height="6.9"/>
		<path class="st1" d="M142,147.9H64c-6.3,0-11.4-5.1-11.4-11.4V78c0-6.3,5.1-11.4,11.4-11.4h78c6.3,0,11.4,5.1,11.4,11.4v58.5
			C153.5,142.8,148.3,147.9,142,147.9L142,147.9z M64.1,71.9c-4.4,0-6.1,1.6-6.1,6.1v58.5c0,4.4,1.6,6.1,6.1,6.1h78
			c4.4,0,6.1-1.6,6.1-6.1V78c0-4.4-1.6-6.1-6.1-6.1H64.1z"/>
	</g>
	<g>
		<text transform="matrix(1.0671 0 0 1 76.2117 133.2967)" class="st1 st2 st3">假</text>
	</g>
</g>
</svg>
