<?xml version="1.0" encoding="utf-8"?>
<!-- Generator: Adobe Illustrator 22.1.0, SVG Export Plug-In . SVG Version: 6.00 Build 0)  -->
<svg version="1.1" id="图层_1" xmlns="http://www.w3.org/2000/svg" xmlns:xlink="http://www.w3.org/1999/xlink" x="0px" y="0px"
	 viewBox="0 0 206 206" style="enable-background:new 0 0 206 206;" xml:space="preserve">
<style type="text/css">
	.st0{fill:#EF6B52;}
	.st1{fill:#FFFFFF;}
</style>
<g>
	<circle class="st0" cx="103" cy="103" r="100"/>
	<path class="st1" d="M134.9,150.9c-9.6-1.4-17.1-8.9-18.5-18.5h-4c-1.1,0-2-0.9-2-2v-2.2c0-1.1,0.9-2,2-2h4
		c1.4-9.6,8.9-17.1,18.5-18.5v-3.5c0-1.4,1.1-2.5,2.5-2.5h1.2c1.4,0,2.5,1.1,2.5,2.5v3.5c9.6,1.4,17.1,8.9,18.5,18.5h3.8
		c1.2,0,2.2,1,2.2,2.2v1.8c0,1.2-1,2.2-2.2,2.2h-3.8c-1.4,9.6-8.9,17.1-18.5,18.5v4.1c0,1.1-0.9,1.9-1.9,1.9h-2.4
		c-1.1,0-1.9-0.9-1.9-1.9L134.9,150.9L134.9,150.9z M138.1,144.8c9.2,0,16.6-8,15.5-17.4c-0.8-7.2-6.6-13-13.7-13.7
		c-9.4-1-17.4,6.3-17.4,15.5C122.5,137.8,129.4,144.8,138.1,144.8L138.1,144.8z M138.1,135.4c-3.5,0-6.3-2.8-6.2-6.3
		c0-3.3,2.8-6.1,6.2-6.2c3.5,0,6.3,2.8,6.3,6.2C144.3,132.7,141.4,135.4,138.1,135.4L138.1,135.4z"/>
	<g>
		<path class="st1" d="M86.4,103.2h27.2c9-4.9,15.2-14.4,15.2-25.3c0-15.9-12.9-28.7-28.7-28.7S71.3,62.1,71.3,77.8
			C71.3,88.8,77.4,98.3,86.4,103.2z M100,56.2c12,0,21.8,9.7,21.8,21.8c0,12-9.7,21.8-21.8,21.8c-12,0-21.8-9.7-21.8-21.8
			C78.3,65.9,88,56.2,100,56.2z"/>
		<path class="st1" d="M113.1,141H63.7c1.9-18.5,17.5-32.8,36.5-32.8c6.1,0,11.8,1.5,16.8,4.1c1.3-2,2.7-3.9,4.4-5.6
			c-6.3-3.5-13.5-5.5-21.2-5.5c-22.8,0-41.6,17.5-43.5,39.8h-0.3v7h59.8C114.9,145.8,113.9,143.5,113.1,141z"/>
	</g>
</g>
</svg>
