<?xml version="1.0" encoding="utf-8"?>
<!-- Generator: Adobe Illustrator 22.1.0, SVG Export Plug-In . SVG Version: 6.00 Build 0)  -->
<svg version="1.1" id="图层_1" xmlns="http://www.w3.org/2000/svg" xmlns:xlink="http://www.w3.org/1999/xlink" x="0px" y="0px"
	 viewBox="0 0 206 206" style="enable-background:new 0 0 206 206;" xml:space="preserve">
<style type="text/css">
	.st0{fill:#F1634A;}
	.st1{fill:#FFFFFF;}
	.st2{font-family:'SimHei';}
	.st3{font-size:46.1344px;}
</style>
<g>
	<circle class="st0" cx="103" cy="103" r="100"/>
	<path class="st1" d="M52.1,84"/>
	<path class="st1" d="M83,77.2c2.2,0,4-1.8,4-4.1V62.1c0-2.3-1.8-4.1-4-4.1s-4,1.8-4,4.1V73C78.9,75.3,80.7,77.2,83,77.2L83,77.2z"
		/>
	<path class="st1" d="M123.1,77.2c2.2,0,4-1.8,4-4.1V62.1c0-2.3-1.8-4.1-4-4.1s-4,1.8-4,4.1V73C119.1,75.3,120.9,77.2,123.1,77.2
		L123.1,77.2z"/>
	<rect x="53.6" y="83.7" class="st1" width="98.9" height="6.9"/>
	<text transform="matrix(1.0671 0 0 1 67.2538 132.6849)" class="st1 st2 st3">假</text>
	<g>
		<path class="st1" d="M138.2,107c-11.3-1.4-21.6,6.7-23,18s6.7,21.6,18,23c11.3,1.4,21.6-6.7,23-18S149.5,108.4,138.2,107z
			 M133.9,142.7c-8.4-1-14.3-8.6-13.3-16.9s8.6-14.3,16.9-13.3c8.4,1,14.3,8.6,13.3,16.9C149.9,137.7,142.3,143.7,133.9,142.7z"/>
		<path class="st1" d="M158.2,149.8c-0.7,0-1.3-0.2-1.8-0.6l-8.9-8c-1.1-0.9-1.2-2.5-0.2-3.6c0.9-1.1,2.5-1.2,3.6-0.2
			c0,0,0,0,0.1,0.1l8.9,8c1,0.9,1.1,2.5,0.2,3.6C159.5,149.4,158.9,149.7,158.2,149.8z"/>
	</g>
	<path class="st1" d="M115,142.6H64.1c-4.5,0-6.1-1.7-6.1-6.1V78c0-4.5,1.7-6.1,6.1-6.1h78c4.5,0,6.1,1.7,6.1,6.1v29.6
		c2,1.4,3.7,3.1,5.2,5V78c0-6.3-5.1-11.4-11.4-11.4H64c-6.3,0-11.4,5.1-11.4,11.4v58.5c0,6.3,5.1,11.4,11.4,11.4h56.7
		C118.5,146.5,116.6,144.7,115,142.6z"/>
</g>
</svg>
