<?xml version="1.0" encoding="utf-8"?>
<!-- Svg Vector Icons : http://www.sfont.cn -->
<!DOCTYPE svg PUBLIC "-//W3C//DTD SVG 1.1//EN" "http://www.w3.org/Graphics/SVG/1.1/DTD/svg11.dtd">
<svg version="1.1" xmlns="http://www.w3.org/2000/svg" xmlns:xlink="http://www.w3.org/1999/xlink" x="0px" y="0px" viewBox="0 0 1000 1000" enable-background="new 0 0 1000 1000" xml:space="preserve">
<metadata> Svg Vector Icons : http://www.sfont.cn </metadata>
<g><path d="M45,919.8c-19.3,0-35-15.7-35-34.9V395.2c0-19.2,15.7-34.9,35-34.9c19.2,0,35,15.6,35,34.9v489.7C79.9,904.1,64.3,919.8,45,919.8z M885.2,360.2H678c15.1-35,32.4-125.4,22.4-207.6c-8.1-65.7-46.4-116-102.6-135c-41.6-14.1-85.4-7.3-109.2,16.9c-28.1,28.6-41.3,82.9-55.4,140.2c-9.2,37.5-18.7,76.4-30.4,96.4c-34,57.8-105.3,84.2-119.6,89.1H185c-19.2,0-35,15.6-35,34.9v489.7c0,19.2,15.7,34.9,35,34.9h94.7c29.2,15.8,138.2,69.9,264.4,69.9h236.1c38.9,0,105.9-15,131-56.6c25.3-41.9,78.7-424.6,78.7-467.1C989.7,407.4,932.5,360.2,885.2,360.2z M851.1,897.1c-5.3,8.8-39.8,22.7-70.9,22.7H544c-125.1,0-235.3-70-236.4-70l0,0c-5.3,0-11,0-17.6,0h-70V430h69.9c2.9,0,5.5-1,8.1-1.5c0.6-0.2,1.1,0,1.6-0.2c0.2-0.1,1-0.3,1.8-0.6c1-0.3,1.8-0.6,2.8-1c21.3-7,112.1-40.8,158.8-120.2c16.9-28.8,27.2-70.8,38.1-115.2c10.1-41.3,22.7-92.8,37.3-107.7c3.3-2.9,19.7-6.6,40.2,1.4c16.7,6.7,45.8,25.4,52.1,76.3c13.8,112-34.4,218.7-34.8,219.8c-5.1,10.8-4.1,23.2,2.3,33.3c6.4,10,17.6,15.7,29.4,15.7H885c9.4,0,34.5,16.5,34.5,35.9C919.7,512.5,865.7,863.9,851.1,897.1z"/></g>
</svg>