<?xml version="1.0" encoding="utf-8"?>
<!-- Generator: Adobe Illustrator 22.1.0, SVG Export Plug-In . SVG Version: 6.00 Build 0)  -->
<svg version="1.1" id="图层_1" xmlns="http://www.w3.org/2000/svg" xmlns:xlink="http://www.w3.org/1999/xlink" x="0px" y="0px"
	 viewBox="0 0 206 206" style="enable-background:new 0 0 206 206;" xml:space="preserve">
<style type="text/css">
	.st0{fill:#FE970E;}
	.st1{fill:#F2EFE2;}
	.st2{fill:#FFFFFF;}
</style>
<g>
	<circle class="st0" cx="103" cy="103" r="100"/>
	<path class="st1" d="M148.8,101.5c-14.7,0-26.5,11.9-26.5,26.5c0,14.7,11.9,26.5,26.5,26.5s26.5-11.9,26.5-26.5
		C175.4,113.3,163.5,101.5,148.8,101.5z M148.8,151.5c-13,0-23.5-10.5-23.5-23.5c0-13,10.5-23.5,23.5-23.5c13,0,23.5,10.5,23.5,23.5
		C172.3,141,161.8,151.5,148.8,151.5z"/>
	<path class="st2" d="M158.6,138.2l-7.6-18.6c-0.4-0.9-0.7-1.7-0.9-2.2c-0.2-0.6-0.5-1.1-0.9-1.6c-0.3-0.5-0.8-0.9-1.3-1.2
		c-0.5-0.3-1.2-0.5-2.1-0.5c-0.8,0-1.5,0.2-2,0.5c-0.5,0.3-1,0.7-1.3,1.2c-0.3,0.5-0.7,1.1-1,1.9c-0.3,0.8-0.5,1.4-0.8,1.9
		l-7.4,18.7c-0.3,0.8-0.5,1.3-0.7,1.7c-0.1,0.4-0.2,0.8-0.2,1.2c0,0.7,0.3,1.3,0.9,1.8c0.6,0.5,1.2,0.8,2,0.8c0.9,0,1.5-0.3,1.9-0.8
		c0.4-0.5,0.8-1.5,1.4-2.9l1.4-3.7h11.8l1.4,3.6c0.2,0.4,0.4,1,0.7,1.5c0.3,0.6,0.5,1,0.7,1.3c0.2,0.3,0.5,0.5,0.8,0.7
		c0.3,0.2,0.7,0.2,1.2,0.2c0.8,0,1.5-0.3,2-0.8c0.6-0.6,0.8-1.2,0.8-1.8C159.5,140.6,159.2,139.6,158.6,138.2z M141.5,132.2
		l4.3-11.9l4.4,11.9H141.5z"/>
	<path class="st2" d="M165.6,115.5h-3v-2.9c0-1.4-0.8-2.6-2.3-2.6c-1.4,0-2.3,1.2-2.3,2.6v2.9h-2.9c-1.4,0-2.6,0.9-2.6,2.3
		c0,1.4,1.2,2.3,2.6,2.3h2.9v3c0,1.4,0.9,2.6,2.3,2.6c1.4,0,2.3-1.2,2.3-2.6l0-3h3c1.4,0,2.6-0.8,2.6-2.3
		C168.2,116.3,167,115.5,165.6,115.5L165.6,115.5z"/>
	<path class="st2" d="M165.6,116.1"/>
	<path class="st2" d="M71.5,136.7c2-16.4,15.9-29,32.8-29c6.9,0,13.3,2.1,18.6,5.7c1-1.8,2.2-3.5,3.6-5.1c-0.5-0.3-1-0.7-1.5-1
		c0.9-0.2,1.9-0.4,2.8-0.5c5.1-5.1,12.2-8.2,20-8.2c0.3,0,0.5,0,0.8,0c0,0,0.1,0,0.1,0c4.2-4.3,6.9-10.2,6.9-16.7
		c0-13.3-10.8-24-24-24c-3.3,0-6.4,0.7-9.3,1.9c-4.8-4.3-11.1-6.9-18-6.9c-6.9,0-13.2,2.6-18,6.9c-2.8-1.2-6-1.9-9.2-1.9
		c-13.2,0-24,10.7-24,24c0,9.1,5.1,17,12.6,21.1c-12.6,4.4-21.9,15.7-23.3,29.4h-0.1v5.6H65v5h57.6c-0.8-2-1.5-4.1-1.9-6.3H71.5z
		 M90.8,103.9c-0.7-0.3-1.4-0.6-2.1-0.8c0.3-0.2,0.6-0.3,0.8-0.5c0.6,0.4,1.2,0.8,1.9,1.1C91.2,103.7,91,103.8,90.8,103.9z
		 M117.9,103.9c-0.2-0.1-0.5-0.2-0.7-0.3c0.7-0.4,1.3-0.8,1.9-1.2c0.3,0.2,0.6,0.4,1,0.6C119.3,103.3,118.6,103.6,117.9,103.9z
		 M131.5,63.8c10,0,18.2,8.1,18.2,18.2c0,10-8.1,18.2-18.2,18.2c-2.8,0-5.4-0.6-7.7-1.7c4.6-4.9,7.5-11.4,7.5-18.6
		c0-5.7-1.8-11-4.8-15.4C128.1,64.1,129.8,63.8,131.5,63.8z M104.3,59.5c11.3,0,20.5,9.1,20.5,20.5c0,11.3-9.1,20.5-20.5,20.5
		c-11.3,0-20.5-9.1-20.5-20.5C83.9,68.6,93,59.5,104.3,59.5z M59,82c0-10.1,8.2-18.2,18.2-18.2c1.7,0,3.4,0.3,4.9,0.7
		c-3.1,4.4-4.9,9.7-4.9,15.4c0,7.3,2.8,13.8,7.5,18.7c-2.3,1-4.8,1.6-7.5,1.6C67.1,100.2,59,92,59,82z M48.1,132.4
		c1.8-14.5,14.1-25.8,29.2-25.8c2.2,0,4.4,0.3,6.5,0.7c-8.9,5.5-15.5,14.5-17.7,25.1H48.1z"/>
</g>
</svg>
