<?xml version="1.0" encoding="utf-8"?>
<!-- Generator: Adobe Illustrator 22.1.0, SVG Export Plug-In . SVG Version: 6.00 Build 0)  -->
<svg version="1.1" id="图层_1" xmlns="http://www.w3.org/2000/svg" xmlns:xlink="http://www.w3.org/1999/xlink" x="0px" y="0px"
	 viewBox="0 0 206 206" style="enable-background:new 0 0 206 206;" xml:space="preserve">
<style type="text/css">
	.st0{fill:#FE970E;}
	.st1{fill:#FFFFFF;}
</style>
<g>
	<circle class="st0" cx="103" cy="103" r="100"/>
	<g>
		<path class="st1" d="M147.1,151.5c-9.6-1.4-17.1-8.9-18.5-18.5h-4c-1.1,0-2-0.9-2-2v-2.2c0-1.1,0.9-2,2-2h4
			c1.4-9.6,8.9-17.1,18.5-18.5v-3.5c0-1.4,1.1-2.5,2.5-2.5h1.2c1.4,0,2.5,1.1,2.5,2.5v3.5c9.6,1.4,17.1,8.9,18.5,18.5h3.8
			c1.2,0,2.2,1,2.2,2.2v1.8c0,1.2-1,2.2-2.2,2.2h-3.8c-1.4,9.6-8.9,17.1-18.5,18.5v4.1c0,1.1-0.9,1.9-1.9,1.9H149
			c-1.1,0-1.9-0.9-1.9-1.9L147.1,151.5L147.1,151.5z M150.2,145.4c9.2,0,16.6-8,15.5-17.4c-0.8-7.2-6.6-13-13.7-13.7
			c-9.4-1-17.4,6.3-17.4,15.5C134.6,138.4,141.6,145.4,150.2,145.4L150.2,145.4z M150.2,136c-3.5,0-6.3-2.8-6.2-6.3
			c0-3.3,2.8-6.1,6.2-6.2c3.5,0,6.3,2.8,6.3,6.2C156.4,133.3,153.6,136,150.2,136L150.2,136z"/>
		<path class="st1" d="M122.7,143c-0.8-2-1.5-4.1-1.9-6.3H71.5c2-16.4,15.9-29,32.8-29c7.6,0,14.6,2.6,20.2,6.9
			c1-1.8,2.3-3.5,3.6-5.1c-1-0.8-2.1-1.5-3.1-2.2c1.9-0.4,3.9-0.7,6-0.7c4.8-4.3,10.9-7.2,17.7-8c4.2-4.3,6.9-10.2,6.9-16.7
			c0-13.3-10.8-24-24-24c-3.3,0-6.4,0.7-9.3,1.9c-4.8-4.3-11.1-6.9-18-6.9c-6.9,0-13.2,2.6-18,6.9c-2.8-1.2-6-1.9-9.2-1.9
			c-13.2,0-24,10.7-24,24c0,9.1,5.1,17,12.6,21.1c-12.6,4.4-21.9,15.7-23.3,29.4h-0.1v5.6H65v5H122.7z M90.8,103.9
			c-0.7-0.3-1.4-0.6-2.1-0.8c0.3-0.2,0.6-0.3,0.8-0.5c0.6,0.4,1.2,0.8,1.9,1.1C91.2,103.7,91,103.8,90.8,103.9z M117.9,103.9
			c-0.2-0.1-0.5-0.2-0.7-0.3c0.7-0.4,1.3-0.8,1.9-1.2c0.3,0.2,0.6,0.4,1,0.6C119.3,103.3,118.6,103.6,117.9,103.9z M131.5,63.8
			c10,0,18.2,8.1,18.2,18.2c0,10-8.1,18.2-18.2,18.2c-2.8,0-5.4-0.6-7.7-1.7c4.6-4.9,7.5-11.4,7.5-18.6c0-5.7-1.8-11-4.8-15.4
			C128.1,64.1,129.8,63.8,131.5,63.8z M104.3,59.5c11.3,0,20.5,9.1,20.5,20.5c0,11.3-9.1,20.5-20.5,20.5c-11.3,0-20.5-9.1-20.5-20.5
			C83.9,68.6,93,59.5,104.3,59.5z M59,82c0-10.1,8.2-18.2,18.2-18.2c1.7,0,3.4,0.3,4.9,0.7c-3.1,4.4-4.9,9.7-4.9,15.4
			c0,7.3,2.8,13.8,7.5,18.7c-2.3,1-4.8,1.6-7.5,1.6C67.1,100.2,59,92,59,82z M48.1,132.4c1.8-14.5,14.1-25.8,29.2-25.8
			c2.2,0,4.4,0.3,6.5,0.7c-8.9,5.5-15.5,14.5-17.7,25.1H48.1z"/>
	</g>
</g>
</svg>
