<?xml version="1.0" encoding="utf-8"?>
<!-- Generator: Adobe Illustrator 22.1.0, SVG Export Plug-In . SVG Version: 6.00 Build 0)  -->
<svg version="1.1" id="图层_1" xmlns="http://www.w3.org/2000/svg" xmlns:xlink="http://www.w3.org/1999/xlink" x="0px" y="0px"
	 viewBox="0 0 206 206" style="enable-background:new 0 0 206 206;" xml:space="preserve">
<style type="text/css">
	.st0{fill:#FE970E;}
	.st1{fill:#FFFFFF;}
</style>
<circle class="st0" cx="103" cy="103" r="100"/>
<g>
	<g>
		<g>
			<path class="st1" d="M70,142.6c1.6-16.8,15.7-29.9,32.9-29.9s31.3,13.1,32.9,29.9h6.2c-1.6-20.2-18.5-36.1-39.2-36.1
				s-37.5,15.9-39.2,36.1H70z"/>
			<rect x="63.6" y="141.8" class="st1" width="78.5" height="6.3"/>
		</g>
		<path class="st1" d="M90.1,108.7h0.7c3.9-1.2,8-1.9,12.3-1.9h0.1h0.1c4.3,0,8.5,0.7,12.4,1.9c8.4-4.6,14.3-13.5,14.3-23.8
			c0-14.9-12.1-27-27-27S75.9,70,75.9,84.9C75.9,95.3,81.6,104.2,90.1,108.7z M102.9,64.5c11.3,0,20.5,9.1,20.5,20.5
			c0,11.3-9.1,20.5-20.5,20.5c-11.3,0-20.5-9.1-20.5-20.5C82.5,73.7,91.6,64.5,102.9,64.5z"/>
	</g>
	<path class="st1" d="M163.9,137.4c-1.4-13.7-10.7-25.1-23.3-29.4c7.5-4.1,12.6-12,12.6-21.1c0-13.3-10.8-24-24-24
		c-3.5,0-6.8,0.7-9.7,2.1c1.6,1.4,3,2.9,4.2,4.6c1.7-0.5,3.6-0.8,5.5-0.8c10,0,18.2,8.1,18.2,18.2c0,10-8.1,18.2-18.2,18.2
		c-3.2,0-6.2-0.8-8.8-2.2c-1.5,1.4-3.1,2.6-4.9,3.7c0.7,0.5,1.4,0.9,2.2,1.4c-2.5,0.9-4.9,2.1-7.2,3.5c2.5,0.5,4.9,1.4,7.2,2.5
		c3.5-1.5,7.4-2.3,11.5-2.3c15,0,27.4,11.3,29.2,25.8h-22.5c0.4,1.8,0.6,3.7,0.6,5.6H164v-5.6h-0.1V137.4z"/>
	<path class="st1" d="M42.1,137.4c1.4-13.7,10.7-25.1,23.3-29.4c-7.5-4.1-12.6-12-12.6-21.1c0-13.3,10.8-24,24-24
		c3.5,0,6.8,0.7,9.7,2.1c-1.6,1.4-3,2.9-4.2,4.6c-1.7-0.5-3.6-0.8-5.5-0.8c-10,0-18.2,8.1-18.2,18.2c0,10,8.1,18.2,18.2,18.2
		c3.2,0,6.2-0.8,8.8-2.2c1.5,1.4,3.1,2.6,4.9,3.7c-0.7,0.5-1.4,0.9-2.2,1.4c2.5,0.9,4.9,2.1,7.2,3.5c-2.5,0.5-4.9,1.4-7.2,2.5
		c-3.5-1.5-7.4-2.3-11.5-2.3c-15,0-27.4,11.3-29.2,25.8h22.5c-0.4,1.8-0.6,3.7-0.6,5.6H42v-5.6h0.1V137.4z"/>
</g>
</svg>
