<?xml version="1.0" encoding="utf-8"?>
<!-- Generator: Adobe Illustrator 22.1.0, SVG Export Plug-In . SVG Version: 6.00 Build 0)  -->
<svg version="1.1" id="图层_1" xmlns="http://www.w3.org/2000/svg" xmlns:xlink="http://www.w3.org/1999/xlink" x="0px" y="0px"
	 viewBox="0 0 206 206" style="enable-background:new 0 0 206 206;" xml:space="preserve">
<style type="text/css">
	.st0{fill:#FE970E;}
	.st1{fill:#FFFFFF;}
</style>
<g>
	<path d="M145.8,169.5"/>
	<circle class="st0" cx="103" cy="103" r="100"/>
	<path d="M137.4,125.4"/>
	<rect x="45.1" y="83.8" class="st1" width="110.6" height="5.9"/>
	<path class="st1" d="M89.9,126H67.4c-1.9,0-3.5-1.6-3.5-3.5v0c0-1.9,1.6-3.5,3.5-3.5h22.5c1.9,0,3.5,1.6,3.5,3.5v0
		C93.3,124.4,91.8,126,89.9,126z"/>
	<g>
		<path class="st1" d="M138.1,97.1c-13.3,0-24,10.8-24,24s10.8,24,24,24s24-10.8,24-24S151.4,97.1,138.1,97.1z M138.1,139.9
			c-10.3,0-18.7-8.4-18.7-18.7s8.4-18.7,18.7-18.7s18.7,8.4,18.7,18.7S148.4,139.9,138.1,139.9z"/>
		<path class="st1" d="M162.2,147.9c-0.7,0-1.4-0.3-1.9-0.8l-8.9-8.9c-1.1-1-1.1-2.7-0.1-3.8c1-1.1,2.7-1.1,3.8-0.1c0,0,0,0,0.1,0.1
			l8.9,8.9c1,1,1,2.7,0,3.8C163.6,147.6,162.9,147.9,162.2,147.9z"/>
	</g>
	<g>
		<path class="st1" d="M151.3,144.2c0.4-0.2,0.8-0.5,1.2-0.7C152.1,143.8,151.7,144,151.3,144.2z"/>
		<path class="st1" d="M115,139.1H53c-1.1,0-2-0.9-2-2V70c0-1.1,0.9-2,2-2h94.8c1.1,0,2,0.9,2,2v24.7c2.2,1.1,4.1,2.4,5.9,4V70
			c0-4.4-3.5-7.9-7.9-7.9H53c-4.4,0-7.9,3.5-7.9,7.9v67.1c0,4.4,3.5,7.9,7.9,7.9h69.9C120,143.6,117.3,141.6,115,139.1z"/>
	</g>
</g>
</svg>
