<?xml version="1.0" encoding="utf-8"?>
<!-- Generator: Adobe Illustrator 22.1.0, SVG Export Plug-In . SVG Version: 6.00 Build 0)  -->
<svg version="1.1" id="图层_1" xmlns="http://www.w3.org/2000/svg" xmlns:xlink="http://www.w3.org/1999/xlink" x="0px" y="0px"
	 viewBox="0 0 206 206" style="enable-background:new 0 0 206 206;" xml:space="preserve">
<style type="text/css">
	.st0{fill:#FE970E;}
	.st1{fill:#FFFFFF;}
</style>
<g>
	<path d="M149.9,170.2"/>
	<circle class="st0" cx="103" cy="103" r="100"/>
	<path d="M141.5,126.1"/>
	<path class="st1" d="M150.4,69.5c1.1,0,2,0.9,2,2v67.1c0,1.1-0.9,2-2,2H55.6c-1.1,0-2-0.9-2-2V71.4c0-1.1,0.9-2,2-2H150.4z
		 M150.4,63.5H55.6c-4.4,0-7.9,3.5-7.9,7.9v67.1c0,4.4,3.5,7.9,7.9,7.9h94.8c4.4,0,7.9-3.5,7.9-7.9V71.4
		C158.3,67.1,154.8,63.5,150.4,63.5L150.4,63.5z M150.4,63.5"/>
	<rect x="47.7" y="85.3" class="st1" width="110.6" height="5.9"/>
	<path class="st1" d="M92.4,127.4H69.9c-1.9,0-3.5-1.6-3.5-3.5v0c0-1.9,1.6-3.5,3.5-3.5h22.5c1.9,0,3.5,1.6,3.5,3.5v0
		C95.9,125.8,94.3,127.4,92.4,127.4z"/>
</g>
</svg>
