<?xml version="1.0" encoding="utf-8"?>
<!-- Generator: Adobe Illustrator 22.1.0, SVG Export Plug-In . SVG Version: 6.00 Build 0)  -->
<svg version="1.1" id="图层_1" xmlns="http://www.w3.org/2000/svg" xmlns:xlink="http://www.w3.org/1999/xlink" x="0px" y="0px"
	 viewBox="0 0 206 206" style="enable-background:new 0 0 206 206;" xml:space="preserve">
<style type="text/css">
	.st0{fill:#FE970E;}
	.st1{fill:#FFFFFF;}
</style>
<g>
	<circle class="st0" cx="103" cy="103" r="100"/>
	<g>
		<path class="st1" d="M76.6,94c1.5,0,2.6,1.1,2.6,2.4v14.4c0,1.3-1.2,2.4-2.6,2.4s-2.6-1.1-2.6-2.4V96.4C73.9,95.1,75.1,94,76.6,94
			L76.6,94z"/>
		<path class="st1" d="M115.1,100.7c0,4-1.8,7-3.7,7c-0.5,0-0.7,0.3-0.9,0.5c-0.2,0.3-0.5,0.8-0.5,1v15.3c0,2.3-1.8,4.3-3.9,4.3
			c-0.9,0-2.1-0.5-2.5-0.8c-0.7-0.8-1.2-2-1.2-3v-15.5c0-1-0.7-1.5-1.4-1.5c-0.5,0-1.4-0.8-2.3-2c-0.9-1.5-1.6-3.3-1.6-5V78.6h3.7
			v18.1c0,1,0.7,1.5,1.4,1.5c0.9,0,1.4-0.8,1.4-1.5V78.6h5.1v18.1c0,0.8,0.5,1.5,1.2,1.5c0.9,0,1.4-0.8,1.4-1.5V78.6l3.9-0.3
			L115.1,100.7L115.1,100.7z"/>
		<g>
			<path class="st1" d="M134,120.3c-0.4,0-0.7-0.1-1-0.4l-3.8-3.9c-0.5-0.6-0.5-1.4,0-2s1.4-0.6,1.9,0l3.8,3.9c0.5,0.6,0.5,1.4,0,2
				C134.7,120.1,134.3,120.3,134,120.3L134,120.3z"/>
			<path class="st1" d="M134.8,120.3c-0.4,0-0.7-0.1-1-0.4c-0.5-0.6-0.5-1.4,0-2l3.8-3.9c0.5-0.6,1.4-0.6,1.9,0s0.5,1.4,0,2
				l-3.8,3.9C135.5,120.1,135.1,120.3,134.8,120.3L134.8,120.3z"/>
			<path class="st1" d="M139.3,122.1h-9.8c-0.8,0-1.4-0.6-1.4-1.4s0.6-1.4,1.4-1.4h9.8c0.8,0,1.4,0.6,1.4,1.4
				C140.7,121.5,140.1,122.1,139.3,122.1L139.3,122.1z"/>
			<path class="st1" d="M139.3,126.8h-9.8c-0.8,0-1.4-0.6-1.4-1.4s0.6-1.4,1.4-1.4h9.8c0.8,0,1.4,0.6,1.4,1.4
				C140.7,126.2,140.1,126.8,139.3,126.8L139.3,126.8z"/>
			<path class="st1" d="M133,120.3c0-0.8,0.6-1.4,1.4-1.4c0.8,0,1.4,0.6,1.4,1.4v10.1c0,0.8-0.6,1.4-1.4,1.4c-0.8,0-1.4-0.6-1.4-1.4
				V120.3L133,120.3z"/>
		</g>
		<path class="st1" d="M157.5,88.3c2.1-0.9,3.5-2.9,3.5-5.2l0-9.7c0-3-1.2-5.8-3.1-7.8c-2-2.1-4.7-3.2-7.4-3.1h-0.5h-12.3H55.4
			c-2.8-0.1-5.5,1-7.4,3.1c-2,2-3.1,4.9-3.1,7.8l0,9.8c0,2.3,1.4,4.3,3.5,5.1c1.8,0.7,3.4,1.8,4.7,3.3c2.5,2.7,3.9,6.3,3.9,10
			c0,3.8-1.4,7.4-3.9,10c-1.3,1.4-2.9,2.5-4.6,3.2c-2.1,0.8-3.6,2.8-3.6,5.1l0,9.8c-0.1,6.3,4.7,11.6,10.6,11.8h82.4h12.7h0.2
			c0.5,0,0.9-0.1,1.4-0.2l0,0c5.2-1,9-5.8,9-11.6v-9.8c0-2.2-1.4-4.2-3.5-5.1c-1.8-0.7-3.4-1.8-4.7-3.2c-2.5-2.7-3.9-6.3-3.9-10
			c0-3.8,1.4-7.4,3.9-10C154.2,90.1,155.8,89,157.5,88.3z M143.8,101.6c0,5.3,2,10.3,5.4,14c1.8,2,4.1,3.6,6.6,4.6c0,0,0,0,0,0
			l0,9.6c0,3.2-2.3,5.9-5.3,6.1h-12.7H79.2c0,0,0,0,0,0v-13.1c0-1.9-1.8-3.3-3.5-2.6c-1.1,0.4-1.7,1.5-1.7,2.6l0,13.1c0,0,0,0,0,0
			H55.4c-3-0.2-5.3-2.9-5.3-6.1l0-9.6c0,0,0,0,0,0c2.5-1,4.7-2.5,6.6-4.6c3.5-3.7,5.4-8.7,5.4-14s-2-10.3-5.4-14
			c-1.8-2.1-4.1-3.7-6.6-4.6c0,0,0,0,0,0l0-9.6c0-1.5,0.6-2.8,1.6-3.8s2.3-1.5,3.7-1.4h18.5c0,0,0,0,0,0v15.9c0,1.9,1.8,3.3,3.5,2.6
			c1.1-0.4,1.7-1.5,1.7-2.6l0-15.9c0,0,0,0,0,0h58.6h12.4h0.4c1.4-0.1,2.7,0.4,3.7,1.4s1.6,2.4,1.6,3.8l0,9.6c0,0,0,0,0,0
			c-2.5,1-4.8,2.6-6.6,4.6C145.7,91.4,143.8,96.4,143.8,101.6z"/>
	</g>
</g>
</svg>
