<?xml version="1.0" encoding="utf-8"?>
<!-- Generator: Adobe Illustrator 16.0.0, SVG Export Plug-In . SVG Version: 6.00 Build 0)  -->
<!DOCTYPE svg PUBLIC "-//W3C//DTD SVG 1.1//EN" "http://www.w3.org/Graphics/SVG/1.1/DTD/svg11.dtd">
<svg version="1.1" id="图层_1" xmlns="http://www.w3.org/2000/svg" xmlns:xlink="http://www.w3.org/1999/xlink" x="0px" y="0px"
	 width="85.039px" height="85.039px" viewBox="0 0 85.039 85.039" enable-background="new 0 0 85.039 85.039" xml:space="preserve">
<g>
	<circle fill="#D75076" cx="42.519" cy="42.52" r="33.933"/>
	<g>
		<g>
			<path fill="#FFFFFF" d="M38.421,31.815c1.074-0.87,1.761-2.199,1.761-3.688c0-2.622-2.125-4.747-4.747-4.747
				s-4.747,2.125-4.747,4.747c0,1.601,0.794,3.013,2.007,3.873c-1.896,0.983-3.254,2.853-3.533,5.061h1.678
				c0.399-2.354,2.442-4.147,4.908-4.147c2.468,0,4.51,1.793,4.909,4.147h1.675C42.034,34.707,40.515,32.736,38.421,31.815z
				 M35.435,31.212c-1.704,0-3.085-1.382-3.085-3.086c0-1.704,1.381-3.086,3.085-3.086c1.705,0,3.086,1.382,3.086,3.086
				C38.521,29.83,37.14,31.212,35.435,31.212z"/>
			<path fill="#FFFFFF" d="M51.966,31.815c1.073-0.87,1.761-2.199,1.761-3.688c0-2.622-2.125-4.747-4.747-4.747
				s-4.747,2.125-4.747,4.747c0,1.601,0.794,3.013,2.007,3.873c-1.896,0.983-3.254,2.853-3.533,5.061h1.679
				c0.399-2.354,2.441-4.147,4.908-4.147c2.468,0,4.51,1.793,4.909,4.147h1.674C55.579,34.707,54.06,32.736,51.966,31.815z
				 M48.979,31.212c-1.704,0-3.086-1.382-3.086-3.086c0-1.704,1.382-3.086,3.086-3.086c1.705,0,3.086,1.382,3.086,3.086
				C52.065,29.83,50.685,31.212,48.979,31.212z"/>
		</g>
		<g>
			<path fill="#FFFFFF" d="M38.421,48.654c1.074-0.869,1.761-2.198,1.761-3.688c0-2.622-2.125-4.748-4.747-4.748
				s-4.747,2.125-4.747,4.748c0,1.6,0.794,3.012,2.007,3.873c-1.896,0.982-3.254,2.852-3.533,5.061h1.678
				c0.399-2.354,2.442-4.146,4.908-4.146c2.468,0,4.51,1.793,4.909,4.146h1.675C42.034,51.547,40.515,49.576,38.421,48.654z
				 M35.435,48.053c-1.704,0-3.085-1.383-3.085-3.086c0-1.705,1.381-3.086,3.085-3.086c1.705,0,3.086,1.381,3.086,3.086
				C38.521,46.67,37.14,48.053,35.435,48.053z"/>
			<path fill="#FFFFFF" d="M51.966,48.654c1.073-0.869,1.761-2.198,1.761-3.688c0-2.622-2.125-4.748-4.747-4.748
				s-4.747,2.125-4.747,4.748c0,1.6,0.794,3.012,2.007,3.873c-1.896,0.982-3.254,2.852-3.533,5.061h1.679
				c0.399-2.354,2.441-4.146,4.908-4.146c2.468,0,4.51,1.793,4.909,4.146h1.674C55.579,51.547,54.06,49.576,51.966,48.654z
				 M48.979,48.053c-1.704,0-3.086-1.383-3.086-3.086c0-1.705,1.382-3.086,3.086-3.086c1.705,0,3.086,1.381,3.086,3.086
				C52.065,46.67,50.685,48.053,48.979,48.053z"/>
		</g>
		<path fill="#FFFFFF" d="M58.476,37.328H26.564c-5.11,0-9.252,4.143-9.252,9.252c0,5.109,4.142,9.252,9.252,9.252h31.912
			c5.109,0,9.251-4.143,9.251-9.252C67.727,41.47,63.585,37.328,58.476,37.328z M57.265,53.92H27.774
			c-4.723,0-8.551-3.286-8.551-7.34c0-4.054,3.828-7.34,8.551-7.34h29.491c4.723,0,8.551,3.286,8.551,7.34
			C65.815,50.634,61.987,53.92,57.265,53.92z"/>
	</g>
</g>
</svg>
