<?xml version="1.0" encoding="utf-8"?>
<!-- Generator: Adobe Illustrator 22.1.0, SVG Export Plug-In . SVG Version: 6.00 Build 0)  -->
<svg version="1.1" id="图层_1" xmlns="http://www.w3.org/2000/svg" xmlns:xlink="http://www.w3.org/1999/xlink" x="0px" y="0px"
	 viewBox="0 0 206 206" style="enable-background:new 0 0 206 206;" xml:space="preserve">
<style type="text/css">
	.st0{fill:#F36D54;}
	.st1{fill:#FFFFFF;}
</style>
<g>
	<path class="st0" d="M103,3C47.8,3,3,47.8,3,103c0,55.2,44.8,100,100,100s100-44.8,100-100C203,47.8,158.2,3,103,3L103,3z"/>
	<g>
		<path class="st1" d="M110.5,74.5l2.6-1.3c1.6-0.8,3.5-0.1,4.3,1.6c0.8,1.7,0.1,3.6-1.6,4.5l-2.6,1.3c-0.4,0.2-0.9,0.3-1.4,0.3
			c-1.2,0-2.3-0.7-2.9-1.9C108.3,77.2,109,75.2,110.5,74.5L110.5,74.5z"/>
		<path class="st1" d="M148.4,58.3c-1-0.8-2.3-1-3.5-0.4l-19.8,9.7c-1.6,0.8-2.3,2.7-1.6,4.5c0.8,1.7,2.6,2.4,4.3,1.6l5.4-2.7
			l-48.3,51.9l-27.7-14.5l44-21.7c1.6-0.8,2.3-2.7,1.6-4.5c-0.8-1.7-2.6-2.4-4.3-1.6l-49.9,24.6c-1.1,0.5-1.8,1.7-1.8,3
			c0,1.3,0.7,2.4,1.8,3l32,16.7c0.5,0.3,0.9,0.8,1.1,1.4c0,0,0,0,0,0c0.1,0.3,0.2,0.6,0.2,0.9v20.9c0,1.3,0.7,2.4,1.8,3
			c0.5,0.2,1,0.4,1.5,0.4c0.6,0,1.3-0.2,1.8-0.7l17-13.6l17.1,9c0.4,0.2,0.9,0.4,1.4,0.4c0.4,0,0.9-0.1,1.3-0.3
			c0.9-0.4,1.5-1.2,1.8-2.2l23.7-85.3C149.5,60.5,149.2,59.2,148.4,58.3z M87.3,146.3l0.9-14.3l9.2,4.8L87.3,146.3z M120.4,141.4
			L90.9,126l48.2-51.8L120.4,141.4z"/>
	</g>
</g>
</svg>
