<?xml version="1.0" encoding="utf-8"?>
<!-- Generator: Adobe Illustrator 22.1.0, SVG Export Plug-In . SVG Version: 6.00 Build 0)  -->
<svg version="1.1" id="图层_1" xmlns="http://www.w3.org/2000/svg" xmlns:xlink="http://www.w3.org/1999/xlink" x="0px" y="0px"
	 viewBox="0 0 206 206" style="enable-background:new 0 0 206 206;" xml:space="preserve">
<style type="text/css">
	.st0{fill:#EF6B52;}
	.st1{fill:#FFFFFF;}
</style>
<g>
	<path class="st0" d="M203,103c0,55.2-44.8,100-100,100S3,158.2,3,103C3,47.8,47.8,3,103,3S203,47.8,203,103"/>
	<path class="st1" d="M122.5,53.7c-4-7-11.4-11.2-19.5-11.2c-8,0-15.4,4.3-19.5,11.2c-4,7-4,15.5,0,22.5c4,7,11.4,11.2,19.5,11.2
		c8,0,15.4-4.3,19.5-11.2C126.5,69.2,126.5,60.7,122.5,53.7z M103,81.8c-9.3,0-16.8-7.6-16.8-16.8c0-9.3,7.6-16.8,16.8-16.8
		c9.3,0,16.8,7.6,16.8,16.8C119.8,74.2,112.3,81.8,103,81.8z"/>
	<path class="st1" d="M103,101.7c-13.7-12.8-31.8-20-50.5-19.9v61.8c19.5,0,37.3,7.6,50.5,19.9c13.7-12.8,31.8-19.9,50.5-19.9V81.8
		C134.8,81.8,116.7,88.9,103,101.7z M148.2,135.8c-16.4,2.2-38.4,13.3-45.2,20.1c-5.7-7.2-28.8-18-45.2-20.2V88.8
		c13.6,2.5,26.3,5,36.4,14.5l8.8,8.1l8.8-8c10.1-9.5,22.8-12,36.4-14.5V135.8z"/>
	<path class="st1" d="M142.3,133.1"/>
	<rect x="100.2" y="105.4" class="st1" width="5.6" height="51.3"/>
</g>
</svg>
