<?xml version="1.0" encoding="utf-8"?>
<!-- Generator: Adobe Illustrator 22.1.0, SVG Export Plug-In . SVG Version: 6.00 Build 0)  -->
<svg version="1.1" id="图层_1" xmlns="http://www.w3.org/2000/svg" xmlns:xlink="http://www.w3.org/1999/xlink" x="0px" y="0px"
	 viewBox="0 0 146.4 128" style="enable-background:new 0 0 146.4 128;" xml:space="preserve">
<style type="text/css">
	.st0{fill:#1296DB;}
</style>
<path class="st0" d="M84.5,2c-2.6-1.7-5.9-1.7-8.6,0c-7.2,6.2-26.7,23-31.3,27.1H19c-7.1,0-12.8,5.7-12.8,12.8v41.7
	c0.3,6.8,6,12.2,12.8,12.2h21.9c8.2,7.4,27.1,24.3,35.1,30.6c1.4,1.1,3.1,1.8,4.9,1.8c1.3,0,2.5-0.3,3.7-0.8
	c4.5-2.6,7.3-7.4,7.4-12.6V14.1C91.6,9,88.9,4.5,84.5,2z M79.5,111.9c-0.1,0.8-0.3,1.6-0.8,2.2c-8.4-6.8-26.3-22.9-31.6-27.8
	c-0.8-1.3-2.3-2.1-3.8-2.2H20.9c-1.1,0-2-0.8-2.2-1.9V43.2c0-1.3,1-2.3,2.3-2.3h25c0.7,0,1.3-0.2,2-0.5c0.8-0.2,1.5-0.6,2.1-1.1
	c0,0,19.5-17.5,28.2-24.3c0.6,0.6,1.1,1.5,1.3,2.3V111.9z"/>
<rect x="36.2" y="30.5" class="st0" width="11.5" height="63"/>
<path class="st0" d="M137.6,70.6h-20.9c-2.7,0-4.9-2.2-4.9-4.9v0c0-2.7,2.2-4.9,4.9-4.9h20.9c2.7,0,4.9,2.2,4.9,4.9v0
	C142.5,68.4,140.3,70.6,137.6,70.6z"/>
<path class="st0" d="M125.7,108.8l-17.9-12.4c-2.1-1.4-2.7-4.3-1.4-6.4v0c1.4-2.4,4.6-3,6.8-1.5l17.9,12.4c2.1,1.4,2.7,4.3,1.4,6.4
	v0C131.1,109.7,128,110.4,125.7,108.8z"/>
<path class="st0" d="M130.6,31.8l-18.4,11.3c-2.4,1.5-5.4,0.6-6.8-1.8l0,0c-1.2-2.2-0.5-5,1.7-6.4l18.4-11.3
	c2.4-1.5,5.4-0.6,6.8,1.8v0C133.5,27.7,132.8,30.5,130.6,31.8z"/>
</svg>
