<?xml version="1.0" encoding="utf-8"?>
<!-- Generator: Adobe Illustrator 22.1.0, SVG Export Plug-In . SVG Version: 6.00 Build 0)  -->
<svg version="1.1" id="图层_1" xmlns="http://www.w3.org/2000/svg" xmlns:xlink="http://www.w3.org/1999/xlink" x="0px" y="0px"
	 viewBox="0 0 206 206" style="enable-background:new 0 0 206 206;" xml:space="preserve">
<style type="text/css">
	.st0{fill:#FE970E;}
	.st1{fill:#FFFFFF;}
</style>
<g>
	<circle class="st0" cx="103" cy="103" r="100"/>
	<path d="M117,119.4"/>
	<path class="st1" d="M100.9,136.7L100.9,136.7c-1.9,0-3.5-1.6-3.5-3.5v-36c0-1.9,1.6-3.5,3.5-3.5l0,0c1.9,0,3.5,1.6,3.5,3.5v36
		C104.4,135.1,102.8,136.7,100.9,136.7z"/>
	<g>
		<path class="st1" d="M101.9,54.4l51.4,51.4c0.6,0.6,1.4,1,2.3,1l0,0c2.9,0,4.3-3.5,2.3-5.5L106,49.4c-2.3-2.3-5.9-2.3-8.2,0
			l-51.9,51.9c-2,2-0.6,5.5,2.3,5.5l0,0c0.9,0,1.7-0.3,2.3-1L101.9,54.4z"/>
		<path class="st1" d="M143.4,93.7l-5.3-2.9l0.1,0.1v54.5H65.8V90.9l0.1-0.1l-3.5,0.9l-3.5,5.5v49.7c0,2.6,2.1,4.8,4.8,4.8h76.7
			c2.6,0,4.8-2.1,4.8-4.8V97.2L143.4,93.7z"/>
	</g>
</g>
</svg>
