<?xml version="1.0" encoding="utf-8"?>
<!-- Generator: Adobe Illustrator 22.1.0, SVG Export Plug-In . SVG Version: 6.00 Build 0)  -->
<svg version="1.1" id="图层_1" xmlns="http://www.w3.org/2000/svg" xmlns:xlink="http://www.w3.org/1999/xlink" x="0px" y="0px"
	 viewBox="0 0 206 206" style="enable-background:new 0 0 206 206;" xml:space="preserve">
<style type="text/css">
	.st0{fill:#FE970E;}
	.st1{fill:#FFFFFF;}
</style>
<g>
	<circle class="st0" cx="103" cy="103" r="100"/>
	<path d="M117,119.4"/>
	<g>
		<path class="st1" d="M101,113.7h-0.3c-1.9,0-3.4-1.5-3.4-3.4V95.1c0-1.9,1.5-3.4,3.4-3.4h0.3c1.9,0,3.4,1.5,3.4,3.4v15.3
			C104.4,112.2,102.9,113.7,101,113.7z"/>
		<path class="st1" d="M132.4,106.7c-7.2,0-13,5.8-13,13s5.8,13,13,13s13-5.8,13-13S139.6,106.7,132.4,106.7z M132.4,126.7
			c-3.9,0-7-3.1-7-7s3.1-7,7-7s7,3.1,7,7S136.3,126.7,132.4,126.7z"/>
		<path class="st1" d="M122,151.7c-1-1.8-1.6-3.8-1.6-6c0-6.6,5.4-12,12-12c6.6,0,12,5.4,12,12c0,2.2-0.6,4.2-1.6,6h6.6
			c0.7-1.9,1-3.9,1-6c0-9.9-8.1-18-18-18s-18,8.1-18,18c0,2.1,0.4,4.1,1,6H122z"/>
		<path class="st1" d="M157.9,101.2L106,49.3c-2.3-2.3-5.9-2.3-8.2,0L46,101.1c-2.2,2.2-1.6,4.9,1.5,5.6c1.1,0.2,2.2-0.1,3-0.9
			l8.3-8.3V147c0,2.6,2.1,4.8,4.8,4.8h49.8v-3.4c0-1.5-1.3-2.8-2.8-2.8H65.8V90.9l0.1-0.1l-0.6,0.1l36.6-36.6L138.6,91l-0.5-0.3
			l0.1,0.1v11.3c0,1.9,1.5,3.5,3.5,3.5l0,0c1.9,0,3.5-1.5,3.5-3.5v-4.6l8,8c0.7,0.7,1.5,1.1,2.5,1.1
			C158.5,106.7,159.9,103.2,157.9,101.2z"/>
	</g>
	<rect x="113.4" y="150.7" class="st1" width="31" height="1"/>
</g>
</svg>
