<?xml version="1.0" standalone="no"?><!DOCTYPE svg PUBLIC "-//W3C//DTD SVG 1.1//EN" "http://www.w3.org/Graphics/SVG/1.1/DTD/svg11.dtd"><svg t="1542766300296" class="icon" style="" viewBox="0 0 1024 1024" version="1.1" xmlns="http://www.w3.org/2000/svg" p-id="981" xmlns:xlink="http://www.w3.org/1999/xlink" width="200" height="200"><defs><style type="text/css"></style></defs><path d="M512 682.666667c-160.426667 0-290.133333-129.706667-290.133333-290.133334S351.573333 102.4 512 102.4s290.133333 129.706667 290.133333 290.133333-129.706667 290.133333-290.133333 290.133334z m0-512c-122.88 0-221.866667 98.986667-221.866667 221.866666s98.986667 221.866667 221.866667 221.866667 221.866667-98.986667 221.866667-221.866667-98.986667-221.866667-221.866667-221.866666z" fill="#3793DF" p-id="982"></path><path d="M157.013333 921.6c-5.12 0-11.946667-1.706667-17.066666-5.12-17.066667-8.533333-22.186667-30.72-11.946667-46.08C204.8 733.866667 353.28 648.533333 512 648.533333c160.426667 0 303.786667 83.626667 384 221.866667 10.24 17.066667 3.413333 37.546667-11.946667 46.08-17.066667 10.24-37.546667 3.413333-46.08-11.946667-68.266667-117.76-191.146667-187.733333-325.973333-187.733333-134.826667 0-259.413333 71.68-325.973333 187.733333-5.12 10.24-17.066667 17.066667-29.013334 17.066667z" fill="#3793DF" p-id="983"></path><path d="M512 580.266667c-59.733333 0-116.053333-32.426667-146.773333-85.333334-10.24-17.066667-3.413333-37.546667 11.946666-46.08 17.066667-10.24 37.546667-3.413333 46.08 11.946667 18.773333 32.426667 52.906667 51.2 88.746667 51.2s69.973333-20.48 88.746667-51.2c10.24-17.066667 30.72-22.186667 46.08-11.946667 17.066667 10.24 22.186667 30.72 11.946666 46.08-30.72 52.906667-87.04 85.333333-146.773333 85.333334z" fill="#EB4AF4" p-id="984"></path></svg>