<?xml version="1.0" encoding="utf-8"?>
<!-- Generator: Adobe Illustrator 22.1.0, SVG Export Plug-In . SVG Version: 6.00 Build 0)  -->
<svg version="1.1" id="图层_1" xmlns="http://www.w3.org/2000/svg" xmlns:xlink="http://www.w3.org/1999/xlink" x="0px" y="0px"
	 viewBox="0 0 206 206" style="enable-background:new 0 0 206 206;" xml:space="preserve">
<style type="text/css">
	.st0{fill:#FE970E;}
	.st1{fill:#FFFFFF;}
</style>
<g>
	<circle class="st0" cx="103" cy="103" r="100"/>
	<path class="st1" d="M103,103"/>
	<g>
		<path class="st1" d="M103,52.1c-15.8,0-28.5,12.8-28.5,28.5s12.8,28.5,28.5,28.5s28.5-12.8,28.5-28.5S118.7,52.1,103,52.1z
			 M103,102.5c-12.1,0-21.9-9.8-21.9-21.9s9.8-21.9,21.9-21.9s21.9,9.8,21.9,21.9C124.8,92.7,115.1,102.5,103,102.5z"/>
		<path class="st1" d="M140.5,138.1h-20.8c-1.7,0-3.1-1.4-3.1-3.1l0,0c0-1.7,1.4-3.1,3.1-3.1h20.8c1.7,0,3.1,1.4,3.1,3.1l0,0
			C143.6,136.7,142.2,138.1,140.5,138.1z"/>
		<path class="st1" d="M138,125.1h-15.9c-1.7,0-3-1.4-3-3l0,0c0-1.7,1.4-3,3-3H138c1.7,0,3,1.4,3,3l0,0
			C141,123.7,139.7,125.1,138,125.1z"/>
		<path class="st1" d="M143.8,151.6h-38c-1.8,0-3.2-1.5-3.2-3.3l0,0c0-1.8,1.5-3.2,3.2-3.2h38c1.8,0,3.3,1.5,3.3,3.2l0,0
			C147.1,150.2,145.6,151.6,143.8,151.6z"/>
		<g>
			<path class="st1" d="M103.9,143.9L103.9,143.9c-1.6,0-2.8-1.3-2.8-2.8v-21.4c0-1.6,1.3-2.8,2.8-2.8l0,0c1.6,0,2.8,1.3,2.8,2.8
				v21.4C106.8,142.7,105.5,143.9,103.9,143.9z"/>
			<path class="st1" d="M94.4,129.8L94.4,129.8c-1.1-1.2-1.1-3.1,0-4.3l7.5-8.1c1.1-1.2,2.9-1.2,4.1,0l0,0c1.1,1.2,1.1,3.1,0,4.3
				l-7.5,8.1C97.3,131,95.5,131,94.4,129.8z"/>
			<path class="st1" d="M113.4,129.7L113.4,129.7c-1.1,1.2-2.9,1.2-4.1,0l-7.4-8c-1.1-1.2-1.1-3.1,0-4.3l0,0c1.1-1.2,2.9-1.2,4.1,0
				l7.4,8C114.5,126.5,114.5,128.5,113.4,129.7z"/>
		</g>
		<path class="st1" d="M80.7,151.9H62.5c-1.8,0-3.2-1.5-3.2-3.2l0,0c0-1.8,1.5-3.2,3.2-3.2h18.3c1.8,0,3.2,1.5,3.2,3.2l0,0
			C84,150.5,82.5,151.9,80.7,151.9z"/>
		<path class="st1" d="M124.2,113.2c1.1-1.8,0.4-4-1.4-4.9c-5.8-2.8-12.4-4.4-19.3-4.4c-24.6,0-44.5,19.9-44.5,44.5l0,0
			c0,1.9,1.6,3.5,3.5,3.5l0,0c1.9,0,3.5-1.6,3.5-3.5l0,0c0-20.7,16.8-37.5,37.5-37.5c5.8,0,11.4,1.3,16.3,3.7
			C121.3,115.3,123.2,114.8,124.2,113.2L124.2,113.2z"/>
	</g>
</g>
</svg>
