<?xml version="1.0" encoding="utf-8"?>
<!-- Generator: Adobe Illustrator 22.1.0, SVG Export Plug-In . SVG Version: 6.00 Build 0)  -->
<svg version="1.1" id="图层_1" xmlns="http://www.w3.org/2000/svg" xmlns:xlink="http://www.w3.org/1999/xlink" x="0px" y="0px"
	 viewBox="0 0 206 206" style="enable-background:new 0 0 206 206;" xml:space="preserve">
<style type="text/css">
	.st0{fill:#FE970E;}
	.st1{fill:#FFFFFF;}
</style>
<g>
	<circle class="st0" cx="103" cy="103" r="100"/>
	<g>
		<path class="st1" d="M100.7,111.5L100.7,111.5c-1.8,0-3.2-1.4-3.2-3.2V77c0-1.8,1.4-3.2,3.2-3.2h0c1.8,0,3.2,1.4,3.2,3.2v31.3
			C103.9,110.1,102.5,111.5,100.7,111.5z"/>
		<path class="st1" d="M102.8,108.8L102.8,108.8c0,1.7-1.4,3.1-3.1,3.1H68.2c-1.7,0-3.1-1.4-3.1-3.1v0c0-1.7,1.4-3.1,3.1-3.1h31.6
			C101.4,105.7,102.8,107.1,102.8,108.8z"/>
		<path class="st1" d="M100,57.1c15.3-0.1,28.8,7.3,37.2,18.6c1.9-1.2,3.9-2.1,5.9-2.9c-10-14.2-26.9-23.2-45.9-22.1
			C70.5,52.3,49,74.3,48,101c-1.1,30,23.1,54.6,52.9,54.3c0,0,0,0,0,0v-6.5c-0.9,0-1.8,0-2.7,0c-25.9-1.2-45.8-23.7-43.5-49.8
			C56.7,75.6,76.5,57.3,100,57.1z"/>
		<path class="st1" d="M154.7,87H116c-1.9,0-3.4,1.5-3.4,3.4v60.4c0,1.9,1.5,3.4,3.4,3.4h38.6c1.9,0,3.4-1.5,3.4-3.4V90.4
			C158,88.6,156.5,87,154.7,87z M153.5,92.1v57.8h-36.4V92.1H153.5z"/>
		<path class="st1" d="M143.4,106.9h-16.3c-1.3,0-2.4-1.1-2.4-2.4v0c0-1.3,1.1-2.4,2.4-2.4h16.3c1.3,0,2.4,1.1,2.4,2.4v0
			C145.8,105.9,144.7,106.9,143.4,106.9z"/>
		<path class="st1" d="M143.2,121.6h-16.3c-1.3,0-2.4-1.1-2.4-2.4v0c0-1.3,1.1-2.4,2.4-2.4h16.3c1.3,0,2.4,1.1,2.4,2.4v0
			C145.6,120.6,144.5,121.6,143.2,121.6z"/>
		<path class="st1" d="M143.2,136.5h-16.3c-1.3,0-2.4-1.1-2.4-2.4l0,0c0-1.3,1.1-2.4,2.4-2.4h16.3c1.3,0,2.4,1.1,2.4,2.4l0,0
			C145.6,135.5,144.5,136.5,143.2,136.5z"/>
	</g>
</g>
</svg>
