<?xml version="1.0" encoding="utf-8"?>
<!-- Generator: Adobe Illustrator 22.1.0, SVG Export Plug-In . SVG Version: 6.00 Build 0)  -->
<svg version="1.1" id="图层_1" xmlns="http://www.w3.org/2000/svg" xmlns:xlink="http://www.w3.org/1999/xlink" x="0px" y="0px"
	 viewBox="0 0 206 206" style="enable-background:new 0 0 206 206;" xml:space="preserve">
<style type="text/css">
	.st0{fill:#F36D54;}
	.st1{fill:#FFFFFF;}
</style>
<g>
	<ellipse class="st0" cx="103" cy="103" rx="100" ry="99.4"/>
	<path class="st1" d="M102.9,113.7c-16,0-29,13-29,29c0,16,13,29,29,29s29-13,29-29C131.9,126.7,118.9,113.7,102.9,113.7z
		 M102.9,166.5c-13.1,0-23.8-10.6-23.8-23.8c0-13.1,10.6-23.8,23.8-23.8c13.1,0,23.8,10.6,23.8,23.8
		C126.7,155.8,116,166.5,102.9,166.5z"/>
	<path class="st1" d="M141.2,76c-9,0-16.2,7.3-16.2,16.2c0,9,7.3,16.2,16.2,16.2s16.2-7.3,16.2-16.2C157.4,83.3,150.2,76,141.2,76z
		 M141.2,104.3c-6.7,0-12.1-5.4-12.1-12.1c0-6.7,5.4-12.1,12.1-12.1s12.1,5.4,12.1,12.1C153.3,98.9,147.9,104.3,141.2,104.3z"/>
	<path class="st1" d="M64.9,76.3c-9,0-16.2,7.3-16.2,16.2c0,9,7.3,16.2,16.2,16.2s16.2-7.3,16.2-16.2C81.1,83.6,73.9,76.3,64.9,76.3
		z M64.9,104.7c-6.7,0-12.1-5.4-12.1-12.1c0-6.7,5.4-12.1,12.1-12.1S77,85.9,77,92.6C77,99.2,71.6,104.7,64.9,104.7z"/>
	<path class="st1" d="M102.4,39.9c-9.1,0-16.5,7.4-16.5,16.5s7.4,16.5,16.5,16.5s16.5-7.4,16.5-16.5S111.5,39.9,102.4,39.9z
		 M102.4,67.8c-6.2,0-11.3-5.1-11.3-11.3c0-6.3,5-11.3,11.3-11.3s11.3,5.1,11.3,11.3C113.7,62.7,108.6,67.8,102.4,67.8z"/>
	<path class="st1" d="M64.8,76.1c-9.1,0-16.5,7.4-16.5,16.5s7.4,16.5,16.5,16.5s16.5-7.4,16.5-16.5S73.9,76.1,64.8,76.1z
		 M64.8,103.8c-6.2,0-11.3-5-11.3-11.3c0-6.2,5-11.3,11.3-11.3S76,86.4,76,92.6C76,98.8,71,103.8,64.8,103.8z"/>
	<path class="st1" d="M141.3,75.8c-9.1,0-16.5,7.4-16.5,16.5s7.4,16.5,16.5,16.5c9.1,0,16.5-7.4,16.5-16.5S150.4,75.8,141.3,75.8z
		 M141.3,103.6c-6.2,0-11.3-5-11.3-11.3c0-6.2,5-11.3,11.3-11.3c6.2,0,11.3,5,11.3,11.3C152.5,98.5,147.5,103.6,141.3,103.6z"/>
	
		<rect x="70.2" y="72.8" transform="matrix(0.7071 -0.7071 0.7071 0.7071 -28.4659 80.6057)" class="st1" width="25.8" height="3.7"/>
	
		<rect x="110.9" y="108.8" transform="matrix(0.7071 -0.7071 0.7071 0.7071 -41.9363 119.991)" class="st1" width="25.9" height="3.6"/>
	
		<rect x="120.2" y="60.6" transform="matrix(-0.7071 0.7071 -0.7071 -0.7071 260.235 39.5758)" class="st1" width="3.4" height="26.1"/>
	
		<rect x="80.4" y="97.7" transform="matrix(0.7071 -0.7071 0.7071 0.7071 -53.8877 90.346)" class="st1" width="3.4" height="25.1"/>
	<path class="st1" d="M84.8,161.3h3.9c2.7-5.2,8.1-8.8,14.4-8.8s11.7,3.6,14.4,8.8h3.9c-1.6-4.3-4.8-8-8.8-10.2c0,0,0,0,0,0
		c-1.1-0.6-2.3-1.2-3.6-1.5h0.1c4-2.2,6.8-6.4,6.8-11.3c0-7.1-5.8-12.9-12.9-12.9c-7.1,0-12.9,5.8-12.9,12.9c0,4.9,2.8,9.2,6.8,11.3
		h0.2c-1.3,0.4-2.5,0.9-3.6,1.5c0,0,0,0,0,0C89.6,153.4,86.5,157,84.8,161.3z M94.2,138.2c0-5.1,4-9.2,8.9-9.2
		c4.9,0,8.9,4.1,8.9,9.2c0,5.1-4,9.2-8.9,9.2C98.2,147.4,94.2,143.3,94.2,138.2z"/>
	<path class="st1" d="M88.3,164c1.9-6.5,7.9-11.2,15-11.2c7,0,12.8,4.5,14.9,10.8h1.1c-2.1-6.9-8.4-11.9-16-11.9
		c-7.8,0-14.3,5.3-16.1,12.6C87.5,164.2,87.9,164.1,88.3,164z"/>
</g>
</svg>
