<?xml version="1.0" encoding="utf-8"?>
<!-- Svg Vector Icons : http://www.sfont.cn -->
<!DOCTYPE svg PUBLIC "-//W3C//DTD SVG 1.1//EN" "http://www.w3.org/Graphics/SVG/1.1/DTD/svg11.dtd">
<svg version="1.1" xmlns="http://www.w3.org/2000/svg" xmlns:xlink="http://www.w3.org/1999/xlink" x="0px" y="0px" viewBox="0 0 1000 1000" enable-background="new 0 0 1000 1000" xml:space="preserve">
<metadata> Svg Vector Icons : http://www.sfont.cn </metadata>
<g><path d="M84.3,700.5V189.8h830.2v510.6H778.9c0,0,51.9,11.8,81.4,70.8H990V113.2H10v658.1h258.3c0,0-33-14.2-30.7-70.8"/><path d="M368.1,886.8l-73.9-232.7c0,0-10.6-28.5,6.5-38.5c17.1-10,63.1,50.1,138.6,168c0,0,60.1-36.6,99.1-35.4c0,0,62.5,55.5,135.6,2.4c0,0,130.9-12.4,184,136.2L368.1,886.8L368.1,886.8z"/><path d="M607.6,498.6c-64.9,0-117.6,52-117.6,115.9c0,63.9,52.7,115.9,117.6,115.9c64.8,0,117.6-52,117.6-115.9C725.2,550.6,672.5,498.6,607.6,498.6z"/><path d="M607.6,702.9c-49.9,0-90.5-39.8-90.5-88.8c0-48.9,40.6-88.8,90.5-88.8c49.9,0,90.5,39.8,90.5,88.8C698.1,663.1,657.5,702.9,607.6,702.9z"/></g>
</svg>