<?xml version="1.0" encoding="utf-8"?>
<!-- Generator: Adobe Illustrator 16.0.0, SVG Export Plug-In . SVG Version: 6.00 Build 0)  -->
<!DOCTYPE svg PUBLIC "-//W3C//DTD SVG 1.1//EN" "http://www.w3.org/Graphics/SVG/1.1/DTD/svg11.dtd">
<svg version="1.1" id="图层_1" xmlns="http://www.w3.org/2000/svg" xmlns:xlink="http://www.w3.org/1999/xlink" x="0px" y="0px"
	 width="85.039px" height="85.039px" viewBox="0 0 85.039 85.039" enable-background="new 0 0 85.039 85.039" xml:space="preserve">
<g>
	<circle fill="#39B073" cx="42.52" cy="41.749" r="33.833"/>
	<g>
		<path fill="#FFFFFF" d="M42.513,31.747c-5.178,0-9.375,4.196-9.375,9.375c0,5.177,4.197,9.375,9.375,9.375
			s9.375-4.197,9.375-9.375C51.888,35.943,47.69,31.747,42.513,31.747z M42.513,47.311c-3.419,0-6.191-2.771-6.191-6.188
			c0-3.42,2.772-6.191,6.191-6.191s6.19,2.771,6.19,6.191C48.703,44.539,45.932,47.311,42.513,47.311z"/>
		<g>
			<path fill="#FFFFFF" d="M31.679,24.265v8.668c0,2.232-1.811,4.041-4.042,4.041c-2.232,0-4.042-1.809-4.042-4.041v-8.668
				c0,0-0.188-0.957-1.177-0.957c-0.989,0-1.22,0.957-1.22,0.957v8.637c0,3.572,2.896,6.472,6.47,6.472
				c3.572,0,6.469-2.896,6.469-6.472v-8.637c0,0-0.271-0.957-1.25-0.957C31.907,23.308,31.679,24.265,31.679,24.265z"/>
			<rect x="23.013" y="31.339" fill="#FFFFFF" width="9.458" height="2.426"/>
			<path fill="#FFFFFF" d="M28.93,32.058c0,0.666-0.541,1.207-1.208,1.207l0,0c-0.667,0-1.208-0.541-1.208-1.207v-7.631
				c0-0.668,0.541-1.209,1.208-1.209l0,0c0.667,0,1.208,0.541,1.208,1.209V32.058z"/>
			<g>
				<path fill="#FFFFFF" d="M27.461,37.017c0.04,0,0.079,0.012,0.117,0.014c0.041-0.002,0.08-0.014,0.121-0.014H27.461z"/>
				<path fill="#FFFFFF" d="M27.578,37.031c-2.259,0.146-3.847,4.293-3.847,6.577l-0.479,12.625c0,2.322,1.884,4.207,4.208,4.207
					c2.323,0,4.208-1.885,4.208-4.207v-12.48C31.669,40.23,29.847,37.177,27.578,37.031z M28.961,54.045
					c0.083,2.021-0.672,2.896-1.5,2.896c-0.829,0-1.625-0.625-1.5-2.896l0.171-8.691c0-1.57,0.565-4.427,1.372-4.526
					c-0.015-0.004-0.028-0.012-0.042-0.012h0.085c-0.016,0-0.029,0.008-0.043,0.012c0.809,0.102,1.458,2.094,1.458,4.627
					L28.961,54.045L28.961,54.045z"/>
			</g>
		</g>
		<g>
			<g>
				<path fill="#FFFFFF" d="M57.211,37.017c0.04,0,0.079,0.012,0.118,0.014c0.04-0.002,0.079-0.014,0.12-0.014H57.211z"/>
				<path fill="#FFFFFF" d="M57.329,37.031c-2.26,0.146-3.848,4.293-3.848,6.577l-0.479,12.625c0,2.322,1.884,4.207,4.208,4.207
					c2.323,0,4.208-1.885,4.208-4.207v-12.48C61.419,40.23,59.597,37.177,57.329,37.031z M58.711,54.045
					c0.083,2.021-0.672,2.896-1.5,2.896c-0.829,0-1.625-0.625-1.5-2.896l0.171-8.691c0-1.57,0.565-4.427,1.372-4.526
					c-0.015-0.004-0.028-0.012-0.042-0.012h0.085c-0.016,0-0.029,0.008-0.043,0.012c0.809,0.102,1.458,2.094,1.458,4.627
					L58.711,54.045L58.711,54.045z"/>
			</g>
			<path fill="#FFFFFF" d="M57.324,23.058c-3.598,0-6.516,4.951-6.516,11.307c0,2.943,2.917,4.007,6.516,4.007
				c3.6,0,6.517-1.063,6.517-4.007C63.841,28.009,60.923,23.058,57.324,23.058z M57.211,36.527c-2.2,0-3.864-0.934-3.864-2.905
				c0-4.267,1.903-7.875,4.104-7.875c2.201,0,3.864,3.608,3.864,7.875C61.313,35.595,59.41,36.527,57.211,36.527z"/>
		</g>
	</g>
</g>
</svg>
