<?xml version="1.0" standalone="no"?><!DOCTYPE svg PUBLIC "-//W3C//DTD SVG 1.1//EN" "http://www.w3.org/Graphics/SVG/1.1/DTD/svg11.dtd"><svg t="1554879531390" class="icon" style="" viewBox="0 0 1024 1024" version="1.1" xmlns="http://www.w3.org/2000/svg" p-id="2608" xmlns:xlink="http://www.w3.org/1999/xlink" width="200" height="200"><defs><style type="text/css"></style></defs><path d="M65 512c0 246.854 200.146 447 447 447 246.854 0 447-200.146 447-447 0-246.854-200.146-447-447-447C265.146 65 65 265.146 65 512zM94.8 512C94.8 281.952 281.952 94.8 512 94.8S929.199 281.952 929.199 512 742.048 929.2 512 929.2 94.8 742.048 94.8 512z" p-id="2609"></path><path d="M402.694 275.55 638.082 512 402.694 748.45 385.918 731.601 604.528 512 385.918 292.429Z" p-id="2610"></path></svg>