<?xml version="1.0" encoding="utf-8"?>
<!-- Generator: Adobe Illustrator 16.0.0, SVG Export Plug-In . SVG Version: 6.00 Build 0)  -->
<!DOCTYPE svg PUBLIC "-//W3C//DTD SVG 1.1//EN" "http://www.w3.org/Graphics/SVG/1.1/DTD/svg11.dtd">
<svg version="1.1" id="图层_1" xmlns="http://www.w3.org/2000/svg" xmlns:xlink="http://www.w3.org/1999/xlink" x="0px" y="0px"
	 width="85.039px" height="85.039px" viewBox="0 0 85.039 85.039" enable-background="new 0 0 85.039 85.039" xml:space="preserve">
<g>
	<circle fill="#E54C10" cx="42.793" cy="44.083" r="33.833"/>
	<g>
		<path fill="#FFFFFF" d="M44.268,59.491H27.213c1.333-6.287,6.912-11.005,13.595-11.005c1.286,0,2.53,0.178,3.711,0.505
			c0.745-3.47,3.107-6.332,6.261-7.772c0.568-1.342,0.89-2.814,0.89-4.365c0-6.211-5.035-11.247-11.247-11.247
			c-6.212,0-11.248,5.036-11.248,11.247c0,4.146,2.25,7.758,5.589,9.709c-5.493,2.104-9.608,6.986-10.633,12.929v3.066h20.136
			V59.491z M32.145,36.854c0-4.572,3.706-8.278,8.279-8.278c4.571,0,8.278,3.706,8.278,8.278s-3.707,8.277-8.278,8.277
			C35.851,45.131,32.145,41.426,32.145,36.854z"/>
		<g>
			<path fill="#FFFFFF" d="M60.955,48.729H46.246c-0.275,0-0.5,0.214-0.5,0.479V62.08c0,0.264,0.225,0.479,0.5,0.479h14.709
				c0.275,0,0.5-0.216,0.5-0.479V49.207C61.455,48.942,61.23,48.729,60.955,48.729z M59.039,59.946c0,0.267-0.225,0.479-0.5,0.479
				H48.58c-0.275,0-0.5-0.213-0.5-0.479v-8.608c0-0.265,0.225-0.479,0.5-0.479h9.959c0.275,0,0.5,0.214,0.5,0.479V59.946z"/>
			<path fill="#FFFFFF" d="M50.472,50.232v-2.27c0-1.629,1.381-2.951,3.085-2.951s3.085,1.322,3.085,2.951v2.27h2.208v-2.561
				c0-2.772-2.352-5.021-5.25-5.021s-5.25,2.249-5.25,5.021v2.561H50.472z"/>
			<ellipse fill="#FFFFFF" cx="53.414" cy="55.742" rx="2.375" ry="2.271"/>
		</g>
	</g>
</g>
</svg>
