<?xml version="1.0" encoding="utf-8"?>
<!-- Generator: Adobe Illustrator 22.1.0, SVG Export Plug-In . SVG Version: 6.00 Build 0)  -->
<svg version="1.1" id="图层_1" xmlns="http://www.w3.org/2000/svg" xmlns:xlink="http://www.w3.org/1999/xlink" x="0px" y="0px"
	 viewBox="0 0 206 206" style="enable-background:new 0 0 206 206;" xml:space="preserve">
<style type="text/css">
	.st0{fill:#DD5A59;}
	.st1{fill:#FFFFFF;}
	.st2{fill:none;}
</style>
<circle class="st0" cx="103.3" cy="103.3" r="100"/>
<path class="st1" d="M80.3,78.1c2.2,0,4-1.8,4-4.1V63.2c0-2.3-1.8-4.1-4-4.1c-2.2,0-4,1.8-4,4.1V74C76.3,76.3,78.1,78.1,80.3,78.1
	L80.3,78.1z"/>
<path class="st1" d="M120.5,78.1c2.2,0,4-1.8,4-4.1V63.2c0-2.3-1.8-4.1-4-4.1c-2.2,0-4,1.8-4,4.1V74
	C116.5,76.3,118.3,78.1,120.5,78.1L120.5,78.1z"/>
<path class="st1" d="M117.7,96.1c-1.2-0.6-2.6-0.3-3.3,0.8l-16.1,25.9l-9.5-11.1c-0.8-1-2.3-1.1-3.4-0.4c-1.1,0.8-1.3,2.2-0.6,3.2
	l11.8,17.3c0.5,0.7,1.2,1.1,2.1,1.1h0.1c0.9,0,1.6-0.5,2.1-1.3l17.8-32.4C119.3,98.1,118.8,96.7,117.7,96.1L117.7,96.1z"/>
<rect x="51" y="84.7" class="st1" width="98.9" height="6.9"/>
<path class="st1" d="M51,84.7"/>
<path class="st1" d="M139.4,149h-78c-6.3,0-11.4-5.1-11.4-11.4V79c0-6.3,5.1-11.4,11.4-11.4h78c6.3,0,11.4,5.1,11.4,11.4v58.5
	C150.8,143.8,145.7,149,139.4,149L139.4,149z M61.4,73c-4.4,0-6.1,1.6-6.1,6.1v58.5c0,4.4,1.6,6.1,6.1,6.1h78c4.4,0,6.1-1.6,6.1-6.1
	V79c0-4.4-1.6-6.1-6.1-6.1H61.4z M61.4,71"/>
<rect id="_x3C_切片_x3E__10_" class="st2" width="206" height="206"/>
</svg>
