<?xml version="1.0" standalone="no"?><!DOCTYPE svg PUBLIC "-//W3C//DTD SVG 1.1//EN" "http://www.w3.org/Graphics/SVG/1.1/DTD/svg11.dtd"><svg t="1553588859931" class="icon" style="" viewBox="0 0 1024 1024" version="1.1" xmlns="http://www.w3.org/2000/svg" p-id="1967" xmlns:xlink="http://www.w3.org/1999/xlink" width="200" height="200"><defs><style type="text/css"></style></defs><path d="M975.909214 1023.906879 48.089763 1023.906879c-26.520003 0-47.988967-21.49557-47.988967-47.988967L0.100796 48.085158c0-26.507724 21.468964-47.991014 47.988967-47.991014l927.81945 0c26.520003 0 47.988967 21.48329 47.988967 47.991014L1023.898181 975.916888C1023.899204 1002.411309 1002.429217 1023.906879 975.909214 1023.906879zM927.918199 96.074126 96.081801 96.074126l0 831.851749 831.838446 0L927.920246 96.074126 927.918199 96.074126zM304.040133 448.0055c13.245675 0 25.244964 5.374404 33.918507 14.060227l110.053512 110.041232 222.032886-222.019583c8.674567-8.685823 20.671809-14.059204 33.917484-14.059204 26.520003 0 47.991014 21.48329 47.991014 47.989991 0 13.247722-5.374404 25.245987-14.072507 33.93181L481.930659 673.925926c-8.674567 8.647961-20.670785 14.046924-33.918507 14.046924-13.245675 0-25.2685-5.39794-33.918507-14.046924L270.122649 529.927301c-8.698103-8.683776-14.072507-20.681018-14.072507-33.929764C256.050142 469.489814 277.520129 448.0055 304.040133 448.0055zM735.95619 687.97285l0-0.023536C735.95619 687.97285 735.95619 687.97285 735.95619 687.97285L735.95619 687.97285zM735.95619 336.015893c0 0.01228 0 0.01228 0 0.01228 0 0.01228 0 0.01228 0 0.024559L735.95619 336.015893z" p-id="1968" fill="#bfbfbf"></path></svg>