<?xml version="1.0" standalone="no"?><!DOCTYPE svg PUBLIC "-//W3C//DTD SVG 1.1//EN" "http://www.w3.org/Graphics/SVG/1.1/DTD/svg11.dtd"><svg t="1542766355542" class="icon" style="" viewBox="0 0 1024 1024" version="1.1" xmlns="http://www.w3.org/2000/svg" p-id="1569" xmlns:xlink="http://www.w3.org/1999/xlink" width="200" height="200"><defs><style type="text/css"></style></defs><path d="M411.306667 701.44c-160.426667 0-290.133333-129.706667-290.133334-290.133333s129.706667-290.133333 290.133334-290.133334 290.133333 129.706667 290.133333 290.133334-129.706667 290.133333-290.133333 290.133333z m0-512c-122.88 0-221.866667 98.986667-221.866667 221.866667s98.986667 221.866667 221.866667 221.866666 221.866667-98.986667 221.866666-221.866666-98.986667-221.866667-221.866666-221.866667z" fill="#3793DF" p-id="1570"></path><path d="M261.12 481.28c-13.653333 0-27.306667-8.533333-32.426667-23.893333-1.706667-5.12-1.706667-8.533333-3.413333-13.653334v-3.413333c-5.12-17.066667 3.413333-37.546667 22.186667-42.666667 17.066667-5.12 37.546667 3.413333 42.666666 22.186667 1.706667 5.12 1.706667 8.533333 3.413334 13.653333v3.413334c5.12 17.066667-3.413333 37.546667-22.186667 42.666666-3.413333 1.706667-6.826667 1.706667-10.24 1.706667zM411.306667 597.333333c-47.786667 0-95.573333-18.773333-133.12-54.613333-13.653333-13.653333-13.653333-34.133333 0-47.786667 13.653333-13.653333 34.133333-13.653333 47.786666 0 46.08 46.08 121.173333 46.08 168.96 0 13.653333-13.653333 34.133333-13.653333 47.786667 0s13.653333 34.133333 0 47.786667C506.88 580.266667 459.093333 597.333333 411.306667 597.333333z" fill="#EB4AF4" p-id="1571"></path><path d="M868.693333 902.826667c-8.533333 0-17.066667-3.413333-23.893333-10.24L592.213333 640c-13.653333-13.653333-13.653333-34.133333 0-47.786667s34.133333-13.653333 47.786667 0l252.586667 252.586667c13.653333 13.653333 13.653333 34.133333 0 47.786667-6.826667 6.826667-15.36 10.24-23.893334 10.24z" fill="#3793DF" p-id="1572"></path></svg>