<?xml version="1.0" standalone="no"?><!DOCTYPE svg PUBLIC "-//W3C//DTD SVG 1.1//EN" "http://www.w3.org/Graphics/SVG/1.1/DTD/svg11.dtd"><svg t="1542763570046" class="icon" style="" viewBox="0 0 1024 1024" version="1.1" xmlns="http://www.w3.org/2000/svg" p-id="2385" xmlns:xlink="http://www.w3.org/1999/xlink" width="200" height="200"><defs><style type="text/css"></style></defs><path d="M781.866667 514.986667a42.666667 42.666667 0 0 1-42.666667-42.666667 225.706667 225.706667 0 1 0-451.2 0 42.666667 42.666667 0 0 1-85.333333 0 311.04 311.04 0 1 1 621.866666 0 42.666667 42.666667 0 0 1-42.666666 42.666667z" fill="#FC455D" p-id="2386"></path><path d="M426.508497 737.327843m-30.16989 30.169889a42.666667 42.666667 0 1 0 60.339779-60.339778 42.666667 42.666667 0 1 0-60.339779 60.339778Z" fill="#FF9B57" p-id="2387"></path><path d="M784 837.333333a94.506667 94.506667 0 0 1-94.293333-94.293333V661.333333a94.293333 94.293333 0 1 1 188.586666 0v82.56a94.506667 94.506667 0 0 1-94.293333 93.44z m0-207.36A30.293333 30.293333 0 0 0 753.706667 661.333333v82.56a30.293333 30.293333 0 0 0 60.586666 0V661.333333a30.293333 30.293333 0 0 0-30.293333-31.36zM245.333333 837.333333a94.506667 94.506667 0 0 1-94.293333-94.293333V661.333333a94.293333 94.293333 0 1 1 188.586667 0v82.56a94.506667 94.506667 0 0 1-94.293334 93.44z m0-207.36A30.293333 30.293333 0 0 0 215.04 661.333333v82.56a30.293333 30.293333 0 0 0 60.586667 0V661.333333a30.293333 30.293333 0 0 0-30.293334-31.36z" fill="#FD8F9E" p-id="2388"></path></svg>