<?xml version="1.0" standalone="no"?><!DOCTYPE svg PUBLIC "-//W3C//DTD SVG 1.1//EN" "http://www.w3.org/Graphics/SVG/1.1/DTD/svg11.dtd"><svg t="1542763616630" class="icon" style="" viewBox="0 0 1024 1024" version="1.1" xmlns="http://www.w3.org/2000/svg" p-id="2783" xmlns:xlink="http://www.w3.org/1999/xlink" width="200" height="200"><defs><style type="text/css"></style></defs><path d="M512 938.666667a123.733333 123.733333 0 0 1-121.813333-102.826667 343.466667 343.466667 0 0 1-89.386667-49.92 123.52 123.52 0 0 1-128-208.64 347.306667 347.306667 0 0 1-2.986667-112.64 123.306667 123.306667 0 0 1 114.773334-213.333333 345.6 345.6 0 0 1 106.666666-64 123.52 123.52 0 0 1 243.626667 0 345.6 345.6 0 0 1 106.666667 64 123.306667 123.306667 0 0 1 114.773333 213.333333 347.306667 347.306667 0 0 1-2.986667 112.64 123.52 123.52 0 0 1-128 208.64 343.466667 343.466667 0 0 1-89.386666 49.92A123.733333 123.733333 0 0 1 512 938.666667z m-207.573333-248.533334a42.666667 42.666667 0 0 1 29.44 11.733334 256 256 0 0 0 109.226666 61.44 42.666667 42.666667 0 0 1 30.933334 48.64 19.626667 19.626667 0 0 0 0 3.413333 38.186667 38.186667 0 0 0 76.373333 0 19.626667 19.626667 0 0 0 0-3.413333 42.666667 42.666667 0 0 1 30.933333-48.64 256 256 0 0 0 109.226667-61.44 42.666667 42.666667 0 0 1 58.453333 0 38.186667 38.186667 0 1 0 39.466667-64 42.666667 42.666667 0 0 1-26.24-52.48 252.586667 252.586667 0 0 0 10.666667-73.6 257.493333 257.493333 0 0 0-6.613334-58.026667A42.666667 42.666667 0 0 1 789.333333 405.333333a38.186667 38.186667 0 0 0-15.36-72.96 38.613333 38.613333 0 0 0-21.333333 6.186667 42.666667 42.666667 0 0 1-53.76-6.613333 260.053333 260.053333 0 0 0-119.253333-71.466667 42.666667 42.666667 0 0 1-30.72-48.426667 19.413333 19.413333 0 0 0 0-3.413333 38.186667 38.186667 0 1 0-76.373334 0 19.413333 19.413333 0 0 0 0 3.413333 42.666667 42.666667 0 0 1-30.72 48.426667 259.84 259.84 0 0 0-119.253333 71.466667 42.666667 42.666667 0 0 1-53.76 6.613333 38.826667 38.826667 0 0 0-21.333333-6.186667A38.186667 38.186667 0 0 0 234.666667 405.333333a42.666667 42.666667 0 0 1 24.32 48.64 257.493333 257.493333 0 0 0-7.466667 58.026667 252.586667 252.586667 0 0 0 10.666667 73.6 42.666667 42.666667 0 0 1-26.24 52.48 38.186667 38.186667 0 1 0 39.466666 64 42.666667 42.666667 0 0 1 29.013334-11.946667z" fill="#FC455D" p-id="2784"></path><path d="M512 685.44A173.44 173.44 0 1 1 685.44 512a32 32 0 0 1-64 0A109.44 109.44 0 1 0 512 621.44a32 32 0 1 1 0 64z" fill="#FD8F9E" p-id="2785"></path><path d="M512.015085 511.993752m-30.169889 30.169889a42.666667 42.666667 0 1 0 60.339778-60.339779 42.666667 42.666667 0 1 0-60.339778 60.339779Z" fill="#FF9B57" p-id="2786"></path></svg>