<?xml version="1.0" standalone="no"?><!DOCTYPE svg PUBLIC "-//W3C//DTD SVG 1.1//EN" "http://www.w3.org/Graphics/SVG/1.1/DTD/svg11.dtd"><svg t="1542766365808" class="icon" style="" viewBox="0 0 1024 1024" version="1.1" xmlns="http://www.w3.org/2000/svg" p-id="1687" xmlns:xlink="http://www.w3.org/1999/xlink" width="200" height="200"><defs><style type="text/css"></style></defs><path d="M791.893333 554.666667h-580.266666c-18.773333 0-34.133333-15.36-34.133334-34.133334s15.36-34.133333 34.133334-34.133333h580.266666c18.773333 0 34.133333 15.36 34.133334 34.133333s-15.36 34.133333-34.133334 34.133334z" fill="#EB4AF4" p-id="1688"></path><path d="M394.24 762.88c-18.773333 0-34.133333-13.653333-34.133333-32.426667l-17.066667-413.013333c0-18.773333 13.653333-34.133333 32.426667-35.84 18.773333 0 34.133333 13.653333 35.84 32.426667l17.066666 413.013333c0 18.773333-13.653333 35.84-34.133333 35.84 1.706667 0 0 0 0 0zM590.506667 762.88s-1.706667 0 0 0c-20.48 0-34.133333-17.066667-34.133334-35.84l17.066667-413.013333c0-18.773333 17.066667-34.133333 35.84-32.426667 18.773333 0 34.133333 17.066667 32.426667 35.84l-17.066667 413.013333c0 18.773333-15.36 32.426667-34.133333 32.426667z" fill="#EB4AF4" p-id="1689"></path><path d="M740.693333 759.466667h-477.866666c-37.546667 0-66.56-29.013333-68.266667-66.56l-34.133333-339.626667v-3.413333c0-37.546667 30.72-68.266667 68.266666-68.266667h546.133334c37.546667 0 68.266667 30.72 68.266666 68.266667v3.413333l-34.133333 339.626667c-1.706667 37.546667-30.72 66.56-68.266667 66.56z m0-68.266667v34.133333-34.133333z m-512-341.333333l34.133334 337.92v3.413333h477.866666v-3.413333l34.133334-337.92h-546.133334z" fill="#3793DF" p-id="1690"></path><path d="M365.226667 897.706667c-56.32 0-102.4-46.08-102.4-102.4s46.08-102.4 102.4-102.4 102.4 46.08 102.4 102.4-46.08 102.4-102.4 102.4z m0-136.533334c-18.773333 0-34.133333 15.36-34.133334 34.133334s15.36 34.133333 34.133334 34.133333 34.133333-15.36 34.133333-34.133333-15.36-34.133333-34.133333-34.133334zM638.293333 897.706667c-56.32 0-102.4-46.08-102.4-102.4s46.08-102.4 102.4-102.4 102.4 46.08 102.4 102.4-46.08 102.4-102.4 102.4z m0-136.533334c-18.773333 0-34.133333 15.36-34.133333 34.133334s15.36 34.133333 34.133333 34.133333 34.133333-15.36 34.133334-34.133333-15.36-34.133333-34.133334-34.133334zM800.426667 462.506667h-3.413334c-18.773333-1.706667-32.426667-18.773333-30.72-37.546667l29.013334-267.946667c1.706667-18.773333 18.773333-32.426667 37.546666-30.72 18.773333 1.706667 32.426667 18.773333 30.72 37.546667l-29.013333 267.946667c-1.706667 17.066667-17.066667 30.72-34.133333 30.72z" fill="#3793DF" p-id="1691"></path></svg>