<?xml version="1.0" encoding="utf-8"?>
<!-- Generator: Adobe Illustrator 16.0.0, SVG Export Plug-In . SVG Version: 6.00 Build 0)  -->
<!DOCTYPE svg PUBLIC "-//W3C//DTD SVG 1.1//EN" "http://www.w3.org/Graphics/SVG/1.1/DTD/svg11.dtd">
<svg version="1.1" id="图层_1" xmlns="http://www.w3.org/2000/svg" xmlns:xlink="http://www.w3.org/1999/xlink" x="0px" y="0px"
	 width="76.552px" height="74.482px" viewBox="0 0 76.552 74.482" enable-background="new 0 0 76.552 74.482" xml:space="preserve">
<g>
	<circle fill="#EFAB1F" cx="38.239" cy="36.858" r="33.833"/>
	<g>
		<path fill="#FFFFFF" d="M22.521,28.008c-0.828-0.121-1.449-0.929-1.449-1.889s0.622-1.768,1.449-1.889h23.688
			c0.829,0.121,1.45,0.929,1.45,1.889s-0.622,1.768-1.45,1.889H22.521z"/>
		<path fill="#FFFFFF" d="M22.522,38.75c-0.828-0.121-1.45-0.93-1.45-1.889s0.622-1.768,1.45-1.889H46.21
			c0.828,0.121,1.45,0.93,1.45,1.889s-0.622,1.769-1.45,1.889H22.522z"/>
		<path fill="#FFFFFF" d="M22.522,50.38c-0.828-0.12-1.45-0.929-1.45-1.888c0-0.959,0.622-1.768,1.45-1.889H46.21
			c0.828,0.121,1.45,0.93,1.45,1.889c0,0.959-0.622,1.768-1.45,1.888H22.522z"/>
		<path fill="#FFFFFF" d="M56.344,49.513c0,0.699-0.846,1.266-1.889,1.266l0,0c-1.042,0-1.889-0.568-1.889-1.266V26.863
			c0-0.699,0.846-1.266,1.889-1.266l0,0c1.043,0,1.889,0.567,1.889,1.266V49.513z"/>
		<path fill="#FFFFFF" d="M61.886,32.566c-0.688,0.784-1.785,0.948-2.449,0.365l-6.359-5.578c-0.665-0.583-0.646-1.69,0.042-2.475
			l0,0c0.687-0.784,1.784-0.948,2.448-0.365l6.359,5.578C62.593,30.674,62.573,31.782,61.886,32.566L61.886,32.566z"/>
	</g>
</g>
</svg>
