<?xml version="1.0" encoding="utf-8"?>
<!-- Generator: Adobe Illustrator 22.1.0, SVG Export Plug-In . SVG Version: 6.00 Build 0)  -->
<svg version="1.1" id="图层_1" xmlns="http://www.w3.org/2000/svg" xmlns:xlink="http://www.w3.org/1999/xlink" x="0px" y="0px"
	 viewBox="0 0 206 206" style="enable-background:new 0 0 206 206;" xml:space="preserve">
<style type="text/css">
	.st0{fill:none;}
	.st1{fill:#F25940;}
	.st2{fill:#FFFFFF;}
	.st3{fill:none;stroke:#FFFFFF;stroke-width:5;stroke-miterlimit:10;}
</style>
<g>
	<polyline id="_x3C_切片_x3E__3_" class="st0" points="206,206 0,206 0,0 206,0 	"/>
	<circle class="st1" cx="104.9" cy="104.8" r="100"/>
	<path class="st2" d="M81.9,82.8"/>
	<g>
		<path class="st2" d="M141,105.8c-12-0.4-22.1,8.9-22.5,20.9s8.9,22.1,20.9,22.5c12,0.4,22.1-8.9,22.5-20.9
			C162.3,116.3,153,106.2,141,105.8z M139.6,143.5c-8.8-0.3-15.8-7.8-15.4-16.6s7.8-15.8,16.6-15.4s15.8,7.8,15.4,16.6
			C155.9,136.9,148.5,143.9,139.6,143.5z"/>
		<g>
			
				<rect x="155.7" y="137.6" transform="matrix(0.608 -0.7939 0.7939 0.608 -51.164 180.8471)" class="st2" width="3.7" height="9.3"/>
			<path class="st2" d="M167,142.6c-2.6-2-6.1-1.6-8,0.8c-1.8,2.4-1.3,6,1.3,7.9l5.7,4.4c2.6,2,6.1,1.6,8-0.8c1.8-2.4,1.3-6-1.3-7.9
				L167,142.6z M170.7,152.4c-0.7,0.9-2.5,0.8-3.9-0.3l-3.2-2.5c-1.4-1.1-2-2.8-1.3-3.7s2.5-0.8,3.9,0.3l3.2,2.5
				C170.8,149.8,171.4,151.5,170.7,152.4z"/>
		</g>
		<path class="st3" d="M139.4,138.1c-7-4.9-7.9-10.3-3-17.3"/>
		<circle class="st2" cx="140.9" cy="116.9" r="3"/>
		<path class="st2" d="M114.5,100.1c9-4.9,15.2-14.4,15.2-25.3c0-15.9-12.9-28.7-28.7-28.7S72.1,58.9,72.1,74.8
			c0,11,6.2,20.5,15.2,25.3h0.6C71.4,105.3,59,120,57.5,137.9h-0.1v7H117c-1.3-2.2-2.3-4.5-3-7H64.5c1.9-18.5,17.5-32.8,36.5-32.8
			c6.1,0,11.8,1.5,16.8,4.1c1.3-2,2.7-3.9,4.4-5.6c-2.6-1.4-5.3-2.6-8.2-3.5H114.5z M100.9,96.6c-12,0-21.8-9.7-21.8-21.8
			c0-12,9.8-21.8,21.8-21.8s21.8,9.7,21.8,21.8C122.7,86.8,113,96.6,100.9,96.6z"/>
	</g>
</g>
</svg>
