<?xml version="1.0" encoding="utf-8"?>
<!-- Generator: Adobe Illustrator 22.1.0, SVG Export Plug-In . SVG Version: 6.00 Build 0)  -->
<svg version="1.1" id="图层_1" xmlns="http://www.w3.org/2000/svg" xmlns:xlink="http://www.w3.org/1999/xlink" x="0px" y="0px"
	 viewBox="0 0 206 206" style="enable-background:new 0 0 206 206;" xml:space="preserve">
<style type="text/css">
	.st0{fill:#FE970E;}
	.st1{fill:#909399;}
	.st2{fill:#FFFFFF;}
	.st3{fill:#F2EBE7;}
</style>
<g>
	<circle class="st0" cx="103" cy="103" r="100"/>
	<path class="st1" d="M52.3,67.8"/>
	<path class="st2" d="M156.1,58.1"/>
	<g>
		<path class="st2" d="M87.8,133.1c-6.2,0-11.2,5-11.2,11.2s5,11.2,11.2,11.2s11.2-5,11.2-11.2S94,133.1,87.8,133.1z M87.8,149.2
			c-2.8,0-5-2.2-5-5s2.2-5,5-5s5,2.2,5,5S90.6,149.2,87.8,149.2z"/>
		<path class="st2" d="M125,133.1c-6.2,0-11.2,5-11.2,11.2s5,11.2,11.2,11.2s11.2-5,11.2-11.2S131.2,133.1,125,133.1z M125,149.2
			c-2.8,0-5-2.2-5-5s2.2-5,5-5s5,2.2,5,5S127.8,149.2,125,149.2z"/>
		<path class="st2" d="M150.2,74.8c-0.7-0.8-1.8-1.3-2.8-1.3H84.1c-2.1,0-3.7,1.7-3.7,3.7c0,2.1,1.7,3.3,3.7,3.3l59.3-0.1l-6.2,38.1
			l-61.6,0.1l-10.5-57c-0.3-1.8-1.6-3.1-3.4-3H50.6c-2.1,0-3.7,1.7-3.7,3.7c0,2.1,1.7,3.7,3.7,3.7h8.1l10.5,56.5v0.3
			c0,0.1,0.1,0.3,0.1,0.4l0.1,0.2c0.1,0.1,0.1,0.3,0.2,0.4l0.1,0.2l0.3,0.3l0.2,0.2l0.3,0.3l0.2,0.2l0.4,0.2l0.3,0.1l0.4,0.1H72
			c0.3,0.1,0.5,0.1,0.8,0.1h67c1.8,0,3.4-1.3,3.7-3.1l7.4-44.7C151.3,76.7,151,75.6,150.2,74.8L150.2,74.8z"/>
		<path class="st3" d="M124.3,103.2h-10.7c-2,0-3.6-1.6-3.6-3.6s1.6-3.6,3.6-3.6h10.7c2,0,3.6,1.6,3.6,3.6S126.3,103.2,124.3,103.2
			L124.3,103.2z M99.3,103.2H88.6c-2,0-3.6-1.6-3.6-3.6s1.6-3.6,3.6-3.6h10.7c2,0,3.6,1.6,3.6,3.6
			C102.9,101.6,101.3,103.2,99.3,103.2L99.3,103.2z"/>
	</g>
</g>
</svg>
