<?xml version="1.0" encoding="utf-8"?>
<!-- Generator: Adobe Illustrator 22.1.0, SVG Export Plug-In . SVG Version: 6.00 Build 0)  -->
<svg version="1.1" id="图层_1" xmlns="http://www.w3.org/2000/svg" xmlns:xlink="http://www.w3.org/1999/xlink" x="0px" y="0px"
	 viewBox="0 0 206 206" style="enable-background:new 0 0 206 206;" xml:space="preserve">
<style type="text/css">
	.st0{fill:#FFFFFF;}
	.st1{fill:#FE970E;}
	.st2{fill:none;}
</style>
<g>
	<path class="st0" d="M43.5,84.8"/>
	<circle class="st1" cx="103" cy="103" r="100"/>
	<rect x="43.7" y="55.3" class="st2" width="120.7" height="95.1"/>
	<g>
		<path class="st0" d="M161.5,76.5L102,54.7c-0.8-0.3-1.6-0.2-2.4,0.1L44.2,80.5c-2.4,1.1-2.4,4.5,0,5.6l57.7,25.7
			c0.9,0.4,1.8,0.4,2.7-0.1l57.2-29.6C164.3,80.9,164,77.5,161.5,76.5z M103.3,104.6L53.1,83.2l48.2-22.1l52.3,18.3L103.3,104.6z"/>
		<g>
			<polygon class="st0" points="141.8,134.7 141.8,90.7 135.8,90.7 135.8,134.8 			"/>
			<polygon class="st0" points="70.6,136 70.6,92.7 64.6,92.7 64.6,136.1 			"/>
		</g>
		<path class="st0" d="M141.8,124.3c-6.1,12.6-21.1,22.9-38.8,22.9c-17.2,0-32-9.8-38.4-21.7v11.8c9.1,9,22.9,16.1,38.4,16.1
			c15.8,0,29.8-7.4,38.8-16.7V124.3z"/>
		<path class="st0" d="M154,123.3L154,123.3c-1.9,0-3.4-1.5-3.4-3.4V85.2c0-1.9,1.5-3.4,3.4-3.4h0c1.9,0,3.4,1.5,3.4,3.4v34.7
			C157.4,121.8,155.9,123.3,154,123.3z"/>
		<path class="st0" d="M154,145.2L154,145.2c-1.9,0-3.4-1.5-3.4-3.4v-8.6c0-1.9,1.5-3.4,3.4-3.4h0c1.9,0,3.4,1.5,3.4,3.4v8.6
			C157.4,143.6,155.9,145.2,154,145.2z"/>
	</g>
</g>
</svg>
