<?xml version="1.0" encoding="utf-8"?>
<!-- Svg Vector Icons : http://www.sfont.cn -->
<!DOCTYPE svg PUBLIC "-//W3C//DTD SVG 1.1//EN" "http://www.w3.org/Graphics/SVG/1.1/DTD/svg11.dtd">
<svg version="1.1" xmlns="http://www.w3.org/2000/svg" xmlns:xlink="http://www.w3.org/1999/xlink" x="0px" y="0px" viewBox="0 0 1000 1000" enable-background="new 0 0 1000 1000" xml:space="preserve">
<metadata> Svg Vector Icons : http://www.sfont.cn </metadata>
<g><path d="M629.6,472.8c49-38.2,80.7-97.5,80.7-164.1c0-115.1-94.2-208.7-210.1-208.7c-115.9,0-210.1,93.6-210.1,208.7c0,66.6,31.7,125.8,80.7,164.1C241.6,524,150.1,649.4,150.1,795.7v69.5c0,19.2,15.7,34.8,35,34.8h630.3c19.3,0,35-15.6,35-34.8v-69.5C850.4,649.3,758.8,524,629.6,472.8L629.6,472.8L629.6,472.8L629.6,472.8z M348.2,308.4c0-83.3,68.2-151,152-151c83.8,0,152,67.7,152,151c0,83.3-68.2,151-152,151C416.4,459.4,348.2,391.7,348.2,308.4L348.2,308.4L348.2,308.4L348.2,308.4z M797.7,842.9h-595V806c0-163,133.5-295.5,297.5-295.5c164,0,297.5,132.6,297.5,295.5V842.9L797.7,842.9L797.7,842.9L797.7,842.9z M228.9,505l6.8-1.6c14.7-4.9,25.1-17.7,25.1-32.7c0-14.5-9.8-26.9-23.6-32.2c-37.5-16.9-61.7-54-61.7-95c0-46.4,40.3-85.4,82.5-99c7.4-22.6,18.5-43.6,32.8-62.1c2.5-4.1,5.1-8.1,7.8-12c-2.8-0.1-5.5-0.8-8.4-0.8c-96.5,0-175.1,78-175.1,173.9c0,44,16.9,85.3,45.5,116.7C69.4,507.1,10,600.9,10,707.1v53.8c0,19.2,15.7,34.8,35,34.8h62.7c0-23.8,2.5-39.1,7.1-61.6H70.5v-27C70.5,610.9,135.5,528.4,228.9,505L228.9,505L228.9,505L228.9,505z M839.5,460.2c28.7-31.4,45.5-72.7,45.5-116.7c0-95.9-78.5-174-175.1-174c-2.9,0-5.6,0.7-8.4,0.8c2.7,3.9,5.3,7.9,7.8,12c14.2,18.5,25.4,39.5,32.7,62.1c42.2,13.5,88.3,52.6,88.3,99c0,40.9-24.2,78.1-61.7,95c-13.9,5.2-23.7,17.6-23.7,32.2c0,15,10.5,27.8,25.1,32.7l6.8,1.6c93.4,23.4,158.4,105.9,158.4,202.1v27h-50.2c4.6,22.5,7.1,37.8,7.1,61.6H955c19.4,0,35-15.5,35-34.8v-53.8C990.1,600.9,930.6,507.1,839.5,460.2L839.5,460.2L839.5,460.2L839.5,460.2z"/></g>
</svg>