<?xml version="1.0" encoding="utf-8"?>
<!-- Generator: Adobe Illustrator 16.0.0, SVG Export Plug-In . SVG Version: 6.00 Build 0)  -->
<!DOCTYPE svg PUBLIC "-//W3C//DTD SVG 1.1//EN" "http://www.w3.org/Graphics/SVG/1.1/DTD/svg11.dtd">
<svg version="1.1" id="图层_1" xmlns="http://www.w3.org/2000/svg" xmlns:xlink="http://www.w3.org/1999/xlink" x="0px" y="0px"
	 width="85.039px" height="85.039px" viewBox="0 0 85.039 85.039" enable-background="new 0 0 85.039 85.039" xml:space="preserve">
<g>
	<circle fill="#26AAAA" cx="42.52" cy="42.52" r="33.833"/>
	<polygon fill="#FFFFFF" points="55.103,53.979 55.103,58.426 30.395,58.426 30.395,26.238 55.103,26.238 55.103,29.937 
		57.978,29.937 57.978,22.458 27.603,22.458 27.603,62.582 57.978,62.582 57.978,53.979 	"/>
	<rect x="32.369" y="34.029" fill="#FFFFFF" width="9.354" height="1.984"/>
	<rect x="32.369" y="40.699" fill="#FFFFFF" width="9.354" height="1.984"/>
	<rect x="32.369" y="47.561" fill="#FFFFFF" width="9.354" height="1.984"/>
	<g>
		<path fill="#FFFFFF" d="M54.356,31.506c-5.638,0-10.208,4.57-10.208,10.208s4.57,10.208,10.208,10.208s10.208-4.569,10.208-10.208
			S59.994,31.506,54.356,31.506z M54.356,48.674c-3.843,0-6.958-3.115-6.958-6.958c0-3.843,3.115-6.958,6.958-6.958
			s6.958,3.115,6.958,6.958C61.314,45.559,58.199,48.674,54.356,48.674z"/>
		<path fill="#FFFFFF" d="M53.527,44.391c-0.738,0-1.338-0.598-1.338-1.337l0,0c0-0.739,0.6-1.338,1.338-1.338h2.637
			c0.738,0,1.338,0.599,1.338,1.338l0,0c0,0.74-0.6,1.337-1.338,1.337H53.527z"/>
		<path fill="#FFFFFF" d="M54.846,42.689c0,0.733-0.596,1.328-1.328,1.328l0,0c-0.732,0-1.328-0.595-1.328-1.328v-3.094
			c0-0.733,0.596-1.328,1.328-1.328l0,0c0.732,0,1.328,0.595,1.328,1.328V42.689z"/>
	</g>
</g>
</svg>
