<?xml version="1.0" standalone="no"?><!DOCTYPE svg PUBLIC "-//W3C//DTD SVG 1.1//EN" "http://www.w3.org/Graphics/SVG/1.1/DTD/svg11.dtd"><svg t="1541664653638" class="icon" style="" viewBox="0 0 1024 1024" version="1.1" xmlns="http://www.w3.org/2000/svg" p-id="618" xmlns:xlink="http://www.w3.org/1999/xlink" width="128" height="128"><defs><style type="text/css"></style></defs><path d="M512 0a512 512 0 1 0 512 512A512 512 0 0 0 512 0z m31.744 814.762667a54.954667 54.954667 0 0 1-75.093333 0 49.834667 49.834667 0 0 1-14.677334-37.546667 46.762667 46.762667 0 0 1 14.677334-36.522667 49.834667 49.834667 0 0 1 37.546666-14.677333 51.882667 51.882667 0 0 1 39.936 14.677333 50.176 50.176 0 0 1 14.677334 36.522667 48.128 48.128 0 0 1-17.066667 37.546667z m125.610667-348.842667a864.256 864.256 0 0 1-70.656 68.266667 179.541333 179.541333 0 0 0-40.96 46.08 121.856 121.856 0 0 0-16.725334 63.829333v20.138667h-68.266666v-20.138667a173.397333 173.397333 0 0 1 15.701333-75.776 363.861333 363.861333 0 0 1 88.064-102.4 387.413333 387.413333 0 0 0 29.696-31.402667 108.202667 108.202667 0 0 0 26.282667-68.266666 110.250667 110.250667 0 0 0-29.696-81.237334 112.981333 112.981333 0 0 0-85.333334-30.378666 111.274667 111.274667 0 0 0-96.938666 42.666666 157.696 157.696 0 0 0-28.672 100.352h-68.266667a204.8 204.8 0 0 1 51.541333-146.432 188.074667 188.074667 0 0 1 144.384-56.661333 189.44 189.44 0 0 1 134.485334 46.08 159.061333 159.061333 0 0 1 48.810666 122.88 164.522667 164.522667 0 0 1-33.450666 102.4z" p-id="619"></path></svg>
