<?xml version="1.0" encoding="utf-8"?>
<!-- Generator: Adobe Illustrator 22.1.0, SVG Export Plug-In . SVG Version: 6.00 Build 0)  -->
<svg version="1.1" id="图层_1" xmlns="http://www.w3.org/2000/svg" xmlns:xlink="http://www.w3.org/1999/xlink" x="0px" y="0px"
	 viewBox="0 0 128 128" style="enable-background:new 0 0 128 128;" xml:space="preserve">
<style type="text/css">
	.st0{fill:#D81E06;}
</style>
<path class="st0" d="M64,123c6.9,0,12.6-5.6,12.6-12.5H51.4C51.4,117.3,57.1,123,64,123z M101.6,85.3V54c0-19.3-10.2-35.4-28.2-39.7
	V10c0-5.2-4.2-9.4-9.4-9.4s-9.4,4.2-9.4,9.4v4.3C36.6,18.6,26.4,34.6,26.4,54v31.4L13.8,97.9v6.3h100.4v-6.3L101.6,85.3z M89.1,91.6
	H38.9V54c0-15.6,9.5-28.2,25.1-28.2S89.1,38.4,89.1,54V91.6z"/>
</svg>
