<?xml version="1.0" standalone="no"?><!DOCTYPE svg PUBLIC "-//W3C//DTD SVG 1.1//EN" "http://www.w3.org/Graphics/SVG/1.1/DTD/svg11.dtd"><svg t="1554967524667" class="icon" style="" viewBox="0 0 1171 1024" version="1.1" xmlns="http://www.w3.org/2000/svg" p-id="3983" xmlns:xlink="http://www.w3.org/1999/xlink" width="146.375" height="128"><defs><style type="text/css"></style></defs><path d="M626.751426 11.683782a63.426243 63.426243 0 0 0-68.433578 0c-57.584352 49.238794-213.646292 183.602282-250.366748 216.984515H102.650367A102.650367 102.650367 0 0 0 0 331.318663v333.822331a102.650367 102.650367 0 0 0 102.650367 97.643032h175.256723c65.92991 59.253464 216.984515 194.451508 280.410758 244.524857a62.591687 62.591687 0 0 0 39.224124 14.18745 66.764466 66.764466 0 0 0 29.209454-6.676447 119.341483 119.341483 0 0 0 59.253464-100.981255V108.492258A119.341483 119.341483 0 0 0 626.751426 11.683782zM603.383863 108.492258v808.684596a41.727791 41.727791 0 0 1-6.676447 19.194784c-71.771801-58.418908-224.495518-195.286064-270.396088-237.848411a41.727791 41.727791 0 0 0-32.547677-19.194784H102.650367A20.02934 20.02934 0 0 1 83.455583 663.471883v-333.822331a20.02934 20.02934 0 0 1 20.02934-20.02934H317.131214a40.893236 40.893236 0 0 0 16.691117-4.172779 40.893236 40.893236 0 0 0 17.525672-9.180114s166.911165-149.385493 241.186634-207.804401a41.727791 41.727791 0 0 1 10.849226 20.02934zM867.103504 303.778321a41.143602 41.143602 0 1 0-53.411572 62.591687 245.359413 245.359413 0 0 1 77.613691 153.558272 250.366748 250.366748 0 0 1-77.613691 183.602282 41.060147 41.060147 0 0 0 60.922575 55.080685 333.822331 333.822331 0 0 0 99.312143-246.193969 328.814996 328.814996 0 0 0-106.823146-208.638957z" p-id="3984" fill="#1296db"></path><path d="M1139.168704 363.031785a578.347188 578.347188 0 0 0-142.709046-221.157294 41.727791 41.727791 0 0 0-30.04401-10.01467 40.893236 40.893236 0 0 0-28.374898 13.352893 41.727791 41.727791 0 0 0 0 58.418908 500.733496 500.733496 0 0 1 119.341483 186.940505A409.766911 409.766911 0 0 1 1084.922575 595.872861a557.483293 557.483293 0 0 1-126.852485 260.381418 41.727791 41.727791 0 0 0 5.84189 57.584352 40.893236 40.893236 0 0 0 57.584353-5.841891 637.600652 637.600652 0 0 0 144.378158-299.605542 490.718826 490.718826 0 0 0-26.705787-245.359413z" p-id="3985" fill="#1296db"></path></svg>