<?xml version="1.0" encoding="utf-8"?>
<!-- Generator: Adobe Illustrator 22.1.0, SVG Export Plug-In . SVG Version: 6.00 Build 0)  -->
<svg version="1.1" id="图层_1" xmlns="http://www.w3.org/2000/svg" xmlns:xlink="http://www.w3.org/1999/xlink" x="0px" y="0px"
	 viewBox="0 0 206 206" style="enable-background:new 0 0 206 206;" xml:space="preserve">
<style type="text/css">
	.st0{fill:#FFFFFF;}
	.st1{fill:#EF6B52;}
</style>
<path class="st0" d="M246.9,107.7"/>
<g>
	<path class="st1" d="M203,103c0,55.2-44.8,100-100,100C47.8,203,3,158.2,3,103C3,47.8,47.8,3,103,3C158.2,3,203,47.8,203,103"/>
	<g>
		<g>
			<path class="st0" d="M126,103c-0.9-0.2-1.7-0.4-2.1-1.5l-5.8-14.2L104,82.1c-1.2-0.3-2.2-1.5-2.1-3.1c0-1.3,0.6-2.4,2-3
				l35.6-15.6c1.1-0.7,2.6-0.3,3.4,0.5c1.1,0.9,1.4,2.3,0.8,3.4l-14.2,36.6c-0.6,1.1-1.6,2-2.9,2C126.6,103,126.3,103,126,103
				L126,103z M111.7,78.5l9.4,3.4c0.8,0.2,1.4,0.9,1.5,1.5l4.2,10.2l9.3-25.7L111.7,78.5z M109.3,78.9"/>
		</g>
		<path class="st0" d="M139.2,104.7c-2.1,0-3.1,1.7-3.1,3.7v29.8c0,4.8-4.9,5.2-6.5,5.2l-56.1,0c-1.6,0-4.8-0.7-4.6-5.3V69.3
			c0-1.6,0.1-6.7,4-6.7l38.5,0c1.8,0,3.5-0.6,3.8-2.4c0.4-2.4-1.4-4.4-3.7-4.4l-40.6,0c-4.9,0-8.9,4-8.9,8.9v76.5
			c0,4.9,4,8.9,8.9,8.9h61.8c5.6,0,10.1-4.6,10.1-10.1v-31.6C142.9,106.4,141.3,104.7,139.2,104.7L139.2,104.7z"/>
		<path class="st0" d="M107.5,113.3H82.1c-1.9,0-3.4-1.5-3.4-3.4l0,0c0-1.9,1.5-3.4,3.4-3.4h25.5c1.9,0,3.4,1.5,3.4,3.4l0,0
			C110.9,111.7,109.4,113.3,107.5,113.3z"/>
		<path class="st0" d="M122.8,130.3H82.2c-2,0-3.5-1.6-3.5-3.5v0c0-2,1.6-3.2,3.5-3.2h40.6c2,0,3.5,1.3,3.5,3.2v0
			C126.3,128.7,124.7,130.3,122.8,130.3z"/>
	</g>
</g>
</svg>
