<?xml version="1.0" encoding="utf-8"?>
<!-- Generator: Adobe Illustrator 22.1.0, SVG Export Plug-In . SVG Version: 6.00 Build 0)  -->
<svg version="1.1" id="图层_1" xmlns="http://www.w3.org/2000/svg" xmlns:xlink="http://www.w3.org/1999/xlink" x="0px" y="0px"
	 viewBox="0 0 206 206" style="enable-background:new 0 0 206 206;" xml:space="preserve">
<style type="text/css">
	.st0{fill:#3E68A7;}
	.st1{display:none;}
	.st2{display:inline;fill:#FFFFFF;}
	.st3{display:none;fill:#FFFFFF;}
	.st4{fill:#FFFFFF;}
	.st5{fill:#EF6B52;}
	.st6{fill:#E2DDDC;}
</style>
<path class="st0" d="M84.2,68.5L84.2,68.5L84.2,68.5z"/>
<g class="st1">
	<path class="st2" d="M134.2,78.8c-0.7,0-1.3-0.1-1.9-0.4l-17,17.9c0.3,0.6,0.4,1.3,0.4,1.9c0,2.6-2.2,4.7-4.8,4.7
		c-2.6,0-4.8-2.1-4.8-4.7c0-0.4,0.1-0.8,0.2-1.2L93.8,86.1c-1.5,1.2-3.7,1.4-5.3,0.4l-5.4,5.3c0.3,0.6,0.4,1.2,0.4,1.9
		c0,1.9-1.2,3.7-3,4.4c-1.8,0.7-3.8,0.3-5.2-1c-1.4-1.4-1.8-3.4-1-5.2c0.7-1.8,2.5-3,4.4-3c0.7,0,1.5,0.2,2.1,0.5l5.5-5.5
		c-0.2-0.5-0.3-1-0.3-1.6c0-1.8,1-3.5,2.7-4.3c1.6-0.8,3.6-0.6,5,0.5s2.1,2.9,1.8,4.7l12.5,11c1.4-1,3.3-1.1,4.8-0.3l17-17.8
		c-0.3-0.7-0.5-1.4-0.5-2.1c0-2.6,2.1-4.7,4.7-4.7c2.6,0,4.7,2.1,4.7,4.7C138.8,76.6,136.8,78.7,134.2,78.8L134.2,78.8z"/>
	<rect x="64" y="94" class="st2" width="6.9" height="21.5"/>
	<rect x="79.6" y="102.1" class="st2" width="6.9" height="13.5"/>
	<rect x="97" y="104.8" class="st2" width="6.9" height="10.8"/>
	<rect x="116.4" y="100.3" class="st2" width="6.9" height="15.2"/>
	<rect x="133.9" y="90.4" class="st2" width="6.9" height="25.1"/>
</g>
<path class="st0" d="M156.9,138"/>
<path class="st3" d="M124.6,84.5H117c-1.2,0-2.1,0.9-2.1,2s1,2,2.1,2h2.5l-10.2,9.4L99,88.2c-0.8-0.7-2.1-0.8-2.9-0.1
	c0,0-0.1,0-0.1,0.1l-16.1,15c-0.8,0.8-0.8,2,0,2.8s2.2,0.8,3,0l14.6-13.6l10.2,9.5l0.1,0.1c0.3,0.3,0.7,0.5,1.1,0.5l0,0h0.1
	c0.6,0.1,1.3-0.1,1.8-0.5l0,0l11.8-10.8v2.4c0,1.1,0.9,2,2.1,2s2.1-0.9,2.1-2v-7.1C126.8,85.4,125.8,84.5,124.6,84.5L124.6,84.5z"/>
<path class="st4" d="M174.8,38"/>
<path class="st4" d="M118.6,133.3"/>
<g>
	<path class="st5" d="M203,103c0,55.2-44.8,100-100,100S3,158.2,3,103S47.8,3,103,3S203,47.8,203,103"/>
	<g>
		<g>
			<polygon class="st6" points="74.2,101 92.1,81.2 111.4,93.2 126.1,75.6 128.4,77.8 111.8,97.8 92.8,86.1 77.1,103.5 			"/>
			<ellipse class="st4" cx="76.5" cy="101.1" rx="4.8" ry="4.8"/>
			<ellipse class="st4" cx="92.5" cy="83.1" rx="4.8" ry="4.8"/>
			<ellipse class="st4" cx="111.6" cy="94" rx="4.8" ry="4.8"/>
			<ellipse class="st4" cx="128.4" cy="75.1" rx="4.8" ry="4.8"/>
		</g>
		<path class="st4" d="M138.8,58.8H67.2C59.9,58.8,54,64.7,54,72v50.1c0,7.3,5.9,13.2,13.2,13.2h71.7c7.3,0,13.2-5.9,13.2-13.2V72
			C152,64.7,146.1,58.8,138.8,58.8z M146.7,122.3c0,4.2-3.4,7.6-7.6,7.6H66.9c-4.2,0-7.6-3.4-7.6-7.6V71.8c0-4.2,3.4-7.6,7.6-7.6
			h71.3c4.7,0,8.5,3.8,8.5,8.5L146.7,122.3L146.7,122.3z"/>
		<rect x="75.4" y="112.9" class="st4" width="7" height="11.7"/>
		<rect x="109.4" y="109.1" class="st4" width="7" height="15.6"/>
		<rect x="92.3" y="98.8" class="st4" width="7" height="25.9"/>
		<rect x="126.5" y="98.8" class="st4" width="7" height="25.9"/>
		<g>
			<path class="st4" d="M73.4,158.5l-0.3-0.2c-1.2-1.1-1.3-2.9-0.2-4.1L86,139.7c1.1-1.2,2.9-1.3,4.1-0.2l0.3,0.2
				c1.2,1.1,1.3,2.9,0.2,4.1l-13.1,14.5C76.5,159.5,74.6,159.6,73.4,158.5z"/>
			<path class="st4" d="M132.5,158.5l0.3-0.2c1.2-1.1,1.3-2.9,0.2-4.1l-13.1-14.5c-1.1-1.2-2.9-1.3-4.1-0.2l-0.3,0.2
				c-1.2,1.1-1.3,2.9-0.2,4.1l13.1,14.5C129.4,159.5,131.3,159.6,132.5,158.5z"/>
		</g>
	</g>
</g>
</svg>
