<?xml version="1.0" encoding="utf-8"?>
<!-- Generator: Adobe Illustrator 22.1.0, SVG Export Plug-In . SVG Version: 6.00 Build 0)  -->
<svg version="1.1" id="图层_1" xmlns="http://www.w3.org/2000/svg" xmlns:xlink="http://www.w3.org/1999/xlink" x="0px" y="0px"
	 viewBox="0 0 206 206" style="enable-background:new 0 0 206 206;" xml:space="preserve">
<style type="text/css">
	.st0{fill:#EF6B52;}
	.st1{fill:#FFFFFF;}
</style>
<circle class="st0" cx="103" cy="103" r="100"/>
<path class="st1" d="M128.4,93.9"/>
<g>
	<path class="st1" d="M70,77.3c-7.3,0-13.2,5.9-13.2,13.2s5.9,13.2,13.2,13.2s13.2-5.9,13.2-13.2S77.3,77.3,70,77.3z M70,98.6
		c-4.5,0-8.1-3.6-8.1-8.1c0-4.5,3.6-8.1,8.1-8.1c4.5,0,8.1,3.6,8.1,8.1C78.2,95,74.5,98.6,70,98.6z"/>
	<path class="st1" d="M55.1,114.3v23.3c0,4.3,3.2,7.8,7.2,7.8h15.5c4,0,7.2-3.5,7.2-7.8v-23.3c0-4.3-3.2-7.8-7.2-7.8H62.3
		C58.3,106.5,55.1,110,55.1,114.3z M75.8,139.9H64.3c-2.3,0-4.1-2-4.1-4.5v-19c0-2.5,1.9-4.5,4.1-4.5h11.5c2.3,0,4.1,2,4.1,4.5v19
		C79.9,137.9,78.1,139.9,75.8,139.9z"/>
	<path class="st1" d="M100.5,118.1l-18.8,26.2c-0.7,1-2.2,1.3-3.2,0.5l-0.8-0.6c-1-0.7-1.3-2.2-0.5-3.2L96,114.9
		c0.7-1,2.2-1.3,3.2-0.5l0.8,0.6C101,115.6,101.3,117.1,100.5,118.1z"/>
</g>
<path class="st1" d="M61.7,69.2v1.3c0,1.8,1.5,3.3,3.3,3.3h0c1.8,0,3.3-1.5,3.3-3.3v0c0-1.8,1.5-3.3,3.3-3.3H145
	c1.8,0,3.3,1.5,3.3,3.3v64.6c0,1.8-1.5,3.3-3.3,3.3h-7.2h-3.2H90.8c-1.8,0-3.3,1.5-3.3,3.3v0c0,1.8,1.5,3.3,3.3,3.3h43.8h3.2h8.5
	c4.8,0,8.6-3.9,8.6-8.6V69.2c0-4.8-3.9-8.6-8.6-8.6h-76C65.5,60.6,61.7,64.5,61.7,69.2z"/>
<path class="st1" d="M137.7,85.3h-35.7c-1.3,0-2.3-1-2.3-2.3v0c0-1.3,1-2.3,2.3-2.3h35.7c1.3,0,2.3,1,2.3,2.3v0
	C140,84.3,139,85.3,137.7,85.3z"/>
<path class="st1" d="M137.7,98.5h-30.6c-1.3,0-2.3-1-2.3-2.3l0,0c0-1.3,1-2.3,2.3-2.3h30.6c1.3,0,2.3,1,2.3,2.3l0,0
	C140,97.5,139,98.5,137.7,98.5z"/>
<path class="st1" d="M137.7,111.8h-22.7c-1.3,0-2.3-1-2.3-2.3v0c0-1.3,1-2.3,2.3-2.3h22.7c1.3,0,2.3,1,2.3,2.3v0
	C140,110.7,139,111.8,137.7,111.8z"/>
</svg>
