<?xml version="1.0" encoding="utf-8"?>
<!-- Generator: Adobe Illustrator 22.1.0, SVG Export Plug-In . SVG Version: 6.00 Build 0)  -->
<svg version="1.1" id="图层_1" xmlns="http://www.w3.org/2000/svg" xmlns:xlink="http://www.w3.org/1999/xlink" x="0px" y="0px"
	 viewBox="0 0 20 20" style="enable-background:new 0 0 20 20;" xml:space="preserve">
<style type="text/css">
	.st0{fill:none;}
</style>
<g>
	<path d="M12.6,13.7c-0.3-0.3-0.7-0.3-0.9,0l-0.9,0.9v-4.2c0-0.4-0.3-0.7-0.7-0.7s-0.7,0.3-0.7,0.7v4.2l-0.9-0.9
		c-0.3-0.3-0.7-0.3-0.9,0c-0.3,0.3-0.3,0.7,0,0.9l2.1,2.1c0.1,0.1,0.3,0.2,0.5,0.2c0.2,0,0.3-0.1,0.5-0.2l2.1-2.1
		C12.8,14.4,12.8,13.9,12.6,13.7L12.6,13.7z M12.6,13.7"/>
	<path d="M15,14.3h-0.7c-0.4,0-0.7-0.3-0.7-0.7c0-0.4,0.3-0.7,0.7-0.7H15c1.6,0,2.9-1.3,2.9-2.9c0-1.6-1.3-2.9-2.9-2.9h-2.8l0.1-0.7
		c0-0.1,0-0.1,0-0.2c0-1.4-1.1-2.5-2.5-2.5c-1.4,0-2.5,1.1-2.5,2.5c0,0.1,0,0.1,0,0.2l0.1,0.7H5c-1.6,0-2.9,1.3-2.9,2.9
		C2.1,11.7,3.4,13,5,13h0.7c0.4,0,0.7,0.3,0.7,0.7c0,0.4-0.3,0.7-0.7,0.7H5c-1.1,0-2.2-0.4-3-1.2c-0.8-0.8-1.2-1.9-1.2-3
		C0.8,9,1.2,8,2,7.2c0.8-0.8,1.9-1.2,3-1.2h1C6.2,4,7.8,2.5,9.8,2.5c2,0,3.6,1.5,3.8,3.4H15c1.1,0,2.2,0.4,3,1.2
		c0.8,0.8,1.2,1.9,1.2,3c0,1.1-0.4,2.2-1.2,3C17.2,13.9,16.1,14.3,15,14.3L15,14.3z M15,14.3"/>
</g>
<rect x="1.1" y="2.5" class="st0" width="18.4" height="15.5"/>
</svg>
