<?xml version="1.0" encoding="utf-8"?>
<!-- Generator: Adobe Illustrator 22.1.0, SVG Export Plug-In . SVG Version: 6.00 Build 0)  -->
<svg version="1.1" id="图层_1" xmlns="http://www.w3.org/2000/svg" xmlns:xlink="http://www.w3.org/1999/xlink" x="0px" y="0px"
	 viewBox="0 0 206 206" style="enable-background:new 0 0 206 206;" xml:space="preserve">
<style type="text/css">
	.st0{fill:#3E68A7;}
	.st1{fill:#FFFFFF;}
	.st2{display:none;}
	.st3{display:inline;fill:#E2DDDC;}
	.st4{display:inline;fill:#FFFFFF;}
	.st5{fill:#EF6B52;}
</style>
<path class="st0" d="M84.2,68.5L84.2,68.5L84.2,68.5z"/>
<path class="st0" d="M156.9,138"/>
<path class="st1" d="M118.6,133.3"/>
<g class="st2">
	<polygon class="st3" points="74.2,101 92.1,81.2 109.7,91.8 126.1,75.6 128.4,77.8 110.1,96.4 92.8,86.1 77.1,103.5 	"/>
	<ellipse class="st4" cx="76.5" cy="101.1" rx="4.8" ry="4.8"/>
	<ellipse class="st4" cx="92.5" cy="83.1" rx="4.8" ry="4.8"/>
	<ellipse class="st4" cx="109.9" cy="92.6" rx="4.8" ry="4.8"/>
	<ellipse class="st4" cx="128.4" cy="75.1" rx="4.8" ry="4.8"/>
</g>
<g>
	<path class="st5" d="M203,103c0,55.2-44.8,100-100,100S3,158.2,3,103S47.8,3,103,3S203,47.8,203,103"/>
	<g>
		<path class="st1" d="M138.8,58.8H67.2C59.9,58.8,54,64.7,54,72v50.1c0,7.3,5.9,13.2,13.2,13.2h71.7c7.3,0,13.2-5.9,13.2-13.2V72
			C152,64.7,146.1,58.8,138.8,58.8z M146.7,122.3c0,4.2-3.4,7.6-7.6,7.6H66.9c-4.2,0-7.6-3.4-7.6-7.6V71.8c0-4.2,3.4-7.6,7.6-7.6
			h71.3c4.7,0,8.5,3.8,8.5,8.5V122.3z"/>
		<g>
			<rect x="75.4" y="104.4" class="st1" width="7" height="17.2"/>
			<rect x="109.4" y="98.7" class="st1" width="7" height="22.9"/>
			<rect x="92.3" y="83.5" class="st1" width="7" height="38.2"/>
			<rect x="126.5" y="83.5" class="st1" width="7" height="38.2"/>
		</g>
		<g>
			<path class="st1" d="M73.4,158.5l-0.3-0.2c-1.2-1.1-1.3-2.9-0.2-4.1l13.1-14.5c1.1-1.2,2.9-1.3,4.1-0.2l0.3,0.2
				c1.2,1.1,1.3,2.9,0.2,4.1l-13.1,14.5C76.5,159.5,74.6,159.6,73.4,158.5z"/>
			<path class="st1" d="M132.5,158.5l0.3-0.2c1.2-1.1,1.3-2.9,0.2-4.1l-13.1-14.5c-1.1-1.2-2.9-1.3-4.1-0.2l-0.3,0.2
				c-1.2,1.1-1.3,2.9-0.2,4.1l13.1,14.5C129.4,159.5,131.3,159.6,132.5,158.5z"/>
		</g>
	</g>
</g>
</svg>
