<?xml version="1.0" encoding="utf-8"?>
<!-- Generator: Adobe Illustrator 22.1.0, SVG Export Plug-In . SVG Version: 6.00 Build 0)  -->
<svg version="1.1" id="图层_1" xmlns="http://www.w3.org/2000/svg" xmlns:xlink="http://www.w3.org/1999/xlink" x="0px" y="0px"
	 viewBox="0 0 20 20" style="enable-background:new 0 0 20 20;" xml:space="preserve">
<style type="text/css">
	.st0{fill:none;}
</style>
<path d="M7.4,12c0.3,0.3,0.7,0.3,0.9,0l0.9-0.9v4.2c0,0.4,0.3,0.7,0.7,0.7s0.7-0.3,0.7-0.7v-4.2l0.9,0.9c0.3,0.3,0.7,0.3,0.9,0
	c0.3-0.3,0.3-0.7,0-0.9L10.5,9c-0.1-0.1-0.3-0.2-0.5-0.2S9.7,8.9,9.5,9l-2.1,2.1C7.2,11.4,7.2,11.8,7.4,12L7.4,12z"/>
<path d="M15,14.3h-0.7c-0.4,0-0.7-0.3-0.7-0.7s0.3-0.7,0.7-0.7H15c1.6,0,2.9-1.3,2.9-2.9S16.6,7.1,15,7.1h-2.8l0.1-0.7
	c0-0.1,0-0.1,0-0.2c0-1.4-1.1-2.5-2.5-2.5S7.3,4.8,7.3,6.2c0,0.1,0,0.1,0,0.2l0.1,0.7H5c-1.6,0-2.9,1.3-2.9,2.9c0,1.7,1.3,3,2.9,3
	h0.7c0.4,0,0.7,0.3,0.7,0.7s-0.3,0.7-0.7,0.7H5c-1.1,0-2.2-0.4-3-1.2s-1.2-1.9-1.2-3C0.8,9,1.2,8,2,7.2S3.9,6,5,6h1
	c0.2-2,1.8-3.5,3.8-3.5s3.6,1.5,3.8,3.4H15c1.1,0,2.2,0.4,3,1.2s1.2,1.9,1.2,3s-0.4,2.2-1.2,3C17.2,13.9,16.1,14.3,15,14.3L15,14.3z
	"/>
<rect x="1.1" y="2.5" class="st0" width="18.4" height="15.5"/>
</svg>
