<?xml version="1.0" encoding="utf-8"?>
<!-- Generator: Adobe Illustrator 22.1.0, SVG Export Plug-In . SVG Version: 6.00 Build 0)  -->
<svg version="1.1" id="图层_1" xmlns="http://www.w3.org/2000/svg" xmlns:xlink="http://www.w3.org/1999/xlink" x="0px" y="0px"
	 viewBox="0 0 206 206" style="enable-background:new 0 0 206 206;" xml:space="preserve">
<style type="text/css">
	.st0{fill:#FFFFFF;}
	.st1{fill:#EF6B52;}
</style>
<g>
	<path class="st0" d="M99.3,138.8"/>
	<path class="st1" d="M203,103c0,55.2-44.8,100-100,100S3,158.2,3,103C3,47.8,47.8,3,103,3S203,47.8,203,103"/>
	<path class="st0" d="M104.6,43.5c-13.3,0-24.1,10.8-24.1,24.1s10.8,24.1,24.1,24.1c13.3,0,24.1-10.8,24.1-24.1
		S117.9,43.5,104.6,43.5z M104.6,85.8c-10,0-18.2-8.1-18.2-18.2s8.1-18.2,18.2-18.2c10,0,18.2,8.1,18.2,18.2S114.6,85.8,104.6,85.8z
		"/>
	<path class="st0" d="M119.8,89.9c-4.2,3.4-9.5,5.4-15.3,5.4c-5.7,0-11-2-15.2-5.4C77.1,93.1,68,104.2,68,117.5v10.6h30.4v-4.8
		l-24-0.1v-7c0.5-9.4,5.8-16.8,16.4-19.3c3.5,2.9,9.1,3.6,14,3.6c4.9,0,10.4-0.7,13.9-3.6c10.5,2.6,16.4,10,16.4,19.4v7l-24.7,0v4.8
		h31.1v-10.6C141.5,104.1,132.3,92.9,119.8,89.9z"/>
	<path class="st0" d="M104.4,103.3c-2.9,0-5.3,3.3-5.3,7.3c0,4,2.3,7.3,5.3,7.3c2.9,0,5.3-3.3,5.3-7.3
		C109.7,106.6,107.3,103.3,104.4,103.3z M104.4,115.4c-1.9,0-3.4-2.1-3.4-4.8c0-2.6,1.5-4.8,3.4-4.8c1.9,0,3.4,2.1,3.4,4.8
		C107.8,113.2,106.3,115.4,104.4,115.4z"/>
	<path class="st0" d="M101.1,115.6v17.7h6.8v-17.7H101.1z M105.2,131.8h-1.3v-14.8h1.3V131.8z"/>
	<path class="st0" d="M48.8,131.6v25h110.9v-25H48.8z M153.8,150.8H55.1v-13h98.6V150.8z"/>
</g>
</svg>
