<?xml version="1.0" encoding="utf-8"?>
<!-- Generator: Adobe Illustrator 22.1.0, SVG Export Plug-In . SVG Version: 6.00 Build 0)  -->
<svg version="1.1" id="图层_1" xmlns="http://www.w3.org/2000/svg" xmlns:xlink="http://www.w3.org/1999/xlink" x="0px" y="0px"
	 viewBox="0 0 206 206" style="enable-background:new 0 0 206 206;" xml:space="preserve">
<style type="text/css">
	.st0{fill:#F36D54;}
	.st1{fill:#FFFFFF;}
</style>
<g>
	<circle class="st0" cx="103" cy="103" r="100"/>
	<path class="st1" d="M103,58.5"/>
	<g>
		<path class="st1" d="M103,68.8c-6.3,0-11.5,5.2-11.5,11.5s5.2,11.5,11.5,11.5s11.5-5.2,11.5-11.5C114.5,73.9,109.3,68.8,103,68.8z
			 M103,85.3c-2.8,0-5-2.2-5-5s2.2-5,5-5s5,2.2,5,5S105.8,85.3,103,85.3z"/>
		<path class="st1" d="M103,49.6c-16.9,0-30.6,13.7-30.6,30.6c0,8,3.1,15.6,8.7,21.4l19.1,19.5c0.7,0.7,1.7,1.1,2.7,1.1
			s2-0.4,2.7-1.1l19.1-19.5c5.6-5.7,8.7-13.3,8.7-21.4C133.6,63.3,119.9,49.6,103,49.6z M120,96.6l-17,17.3L86,96.6
			c-4.4-4.5-6.8-10.4-6.8-16.6c0-13.1,10.6-23.7,23.7-23.7s23.7,10.6,23.7,23.7C126.7,86.3,124.3,92.2,120,96.6z"/>
		<path class="st1" d="M145.9,133.6c-0.3-0.1-0.5-0.1-0.8-0.1l-84.9,0.1c-2.1,0-3.8-2.2-3.8-4.3c0-2.1,1.6-4.1,3.7-4.1l12.2-0.1
			c2.1,0,3.9-1.1,3.9-3.3c0-2.1-1.7-3.5-3.8-3.5H60.9c-6.3,0-11.4,5.1-11.4,11.4c0,6,4.7,9.9,10.7,10.3c0.3,0.1,0.5,0.1,0.8,0.1
			h84.9c2.1,0,3.7,2.8,3.7,4.8c0,2.1-1.7,4.5-3.8,4.5H72.4c-2.1,0-3.8,0.9-3.8,3.1c0,2.1,1.7,3.8,3.8,3.8h72.7
			c6.3,0,11.4-5.1,11.4-11.4C156.5,139,151.8,134,145.9,133.6L145.9,133.6z"/>
	</g>
	<path class="st1" d="M103,115.7"/>
</g>
</svg>
