<?xml version="1.0" encoding="utf-8"?>
<!-- Generator: Adobe Illustrator 22.1.0, SVG Export Plug-In . SVG Version: 6.00 Build 0)  -->
<svg version="1.1" id="图层_1" xmlns="http://www.w3.org/2000/svg" xmlns:xlink="http://www.w3.org/1999/xlink" x="0px" y="0px"
	 viewBox="0 0 25 25" style="enable-background:new 0 0 25 25;" xml:space="preserve">
<style type="text/css">
	.st0{fill:none;}
	.st1{fill:none;stroke:#000000;stroke-width:0.8208;stroke-miterlimit:10;}
	.st2{display:none;}
	.st3{display:inline;}
	.st4{fill:none;stroke:#3D84D1;stroke-width:0.816;stroke-miterlimit:10;}
	.st5{display:none;fill:#231815;}
	.st6{fill:#231815;}
</style>
<rect x="3.6" y="5" class="st0" width="18.4" height="15.5"/>
<ellipse class="st1" cx="12.4" cy="12.2" rx="10" ry="10"/>
<g class="st2">
	<g class="st3">
		<path class="st4" d="M16.8,9.5c-0.4-1.9-2.1-3.4-4.1-3.4c-2.1,0-3.7,1.4-4.1,3.4c-1.4,0.4-2.4,1.7-2.4,3.2c0,1.8,1.4,3.3,3.3,3.3
			H10v-0.9H9.4c-1.3,0-2.3-1-2.3-2.3s1-2.3,2.3-2.3c0-1.8,1.4-3.3,3.3-3.3c1.8,0,3.3,1.4,3.3,3.3c1.3,0,2.3,1,2.3,2.3
			s-1,2.3-2.3,2.3h-0.5V16H16c1.8,0,3.3-1.4,3.3-3.3C19.3,11.2,18.2,9.9,16.8,9.5L16.8,9.5z"/>
		<path class="st4" d="M13.1,11.5c-0.2-0.1-0.4-0.2-0.6-0.1c0,0-0.1,0-0.1,0.1L11,12.8c-0.2,0.2-0.2,0.5,0,0.7s0.5,0.2,0.7,0
			l0.6-0.5v5.5c0,0.3,0.2,0.5,0.5,0.5s0.5-0.2,0.5-0.5V13l0.6,0.5c0.2,0.2,0.5,0.2,0.7,0s0.2-0.5,0-0.7L13.1,11.5z"/>
	</g>
</g>
<g class="st2">
	<path class="st3" d="M20.2,12.9C20.2,12.9,20.1,12.9,20.2,12.9c0,0.6-0.2,1-0.4,1.5c-0.2,0.3-0.5,0.6-0.8,0.9
		c-0.2,0.2-0.4,0.3-0.7,0.5c-0.3,0.2-0.6,0.3-0.9,0.3c-0.2,0-0.5,0.1-0.7,0.1c-0.3,0-0.6-0.2-0.7-0.5s0-0.6,0.3-0.8
		c0.1-0.1,0.2-0.1,0.4-0.1c0.5,0,0.9-0.1,1.3-0.4c0.4-0.3,0.7-0.8,0.8-1.3c0.1-0.5,0-1.1-0.4-1.5c-0.3-0.4-0.6-0.6-1-0.7
		c-0.2-0.1-0.3-0.1-0.5-0.1c-0.1,0-0.1,0-0.2,0c-0.2-1.1-0.8-2-1.8-2.6c-0.7-0.5-1.5-0.7-2.4-0.6C10.6,7.7,9,9,8.8,10.7
		c-0.1,0-0.2,0-0.3,0c-0.3,0-0.5,0.1-0.8,0.2c-0.3,0.2-0.6,0.5-0.8,0.8c-0.1,0.3-0.2,0.5-0.2,0.8c0,0.5,0.1,0.9,0.4,1.3
		c0.3,0.4,0.7,0.7,1.2,0.8c0.2,0,0.3,0,0.5,0.1c0.4,0,0.6,0.2,0.7,0.6c0.1,0.4-0.2,0.7-0.6,0.8c-0.2,0-0.4,0-0.6,0
		c-0.3,0-0.5-0.1-0.8-0.2c-0.4-0.1-0.7-0.3-1.1-0.6s-0.7-0.8-1-1.2c-0.1-0.3-0.2-0.6-0.3-0.9c0-0.1,0-0.1,0-0.2v-0.5c0,0,0,0,0-0.1
		s0-0.2,0-0.3c0-0.2,0.1-0.5,0.2-0.7c0.1-0.3,0.3-0.6,0.6-0.9c0.2-0.2,0.3-0.3,0.5-0.5c0.3-0.2,0.7-0.4,1-0.5c0,0,0.1,0,0.1-0.1
		C7.8,9.2,7.9,9,8,8.8c0.2-0.3,0.4-0.6,0.6-0.9C8.8,7.7,9,7.5,9.2,7.4c0.3-0.2,0.6-0.5,0.9-0.6c0.4-0.2,0.9-0.4,1.3-0.5
		c0.3-0.1,0.6-0.1,0.8-0.1c0,0,0,0,0.1,0H13l0,0c0.1,0,0.3,0,0.4,0c0.3,0,0.5,0.1,0.8,0.2c0.4,0.1,0.8,0.3,1.2,0.5s0.7,0.5,1,0.7
		c0.2,0.2,0.3,0.3,0.5,0.5c0.3,0.4,0.6,0.8,0.7,1.2l0.1,0.1c0.1,0.1,0.3,0.1,0.4,0.2c0.4,0.2,0.8,0.5,1.1,0.9c0.3,0.3,0.5,0.6,0.6,1
		c0.1,0.3,0.2,0.7,0.2,1.1c0,0,0,0,0,0.1v0.2C20,12.9,20.2,12.9,20.2,12.9z"/>
	<path class="st3" d="M12.5,18.6c-0.1-0.1-0.3-0.1-0.4-0.2C12,18.3,12,18.1,12,17.9c0-1.1,0-2.2,0-3.3v-0.1
		c-0.1,0.1-0.1,0.1-0.1,0.2c-0.2,0.2-0.4,0.4-0.6,0.6c-0.1,0.1-0.2,0.2-0.3,0.3c-0.2,0.1-0.6,0.1-0.8-0.1c-0.3-0.3-0.3-0.7,0-1
		s0.5-0.5,0.8-0.8c0.1-0.1,0.3-0.3,0.4-0.4c0.2-0.2,0.5-0.5,0.7-0.7c0.1-0.1,0.2-0.2,0.3-0.3c0.3-0.2,0.7-0.2,0.9,0.1
		c0.3,0.3,0.5,0.5,0.8,0.8c0.1,0.1,0.3,0.3,0.4,0.4c0.2,0.3,0.5,0.5,0.7,0.8c0.1,0.1,0.2,0.2,0.3,0.4c0.3,0.4,0.1,0.9-0.4,1
		c-0.3,0.1-0.5,0-0.7-0.2c-0.3-0.3-0.5-0.6-0.8-0.9c0,0,0,0-0.1-0.1v0.1c0,1.1,0,2.1,0,3.2c0,0.2,0,0.4-0.2,0.6
		c-0.1,0.1-0.2,0.2-0.3,0.2l0,0C12.7,18.6,12.6,18.6,12.5,18.6L12.5,18.6z"/>
</g>
<path class="st5" d="M10,16.4c0,0-2.9,0.3-3.9-2.4s1.6-4.6,2.3-4.7c0,0,0.4-2.7,3.5-3.4s5,1.9,5.3,3.3c0,0,2.2,0.7,2.5,3.2s-2,4-4,4
	H10z"/>
<path d="M9.6,15.4c0-0.3-0.2-0.5-0.5-0.5c-0.6,0-1.5-0.2-1.9-1.2c-0.6-1.5,1-2.8,2.3-2.5c0,0-0.3-1.8,1.4-2.9s4.7-0.1,4.5,2.8
	c0,0,1.7-0.2,2.2,1.1c0.4,1.2-0.3,2.4-1.9,2.6c-0.3,0-0.4,0.2-0.4,0.5V16c0,0.3,0.3,0.5,0.6,0.5c0.7-0.1,2.1-0.4,2.9-1.3
	c1.4-1.5,1.4-4.5-1.8-5.7c0,0-0.2-2-2.9-3.2S8.3,7.1,7.8,9.4c0,0-1.8,0.4-2.4,2.4c-0.6,1.9,0.9,4.4,3.6,4.7c0.3,0,0.5-0.2,0.5-0.5
	L9.6,15.4z"/>
<path d="M12.5,20.8L12.5,20.8c-0.4,0-0.7-0.3-0.7-0.7v-7.6c0-0.4,0.3-0.7,0.7-0.7l0,0c0.4,0,0.7,0.3,0.7,0.7V20
	C13.2,20.5,12.9,20.8,12.5,20.8z"/>
<path class="st6" d="M10.2,13.8L10.2,13.8c-0.3-0.2-0.2-0.7,0-1l1.8-1.9c0.2-0.3,0.7-0.2,1,0l0,0c0.3,0.2,0.2,0.7,0,1l-1.8,1.9
	C10.9,14,10.5,14.1,10.2,13.8z"/>
<path class="st6" d="M14.8,13.8L14.8,13.8c0.3-0.2,0.3-0.7,0-1l-1.7-1.9c-0.2-0.3-0.7-0.3-1,0l0,0c-0.3,0.2-0.3,0.7,0,1l1.7,1.9
	C14.2,14,14.7,14,14.8,13.8z"/>
</svg>
