<?xml version="1.0" encoding="utf-8"?>
<!-- Generator: Adobe Illustrator 22.1.0, SVG Export Plug-In . SVG Version: 6.00 Build 0)  -->
<svg version="1.1" id="图层_1" xmlns="http://www.w3.org/2000/svg" xmlns:xlink="http://www.w3.org/1999/xlink" x="0px" y="0px"
	 viewBox="0 0 206 206" style="enable-background:new 0 0 206 206;" xml:space="preserve">
<style type="text/css">
	.st0{fill:#FE970E;}
	.st1{fill:#FFFFFF;}
</style>
<g>
	<circle class="st0" cx="103" cy="103" r="100"/>
	<path class="st1" d="M138.8,115.8c-12,0-21.7,9.7-21.7,21.7s9.7,21.7,21.7,21.7s21.7-9.7,21.7-21.7S150.8,115.8,138.8,115.8z
		 M138.8,153.5c-8.9,0-16-7.2-16-16s7.2-16,16-16s16,7.2,16,16S147.6,153.5,138.8,153.5z"/>
	<g>
		
			<rect x="154.8" y="146.9" transform="matrix(0.5785 -0.8157 0.8157 0.5785 -57.6237 191.6512)" class="st1" width="3.7" height="9.3"/>
		<path class="st1" d="M166.1,151.6c-2.6-1.9-6.2-1.4-8,1.1c-1.8,2.5-1,6,1.6,7.9l5.9,4.2c2.6,1.9,6.2,1.4,8-1.1
			c1.8-2.5,1-6-1.6-7.9L166.1,151.6z M170.1,161.3c-0.7,1-2.4,0.9-3.9-0.2l-3.3-2.3c-1.5-1.1-2.1-2.7-1.4-3.7c0.7-1,2.4-0.9,3.9,0.2
			l3.3,2.3C170.2,158.7,170.8,160.3,170.1,161.3z"/>
	</g>
	<path class="st1" d="M109.9,140.9c0-1.1,0.1-1.2,0.2-2.2H57c3.3-16.2,17.6-29.3,34.8-29.3c10.1,0,19.2,4.3,25.7,11.1
		c1.5-1.8,3.2-3.4,5.1-4.8c-2.8-3-6.1-5.6-9.7-7.6c1.6-0.2,3.2-0.4,4.9-0.4c5,0,9.8,1.1,14,3.2c3.1-1,6.3-1.5,9.7-1.5
		c-3.6-2.7-7.6-4.9-12.1-6.3c8.1-4.2,13.6-12.7,13.6-22.4c0-14-11.3-25.3-25.3-25.3c-3.6,0-7.1,0.8-10.2,2.2c-4.5-3.1-9.9-5-15.8-5
		c-15.2,0-27.5,12.3-27.5,27.5c0,10.6,6,19.8,14.8,24.4c-17.2,5.4-29.8,21.5-29.8,40.6c0,0.3,0,0.6,0,0.8h7h54
		C110,144.1,109.9,142.5,109.9,140.9z M117.7,61.6c10.4,0,18.9,8.4,18.9,18.9s-8.4,18.9-18.9,18.9c-2,0-3.9-0.3-5.7-0.9
		c4.5-4.9,7.2-11.4,7.2-18.6c0-6.7-2.4-12.8-6.4-17.6C114.4,61.9,116.1,61.6,117.7,61.6z M71.2,79.9c0-11.3,9.2-20.5,20.5-20.5
		s20.5,9.2,20.5,20.5s-9.2,20.5-20.5,20.5S71.2,91.2,71.2,79.9z"/>
</g>
</svg>
