<?xml version="1.0" encoding="utf-8"?>
<!-- Generator: Adobe Illustrator 16.0.0, SVG Export Plug-In . SVG Version: 6.00 Build 0)  -->
<!DOCTYPE svg PUBLIC "-//W3C//DTD SVG 1.1//EN" "http://www.w3.org/Graphics/SVG/1.1/DTD/svg11.dtd">
<svg version="1.1" id="图层_1" xmlns="http://www.w3.org/2000/svg" xmlns:xlink="http://www.w3.org/1999/xlink" x="0px" y="0px"
	 width="85.039px" height="85.039px" viewBox="0 0 85.039 85.039" enable-background="new 0 0 85.039 85.039" xml:space="preserve">
<g>
	<circle fill="#EC8235" cx="41.895" cy="42.44" r="33.833"/>
	<path fill="#FFFFFF" d="M44.044,52.506H24.748c1.151-5.428,5.966-9.5,11.735-9.5c3.407,0,6.475,1.428,8.658,3.709
		c0.438-0.766,0.982-1.459,1.616-2.064c-0.754-0.75-1.579-1.426-2.481-1.997c0.248-0.019,0.496-0.04,0.75-0.04
		c1.276,0,2.5,0.225,3.637,0.633c0.977-0.535,2.063-0.89,3.215-1.036c-0.801-0.492-1.653-0.905-2.555-1.219
		c2.465-1.538,4.109-4.265,4.109-7.383c0-4.808-3.898-8.706-8.706-8.706c-0.911,0-1.782,0.155-2.604,0.417
		c-1.647-1.289-3.717-2.064-5.971-2.064c-5.363,0-9.708,4.347-9.708,9.708c0,3.579,1.942,6.697,4.824,8.381
		c-4.741,1.816-8.293,6.03-9.179,11.161v2.646H44.85C44.453,54.332,44.178,53.443,44.044,52.506z M44.726,27.201
		c3.539,0,6.407,2.869,6.407,6.407c0,3.539-2.869,6.408-6.407,6.408c-0.586,0-1.151-0.084-1.69-0.234
		c1.74-1.752,2.822-4.154,2.822-6.818c0-2.131-0.695-4.096-1.859-5.697C44.238,27.238,44.477,27.201,44.726,27.201z M29.004,32.964
		c0-3.946,3.199-7.146,7.146-7.146c3.945,0,7.146,3.199,7.146,7.146c0,3.947-3.199,7.146-7.146,7.146
		C32.203,40.11,29.004,36.911,29.004,32.964z"/>
	<path fill="#FFFFFF" d="M53.432,43.547c-4.292,0-7.771,3.479-7.771,7.771c0,4.291,3.479,7.771,7.771,7.771s7.771-3.48,7.771-7.771
		C61.203,47.025,57.724,43.547,53.432,43.547z M53.412,56.934c-3.112,0-5.635-2.523-5.635-5.635c0-3.113,2.522-5.637,5.635-5.637
		c3.111,0,5.635,2.523,5.635,5.637C59.047,54.41,56.523,56.934,53.412,56.934z"/>
	<path fill="#FFFFFF" d="M52.5,53.564c-1.295-0.502-2.15-0.83-2.15-2.246s0.855-2.234,2.15-2.736c0,0,0.051-0.174-0.112-0.645
		l-0.208-0.254c-1.657,0.314-2.916,1.842-2.916,3.688c0,1.848,1.38,2.836,3.035,3.148c0,0,0.095-0.162,0.201-0.318
		C52.615,54.033,52.5,53.564,52.5,53.564z"/>
	<circle fill="#FFFFFF" cx="53.8" cy="47.684" r="0.604"/>
	
		<rect x="58.707" y="55.934" transform="matrix(-0.668 0.7442 -0.7442 -0.668 141.5067 51.1285)" fill="#FFFFFF" width="1.281" height="2.398"/>
	<path fill="#FFFFFF" d="M59.863,57.662c-0.679,0.744-0.677,1.854,0.008,2.48l2.379,2.176c0.685,0.625,1.789,0.529,2.469-0.213
		c0.682-0.744,0.678-1.854-0.006-2.479l-2.381-2.178C61.648,56.822,60.544,56.92,59.863,57.662z M63.896,60.422
		c0.268,0.244,0.268,0.676,0.002,0.965c-0.264,0.291-0.695,0.328-0.962,0.084l-2.251-2.061c-0.266-0.242-0.267-0.674-0.002-0.965
		c0.266-0.289,0.696-0.328,0.963-0.082L63.896,60.422z"/>
</g>
</svg>
