<?xml version="1.0" encoding="utf-8"?>
<!-- Generator: Adobe Illustrator 22.1.0, SVG Export Plug-In . SVG Version: 6.00 Build 0)  -->
<svg version="1.1" id="图层_1" xmlns="http://www.w3.org/2000/svg" xmlns:xlink="http://www.w3.org/1999/xlink" x="0px" y="0px"
	 viewBox="0 0 206 206" style="enable-background:new 0 0 206 206;" xml:space="preserve">
<style type="text/css">
	.st0{fill:#FE970E;}
	.st1{fill:#FFFFFF;}
</style>
<g>
	<circle class="st0" cx="103" cy="103" r="100"/>
	<path class="st1" d="M103,48c-29.3,0-53.1,23.8-53.1,53.1c0,29.3,23.8,53.1,53.1,53.1s53.1-23.8,53.1-53.1
		C156.1,71.8,132.3,48,103,48z M103,148.1c-26,0-47-21-47-47c0-26,21-47,47-47c26,0,47,21,47,47C150,127.1,129,148.1,103,148.1z"/>
	<path class="st1" d="M155.5,148.3l-18.9-13.5l4.1-5.7l18.9,13.5c1.5,1.1,1.9,3.2,0.8,4.8l-0.1,0.1
		C159.2,149.1,157,149.4,155.5,148.3z"/>
	<path class="st1" d="M132.1,123.1"/>
	<g>
		<path class="st1" d="M120.2,108.1c1-1,0.8-2.6-0.3-3.3c-4.4-2.9-9.6-4.5-15.2-4.5c-15.4,0-27.9,12.5-27.9,27.9l0,0
			c0,1,0.8,1.8,1.8,1.8h0.9c1,0,1.8-0.8,1.8-1.8l0,0c0-13,10.5-23.5,23.5-23.5c4.8,0,9.3,1.5,13,3.9c0.7,0.5,1.6,0.4,2.2-0.2
			L120.2,108.1z"/>
		<path class="st1" d="M95.9,101.6h17.4c5.8-3.1,9.7-9.2,9.7-16.2c0-10.1-8.2-18.4-18.4-18.4s-18.4,8.2-18.4,18.4
			C86.2,92.4,90.2,98.5,95.9,101.6z M104.6,71.5c7.7,0,13.9,6.2,13.9,13.9c0,7.7-6.2,13.9-13.9,13.9c-7.7,0-13.9-6.2-13.9-13.9
			C90.7,77.7,96.9,71.5,104.6,71.5z"/>
	</g>
	<path class="st1" d="M130.4,123h-15.7c-1.7,0-3-1.3-3-3v0c0-1.7,1.3-3,3-3h15.7c1.7,0,3,1.3,3,3v0C133.4,121.7,132.1,123,130.4,123
		z"/>
	<path class="st1" d="M97.9,130H78.3v-4.3h19.5c1.2,0,2.2,1,2.2,2.2l0,0C100,129,99.1,130,97.9,130z"/>
</g>
</svg>
