<?xml version="1.0" encoding="utf-8"?>
<!-- Generator: Adobe Illustrator 22.1.0, SVG Export Plug-In . SVG Version: 6.00 Build 0)  -->
<svg version="1.1" id="图层_1" xmlns="http://www.w3.org/2000/svg" xmlns:xlink="http://www.w3.org/1999/xlink" x="0px" y="0px"
	 viewBox="0 0 206 206" style="enable-background:new 0 0 206 206;" xml:space="preserve">
<style type="text/css">
	.st0{fill:#FE970E;}
	.st1{fill:#FFFFFF;}
</style>
<g>
	<circle class="st0" cx="103" cy="103" r="100"/>
	<path class="st1" d="M133.7,105.1c-8.8-0.3-16.3,6.6-16.6,15.4s6.6,16.3,15.4,16.6s16.3-6.6,16.6-15.4
		C149.4,112.9,142.5,105.4,133.7,105.1z M132.7,132.9c-6.5-0.2-11.6-5.7-11.3-12.2c0.3-6.5,5.7-11.6,12.2-11.3s11.6,5.7,11.3,12.2
		C144.7,128,139.2,133.2,132.7,132.9z"/>
	<g>
		
			<rect x="144.5" y="128.5" transform="matrix(0.608 -0.7939 0.7939 0.608 -47.5743 167.5452)" class="st1" width="2.7" height="6.8"/>
		<path class="st1" d="M152.8,132.2c-1.9-1.5-4.5-1.2-5.9,0.6c-1.3,1.8-1,4.4,1,5.8l4.2,3.2c1.9,1.5,4.5,1.2,5.9-0.6
			c1.3-1.8,1-4.4-1-5.8L152.8,132.2z M155.6,139.4c-0.5,0.7-1.8,0.6-2.9-0.2l-2.4-1.8c-1-0.8-1.5-2.1-1-2.7c0.5-0.7,1.8-0.6,2.9,0.2
			l2.4,1.8C155.6,137.5,156.1,138.8,155.6,139.4z"/>
	</g>
	<path class="st1" d="M114.1,101.8c6.2-3.4,10.5-10,10.5-17.5c0-11-8.9-19.9-19.9-19.9s-20,8.9-20,19.9c0,7.6,4.3,14.2,10.5,17.5
		h0.4c-11.5,3.6-20,13.8-21.1,26.2h0v4.8h41.2c-0.9-1.5-1.6-3.1-2.1-4.8H79.5c1.3-12.8,12.1-22.7,25.3-22.7c4.2,0,8.2,1,11.6,2.8
		c0.9-1.4,1.9-2.7,3-3.9c-1.8-1-3.7-1.8-5.7-2.4H114.1z M104.7,99.4c-8.3,0-15.1-6.7-15.1-15.1c0-8.3,6.8-15.1,15.1-15.1
		s15.1,6.7,15.1,15.1C119.8,92.6,113.1,99.4,104.7,99.4z"/>
	<g>
		<path class="st1" d="M103.8,154.3c-25.5,0.2-48.7-18.4-52.5-45c-3.7-25.7,12.3-50.5,37.1-57.8c29.4-8.7,59.7,9.9,66.1,39.1
			c0.4,1.7,0.7,3.5,0.9,5.2c0.2,1.6,1.6,2.8,3.3,2.7h0c1.7-0.1,3-1.7,2.8-3.3c-0.6-4.9-1.8-9.9-3.7-14.8
			c-10-25.5-36.9-40.8-63.9-36.3C60.6,49.4,39,81.5,46,114.1c6,27.9,30.7,46.8,58.3,46.2L103.8,154.3z"/>
		<polygon class="st1" points="103,148 102.9,148 102.9,166.3 121.2,157.2 121.2,157.1 		"/>
	</g>
</g>
</svg>
