<?xml version="1.0" encoding="utf-8"?>
<!-- Generator: Adobe Illustrator 22.1.0, SVG Export Plug-In . SVG Version: 6.00 Build 0)  -->
<svg version="1.1" id="图层_1" xmlns="http://www.w3.org/2000/svg" xmlns:xlink="http://www.w3.org/1999/xlink" x="0px" y="0px"
	 viewBox="0 0 206 206" style="enable-background:new 0 0 206 206;" xml:space="preserve">
<style type="text/css">
	.st0{fill:#FE970E;}
	.st1{fill:#FFFFFF;}
</style>
<g>
	<circle class="st0" cx="103" cy="103" r="100"/>
	<path class="st1" d="M80,81"/>
	<path class="st1" d="M139.1,104c-12-0.4-22.1,8.9-22.5,20.9c-0.4,12,8.9,22.1,20.9,22.5c12,0.4,22.1-8.9,22.5-20.9
		C160.4,114.5,151.1,104.4,139.1,104z M137.7,141.7c-8.8-0.3-15.8-7.8-15.4-16.6s7.8-15.8,16.6-15.4s15.8,7.8,15.4,16.6
		C154,135.1,146.6,142.1,137.7,141.7z"/>
	<g>
		
			<rect x="153.8" y="135.8" transform="matrix(0.608 -0.7939 0.7939 0.608 -50.4797 178.6331)" class="st1" width="3.7" height="9.3"/>
		<path class="st1" d="M165.1,140.8c-2.6-2-6.1-1.6-8,0.8c-1.8,2.4-1.3,6,1.3,7.9l5.7,4.4c2.6,2,6.1,1.6,8-0.8
			c1.8-2.4,1.3-6-1.3-7.9L165.1,140.8z M168.8,150.6c-0.7,0.9-2.5,0.8-3.9-0.3l-3.2-2.5c-1.4-1.1-2-2.8-1.3-3.7s2.5-0.8,3.9,0.3
			l3.2,2.5C168.9,148,169.5,149.7,168.8,150.6z"/>
	</g>
	<path class="st1" d="M112.6,98.3c9-4.9,15.2-14.4,15.2-25.3c0-15.9-12.9-28.7-28.7-28.7S70.2,57.1,70.2,73c0,11,6.2,20.5,15.2,25.3
		H86c-16.6,5.2-28.9,19.9-30.4,37.8h-0.1v7h59.6c-1.3-2.2-2.3-4.5-3-7H62.6c1.9-18.5,17.5-32.8,36.5-32.8c6.1,0,11.8,1.5,16.8,4.1
		c1.3-2,2.7-3.9,4.4-5.6c-2.6-1.4-5.3-2.6-8.2-3.5H112.6z M99,94.8c-12,0-21.8-9.7-21.8-21.8c0-12,9.8-21.8,21.8-21.8
		s21.8,9.7,21.8,21.8C120.8,85,111.1,94.8,99,94.8z"/>
</g>
</svg>
