<?xml version="1.0" encoding="utf-8"?>
<!-- Svg Vector Icons : http://www.sfont.cn -->
<!DOCTYPE svg PUBLIC "-//W3C//DTD SVG 1.1//EN" "http://www.w3.org/Graphics/SVG/1.1/DTD/svg11.dtd">
<svg version="1.1" xmlns="http://www.w3.org/2000/svg" xmlns:xlink="http://www.w3.org/1999/xlink" x="0px" y="0px" viewBox="0 0 1000 1000" enable-background="new 0 0 1000 1000" xml:space="preserve">
<metadata> Svg Vector Icons : http://www.sfont.cn </metadata>
<g><path d="M625.3,558.4c20.9-33.2,36.8-66.9,47.6-101c10.8-34.1,15.5-68.1,14.2-102c-0.7-28.7-0.5-55.7,0.5-80.9c1-25.2,2.5-48.7,4.4-70.4h233.3c19,0,34.5,5.1,46.6,15.3c12.1,10.2,18.1,24.6,18.1,43.1v295.8L625.3,558.4L625.3,558.4z M596.9,661.8c15.7,6.4,33.2,12,52.5,16.8c19.3,4.8,37.9,10.5,55.9,17.2c18,6.7,34,15.2,48,25.4c14,10.2,23.7,23.6,28.9,40.2c3.3,9.6,5.9,21.7,7.8,36.4c2,14.7,2.9,29.5,2.9,44.5s-1.1,29.2-3.4,42.6c-2.3,13.4-5.7,23.6-10.3,30.6c-3.3,4.5-12.4,9.3-27.5,14.4c-15,5.1-33.8,10.1-56.4,14.8c-22.6,4.8-47.6,9.3-75,13.4c-27.5,4.1-54.9,7.8-82.4,11s-53.9,5.6-79.4,7.2c-25.5,1.6-47.7,2.4-66.7,2.4s-40.5-1-64.7-2.9c-24.2-1.9-49.2-4.3-75-7.2c-25.8-2.9-51.3-6.2-76.5-10.1c-25.2-3.8-48-7.7-68.6-11.5c-20.6-3.8-38.1-7.7-52.5-11.5c-14.4-3.8-23.5-7.3-27.5-10.5c-6.5-5.1-11.6-20.7-15.2-46.9c-3.6-26.2-2.5-59.7,3.4-100.5c3.9-23,13.9-40.5,29.9-52.7c16-12.1,34.5-21.7,55.4-28.7c20.9-7,42.6-13.4,65.2-19.1c22.6-5.7,42.3-14,59.3-24.9c13.7-8.3,24.2-16.1,31.4-23.5c7.2-7.3,12.4-14.8,15.7-22.5c3.3-7.7,4.9-15.6,4.9-23.9c0-8.3-0.3-17.6-1-27.8c-1.3-14.7-6.5-26.2-15.7-34.5c-9.1-8.3-19.3-16.6-30.4-24.9c-5.2-4.5-9.8-10.7-13.7-18.7c-3.9-8-7.5-16.1-10.8-24.4c-3.3-9.6-6.5-19.5-9.8-29.7c-4.6-1.3-9.2-3.5-13.7-6.7c-3.9-3.2-8-7.7-12.3-13.4c-4.2-5.7-8-14-11.3-24.9c-3.3-10.9-4.4-20.6-3.4-29.2c1-8.6,2.8-16.1,5.4-22.5c2.6-7,6.5-13.7,11.8-20.1c-0.7-24.3,0.7-48.2,3.9-71.8c2.6-20.4,7.4-42,14.2-64.6c6.9-22.7,16.8-43.2,29.9-61.8c12.4-17.9,26.1-32.4,41.2-43.6c15-11.2,30.4-19.9,46.1-26.3c15.7-6.4,31.5-10.7,47.5-12.9c16-2.2,31.2-3.4,45.6-3.4c19,0,37.1,2.1,54.4,6.2c17.3,4.1,33.5,9.7,48.5,16.8c15,7,28.3,15,39.7,23.9c11.4,8.9,20.8,17.9,27.9,26.8c17,20.4,29.4,42.8,37.3,67c7.8,24.3,13.4,47.2,16.7,68.9c3.3,25.5,4.9,50.7,4.9,75.6c4.6,2.6,8.2,6.4,10.8,11.5c2.6,4.5,4.7,10.2,6.4,17.2c1.6,7,1.8,15.6,0.5,25.9c-1.3,13.4-4.2,24.1-8.8,32.1c-4.6,8-9.2,14.2-13.7,18.7c-5.9,5.1-11.8,8.6-17.6,10.5c-3.3,10.9-6.5,20.7-9.8,29.7c-3.3,8.3-7.2,16.3-11.8,23.9c-4.6,7.7-9.5,13.7-14.7,18.2c-5.9,5.1-11.3,9.4-16.2,12.9c-4.9,3.5-9.3,7.3-13.2,11.5c-3.9,4.2-7.2,8.8-9.8,13.9c-2.6,5.1-4.6,11.5-5.9,19.1c-1.3,9.6-1.8,19.3-1.5,29.2c0.3,9.9,2.9,19.6,7.8,29.2c4.9,9.6,12.4,18.8,22.6,27.8C565.3,646.8,579.2,654.8,596.9,661.8L596.9,661.8z M467.4,864.8c0-3.8-1-11-2.9-21.5c-2-10.5-4.1-22-6.4-34.5c-2.3-12.4-4.7-24.4-7.4-35.9c-2.6-11.5-4.6-19.8-5.9-24.9c9.8-7,17.3-16.9,22.6-29.7c1.3-3.8,0.5-8.1-2.5-12.9c-2.9-4.8-7-9.4-12.3-13.9c-5.9-5.1-12.7-10.5-20.6-16.3h-49c-7.2,5.7-13.4,11.2-18.6,16.3c-4.6,4.5-8.3,9.1-11.3,13.9c-2.9,4.8-3.8,8.8-2.5,12c3.3,6.4,6.2,11.8,8.8,16.3c2.6,4.5,5.6,8.6,8.8,12.4c-1.3,3.8-3.3,11-5.9,21.5c-2.6,10.5-5.6,22-8.8,34.5c-3.3,12.4-6,24.3-8.3,35.4c-2.3,11.2-3.4,19.6-3.4,25.4c0,3.2,2.8,7.8,8.3,13.9c5.6,6.1,12.1,12.1,19.6,18.2c7.5,6.1,14.9,11.3,22.1,15.8c7.2,4.5,12.4,6.7,15.7,6.7c3.9,0,9.2-2.1,15.7-6.2c6.5-4.2,13.1-9.1,19.6-14.8s12.3-11.5,17.2-17.2C465,873.4,467.4,868.6,467.4,864.8L467.4,864.8z M976.3,620.6c4.6,0,8,3,10.3,9.1c2.3,6.1,3.4,12.3,3.4,18.7c0,7-1.1,13.9-3.4,20.6c-2.3,6.7-5.7,10.1-10.3,10.1h-200c-9.2-14-19.1-25.8-29.9-35.4c-10.8-9.6-21.7-17.2-32.8-23H976.3L976.3,620.6z"/></g>
</svg>