<?xml version="1.0" standalone="no"?><!DOCTYPE svg PUBLIC "-//W3C//DTD SVG 1.1//EN" "http://www.w3.org/Graphics/SVG/1.1/DTD/svg11.dtd"><svg t="1542766320658" class="icon" style="" viewBox="0 0 1024 1024" version="1.1" xmlns="http://www.w3.org/2000/svg" p-id="1217" xmlns:xlink="http://www.w3.org/1999/xlink" width="200" height="200"><defs><style type="text/css"></style></defs><path d="M827.733333 819.2h-648.533333c-37.546667 0-68.266667-30.72-68.266667-68.266667V273.066667c0-37.546667 30.72-68.266667 68.266667-68.266667h648.533333c37.546667 0 68.266667 30.72 68.266667 68.266667v477.866666c0 37.546667-30.72 68.266667-68.266667 68.266667z m0-68.266667v34.133334-34.133334z m-648.533333-477.866666v477.866666h648.533333V273.066667h-648.533333z" fill="#3793DF" p-id="1218"></path><path d="M930.133333 614.4h-204.8c-56.32 0-102.4-46.08-102.4-102.4s46.08-102.4 102.4-102.4h204.8c18.773333 0 34.133333 15.36 34.133334 34.133333v136.533334c0 18.773333-15.36 34.133333-34.133334 34.133333z m-204.8-136.533333c-18.773333 0-34.133333 15.36-34.133333 34.133333s15.36 34.133333 34.133333 34.133333h170.666667v-68.266666h-170.666667z" fill="#EB4AF4" p-id="1219"></path></svg>