<?xml version="1.0" encoding="utf-8"?>
<!-- Svg Vector Icons : http://www.sfont.cn -->
<!DOCTYPE svg PUBLIC "-//W3C//DTD SVG 1.1//EN" "http://www.w3.org/Graphics/SVG/1.1/DTD/svg11.dtd">
<svg version="1.1" xmlns="http://www.w3.org/2000/svg" xmlns:xlink="http://www.w3.org/1999/xlink" x="0px" y="0px" viewBox="0 0 1000 1000" enable-background="new 0 0 1000 1000" xml:space="preserve">
<metadata> Svg Vector Icons : http://www.sfont.cn </metadata>
<g><path d="M645.9,430.9l-55.8,0.9l-16.5,53.1l45.8,33l44.9-33L645.9,430.9z M454.6,687.2L416.1,646l-50.4,23.8l6.4,55.8l54.9,11L454.6,687.2z M428.9,384.2l3.7,64.1l62.3,16.5l34.8-54l-40.3-49.4L428.9,384.2z M937.1,500.5L910.5,451l-54.9,10.1l-8.2,55.8l50.4,24.7L937.1,500.5z M893.1,620.4l-1.8-35.7l-34.8-9.2l-19.2,30.2l22,27.5L893.1,620.4z M195.5,265.2v-55.8l-53.1-17.4l-33,45.8l33,44.9L195.5,265.2z M320,211.1l28.4-48.5l-36.6-42.1l-51.3,22l4.6,55.8L320,211.1z M153.4,414.4l52.2,20.1l35.7-43L211,343.9l-54,14.6L153.4,414.4z M97.5,674.4l4.6,55.8l54.9,12.8l28.4-48.5l-36.6-42.1L97.5,674.4z M220.2,651.5l54.9,12.8l28.4-48.5l-36.6-42.1l-51.3,22L220.2,651.5z M114.9,583.8L157,505l-61.3-64.1L16,479.4l11.9,87.9L114.9,583.8z M801.6,417.1c-10.1-74.2-48.5-140.1-108-184.9c-59.5-44.9-132.8-65-206.9-54.9c-126.3,17.4-215.2,134.6-197.8,260.9c7.3,51.3,33.9,97,75.1,128.2c41.2,31.1,92.5,44.9,143.7,37.5c22.9-2.7,38.5-23.8,35.7-46.7c-2.7-22.9-23.8-38.5-46.7-35.7c-29.3,3.7-58.6-3.7-82.4-22c-23.8-18.3-38.5-43.9-43-73.2c-11-81.5,45.8-156.6,127.3-168.5c52.2-7.3,103.5,6.4,145.6,38.5c42.1,32,68.7,77.8,76,130c9.2,68.7-9.2,170.3-87.9,248.1C522.3,783.4,323.6,820,58.1,779.7c-22.9-0.9-43.9,14.6-47.6,36.6c-3.7,22.9,11.9,43.9,34.8,46.7c76,11,144.7,16.5,206,16.5c236.2,0,367.1-74.2,438.5-144.7C790.6,636,813.5,505,801.6,417.1z M989.2,766c-4.6-34.8-36.6-77.8-87-89.7c-49.4-11.9-125.4,2.7-212.4,134.6c-11,17.4-6.4,39.4,10.1,51.3c17.4,11,39.4,6.4,51.3-10.1c48.5-74.2,98-111.7,134.6-103.5c19.2,4.6,30.2,22,31.1,27.5c0.9,6.4-3.7,18.3-11.9,21.1c-20.1,4.6-32,23.8-27.5,43.9c3.7,17.4,19.2,28.4,35.7,28.4c2.7,0,5.5,0,8.2-0.9C970,856.6,994.7,806.2,989.2,766z"/></g>
</svg>