<?xml version="1.0" encoding="utf-8"?>
<!-- Generator: Adobe Illustrator 22.1.0, SVG Export Plug-In . SVG Version: 6.00 Build 0)  -->
<svg version="1.1" id="图层_1" xmlns="http://www.w3.org/2000/svg" xmlns:xlink="http://www.w3.org/1999/xlink" x="0px" y="0px"
	 viewBox="0 0 206 206" style="enable-background:new 0 0 206 206;" xml:space="preserve">
<style type="text/css">
	.st0{fill:#FFFFFF;}
	.st1{fill:#FE970E;}
</style>
<g>
	<path class="st0" d="M40.9,84.4"/>
	<circle class="st1" cx="103" cy="103" r="100"/>
	<path class="st0" d="M105.9,79c-13.3,0-24,10.7-24,24s10.7,24,24,24s24-10.7,24-24S119.2,79,105.9,79z M105.9,120
		c-9.4,0-17-7.6-17-17s7.6-17,17-17s17,7.6,17,17S115.3,120,105.9,120z"/>
	<g>
		<path class="st0" d="M76.6,56.3v21.4c0,5.5-4.9,10-10.9,10s-10.9-4.5-10.9-10V56.3c0,0-0.5-2.4-3.2-2.4s-3.3,2.4-3.3,2.4v21.4
			c0,8.8,7.8,16,17.5,16s17.5-7.2,17.5-16V56.3c0,0-0.7-2.4-3.4-2.4C77.2,53.9,76.6,56.3,76.6,56.3z"/>
		<rect x="53.2" y="75.6" class="st0" width="25.6" height="6.6"/>
		<path class="st0" d="M69.2,77.5c0,1.8-1.5,3.3-3.3,3.3l0,0c-1.8,0-3.3-1.5-3.3-3.3V56.9c0-1.8,1.5-3.3,3.3-3.3l0,0
			c1.8,0,3.3,1.5,3.3,3.3V77.5z"/>
	</g>
	<path class="st0" d="M145.9,53.2c-9.7,0-17.6,13.4-17.6,30.6c0,8,7.9,10.8,17.6,10.8c9.7,0,17.6-2.9,17.6-10.8
		C163.5,66.6,155.7,53.2,145.9,53.2z M145.6,89.6c-5.9,0-10.4-2.5-10.4-7.8c0-11.5,5.1-21.3,11.1-21.3c5.9,0,10.4,9.7,10.4,21.3
		C156.7,87.1,151.6,89.6,145.6,89.6z"/>
	<rect x="62.6" y="91.4" class="st0" width="6" height="14.7"/>
	<path class="st0" d="M71.4,149.2c0,3.2-2.6,5.8-5.8,5.8l0,0c-3.2,0-5.8-2.6-5.8-5.8v-38.5c0-3.2,2.6-5.8,5.8-5.8l0,0
		c3.2,0,5.8,2.6,5.8,5.8V149.2z"/>
	<rect x="142.7" y="91.4" class="st0" width="6" height="14.7"/>
	<path class="st0" d="M151.5,149.2c0,3.2-2.6,5.8-5.8,5.8l0,0c-3.2,0-5.8-2.6-5.8-5.8v-38.5c0-3.2,2.6-5.8,5.8-5.8l0,0
		c3.2,0,5.8,2.6,5.8,5.8V149.2z"/>
</g>
</svg>
