<?xml version="1.0" encoding="utf-8"?>
<!-- Generator: Adobe Illustrator 22.1.0, SVG Export Plug-In . SVG Version: 6.00 Build 0)  -->
<svg version="1.1" id="图层_1" xmlns="http://www.w3.org/2000/svg" xmlns:xlink="http://www.w3.org/1999/xlink" x="0px" y="0px"
	 viewBox="0 0 74 74" style="enable-background:new 0 0 74 74;" xml:space="preserve">
<style type="text/css">
	.st0{fill:#2793DB;}
	.st1{fill:#FFFFFF;}
	.st2{fill:none;}
</style>
<g>
	<path class="st0" d="M51.2,71H22.8C11.9,71,3,62.1,3,51.2V22.8C3,11.9,11.9,3,22.8,3h28.3C62.1,3,71,11.9,71,22.8v28.3
		C71,62.1,62.1,71,51.2,71z"/>
	<g>
		<path class="st1" d="M33.9,27H28c-1.1,0-1.9,0.9-1.9,2v5.9c0,1.1,0.9,1.9,2,2h5.9c1.1,0,1.9-0.9,2-2v-5.9C35.8,27.9,35,27,33.9,27
			"/>
		<path class="st1" d="M45.6,27l-5.9,0c-1.1,0-1.9,0.9-2,2v5.9c0,0.5,0.2,1,0.6,1.4c0.4,0.4,0.9,0.6,1.4,0.6l0.8,0l4.2,0l0.8,0
			c0.5,0,1-0.2,1.4-0.6c0.4-0.4,0.6-0.9,0.6-1.4l0-5.1l0-0.8C47.6,27.9,46.7,27,45.6,27"/>
		<path class="st1" d="M33.9,38.7H28c-1.1,0-1.9,0.9-1.9,2v5.9c0,1.1,0.9,1.9,1.9,2h5.9c1.1,0,1.9-0.9,2-2v-5.9
			C35.8,39.6,35,38.7,33.9,38.7"/>
		<path class="st1" d="M45.6,38.7h-5.9c-1.1,0-1.9,0.9-2,2v5.9c0,1.1,0.9,1.9,2,2h5.9c1.1,0,1.9-0.9,2-2v-5.9
			C47.6,39.6,46.7,38.7,45.6,38.7"/>
	</g>
	<rect x="16.6" y="16.7" class="st2" width="41.2" height="41.3"/>
	<g>
		<path class="st1" d="M16,35.9c0,0,0.1,0,0.2,0c0.6,0,1-0.4,1.1-1c1.3-9.5,9.6-16.7,19.2-16.7c2.5,0,5,0.5,7.3,1.4
			c0.6,0.2,1.2,0,1.5-0.6c0.2-0.6,0-1.2-0.6-1.5c-2.6-1-5.4-1.6-8.2-1.6c-10.8,0-20,8-21.4,18.6C15,35.2,15.4,35.8,16,35.9L16,35.9z
			"/>
		<path class="st1" d="M43.8,55.4c-2.3,1-4.8,1.4-7.3,1.4c-9.6,0-17.9-7.2-19.2-16.7c-0.1-0.6-0.6-1-1.3-1c-0.6,0.1-1,0.6-1,1.3
			c1.5,10.6,10.7,18.6,21.5,18.6c2.8,0,5.5-0.5,8.2-1.6c0.6-0.2,0.8-0.9,0.6-1.5C45,55.5,44.4,55.2,43.8,55.4L43.8,55.4z"/>
		<path class="st1" d="M49.8,20.6c-0.5-0.4-1.2-0.3-1.6,0.2c-0.4,0.5-0.3,1.2,0.2,1.6c4.8,3.7,7.5,9.2,7.5,15.2
			c0,6-2.7,11.5-7.5,15.2c-0.5,0.4-0.6,1.1-0.2,1.6c0.2,0.3,0.6,0.4,0.9,0.4c0.2,0,0.5-0.1,0.7-0.2c5.3-4.1,8.4-10.3,8.4-17
			C58.2,30.9,55.1,24.7,49.8,20.6L49.8,20.6z"/>
	</g>
</g>
</svg>
